<?xml version="1.0" encoding="UTF-8"?>
<!DOCTYPE svg PUBLIC "-//W3C//DTD SVG 1.1//EN" "http://www.w3.org/Graphics/SVG/1.1/DTD/svg11.dtd">
<svg xmlns="http://www.w3.org/2000/svg" version="1.1" width="500px" height="500px" style="shape-rendering:geometricPrecision; text-rendering:geometricPrecision; image-rendering:optimizeQuality; fill-rule:evenodd; clip-rule:evenodd" xmlns:xlink="http://www.w3.org/1999/xlink">
<g><path style="opacity:1" fill="#fdcc71" d="M 271.5,4.5 C 274.008,6.23711 277.008,7.07044 280.5,7C 280.167,7.33333 279.833,7.66667 279.5,8C 290.074,9.34176 300.74,10.5084 311.5,11.5C 316.437,12.2612 321.103,13.5946 325.5,15.5C 326.818,18.6508 328.985,20.9841 332,22.5C 333.062,21.9032 334.228,21.5698 335.5,21.5C 340.744,22.0794 345.744,23.4128 350.5,25.5C 376.44,36.6217 399.44,51.955 419.5,71.5C 420.048,73.3936 421.048,75.0603 422.5,76.5C 421.624,77.2508 420.624,77.7508 419.5,78C 421.594,79.3515 423.927,79.8515 426.5,79.5C 426.304,83.6414 428.304,85.9748 432.5,86.5C 434.521,89.1878 436.854,91.5211 439.5,93.5C 454.997,111.795 467.497,132.128 477,154.5C 480.092,162.007 482.592,169.673 484.5,177.5C 483.826,183.033 484.992,188.033 488,192.5C 488.264,196.949 489.097,201.283 490.5,205.5C 490.06,207.765 489.394,209.932 488.5,212C 489.836,218.581 491.669,225.081 494,231.5C 494.667,242.167 494.667,252.833 494,263.5C 493.358,265.762 492.525,267.929 491.5,270C 492.632,274.413 492.799,278.913 492,283.5C 490.133,291.403 488.966,299.403 488.5,307.5C 487.883,307.611 487.383,307.944 487,308.5C 486.321,311.55 485.488,314.55 484.5,317.5C 482.794,317.899 481.294,317.899 480,317.5C 479.333,318.833 479.333,320.167 480,321.5C 481.397,322.226 482.231,323.393 482.5,325C 480.643,328.264 479.643,331.764 479.5,335.5C 462.606,382.364 433.939,420.031 393.5,448.5C 392.178,448.67 391.011,448.337 390,447.5C 388.972,449.361 387.472,450.695 385.5,451.5C 384.158,449.995 382.492,449.328 380.5,449.5C 380.607,451.903 379.607,453.736 377.5,455C 377.833,455.333 378.167,455.667 378.5,456C 377.019,456.98 375.685,458.147 374.5,459.5C 372.955,460.452 371.288,460.785 369.5,460.5C 369.5,461.5 369.5,462.5 369.5,463.5C 367.167,463.5 364.833,463.5 362.5,463.5C 362.072,466.246 360.406,467.913 357.5,468.5C 357.693,467.312 357.193,465.978 356,464.5C 354.89,466.397 354.724,468.23 355.5,470C 354.207,470.49 352.873,470.657 351.5,470.5C 351.5,471.5 351.5,472.5 351.5,473.5C 334.092,482.103 315.759,487.77 296.5,490.5C 292.894,490.789 289.394,490.456 286,489.5C 285.626,490.416 285.126,491.25 284.5,492C 266.288,494.2 247.955,495.033 229.5,494.5C 167.251,489.008 114.585,464.008 71.5,419.5C 73.2398,414.74 73.9065,409.74 73.5,404.5C 76.9103,404.616 78.2436,402.95 77.5,399.5C 74.2447,399.014 71.578,400.014 69.5,402.5C 66.8674,401.218 66.8674,399.884 69.5,398.5C 67.6017,397.266 65.935,397.599 64.5,399.5C 63.912,401.911 62.7454,403.911 61,405.5C 60.3828,404.551 60.5494,403.718 61.5,403C 60.2624,403.077 59.2624,402.911 58.5,402.5C 59.8114,401.742 60.3114,400.742 60,399.5C 58.575,398.788 57.075,398.621 55.5,399C 54.1667,396.667 52.8333,394.333 51.5,392C 55.0945,391.878 56.7612,390.044 56.5,386.5C 55.0222,386.762 53.6888,386.429 52.5,385.5C 53.6405,384.575 53.6405,383.741 52.5,383C 53.2191,380.444 54.8858,379.277 57.5,379.5C 57.5,381.833 57.5,384.167 57.5,386.5C 60.381,386.302 62.381,384.802 63.5,382C 62.9681,379.98 61.6348,379.147 59.5,379.5C 59.2011,377.396 59.5344,375.396 60.5,373.5C 61.4168,374.127 62.4168,374.461 63.5,374.5C 65.8297,376.542 66.9964,379.208 67,382.5C 67.3333,382.167 67.6667,381.833 68,381.5C 69.1127,382.305 70.2794,382.972 71.5,383.5C 72.6049,384.6 73.9382,385.267 75.5,385.5C 78.7845,389.473 82.7845,392.473 87.5,394.5C 90.6478,397.926 94.6478,399.259 99.5,398.5C 99.9175,399.222 100.584,399.722 101.5,400C 203.004,400.782 304.338,400.282 405.5,398.5C 414.504,397.546 419.838,392.546 421.5,383.5C 422.406,371.172 423.239,358.839 424,346.5C 424.915,345.672 425.581,344.672 426,343.5C 426.5,332.839 426.667,322.172 426.5,311.5C 428.061,305.717 429.228,299.717 430,293.5C 430.358,281.488 430.858,269.488 431.5,257.5C 431.5,256.167 431.5,254.833 431.5,253.5C 432.167,253.5 432.5,253.167 432.5,252.5C 433.29,251.391 433.79,250.058 434,248.5C 434.567,237.833 435.067,227.166 435.5,216.5C 437.099,216.768 438.432,216.434 439.5,215.5C 440.748,214.666 441.415,213.333 441.5,211.5C 441.297,206.205 440.13,201.205 438,196.5C 437.329,195.748 436.496,195.414 435.5,195.5C 431.669,192.081 427.335,189.414 422.5,187.5C 412.013,186.506 401.346,186.172 390.5,186.5C 392.337,176.002 388.337,168.836 378.5,165C 369.333,164.833 360.167,164.667 351,164.5C 341.475,164.502 332.308,165.168 323.5,166.5C 320.574,168.084 317.908,170.084 315.5,172.5C 313.5,171.5 311.5,170.5 309.5,169.5C 306.5,165.833 303.167,162.5 299.5,159.5C 297.411,156.622 295.077,153.955 292.5,151.5C 291.5,147.833 289.167,145.5 285.5,144.5C 283.14,141.473 280.473,138.806 277.5,136.5C 277.167,135.5 276.5,134.833 275.5,134.5C 271.833,130.5 268.167,126.5 264.5,122.5C 263.833,119.833 262.167,118.167 259.5,117.5C 257.5,115.167 255.5,112.833 253.5,110.5C 252.833,107.833 251.167,106.167 248.5,105.5C 248.167,105.5 247.833,105.5 247.5,105.5C 245.833,103.167 243.833,101.167 241.5,99.5C 241.167,98.8333 240.833,98.1667 240.5,97.5C 238.919,94.4029 237.086,91.4029 235,88.5C 231.328,86.3111 227.828,83.9778 224.5,81.5C 224.167,81.5 223.833,81.5 223.5,81.5C 222.203,77.8424 219.537,76.1758 215.5,76.5C 214.833,76.5 214.167,76.5 213.5,76.5C 211.629,75.2028 209.629,74.2028 207.5,73.5C 199.112,71.8195 190.779,72.4862 182.5,75.5C 182.137,76.1835 181.804,76.8501 181.5,77.5C 181.167,77.5 180.833,77.5 180.5,77.5C 178.251,78.0798 176.585,79.4131 175.5,81.5C 174.055,83.0627 172.389,84.396 170.5,85.5C 168.5,86.8333 166.833,88.5 165.5,90.5C 165.5,91.1667 165.167,91.5 164.5,91.5C 163.053,93.4032 161.386,95.0699 159.5,96.5C 158.417,96.4606 157.417,96.1272 156.5,95.5C 155.646,96.5217 154.646,97.3551 153.5,98C 153.957,98.414 154.291,98.914 154.5,99.5C 153.272,101.321 151.606,102.321 149.5,102.5C 149.5,104.167 149.5,105.833 149.5,107.5C 147.396,107.201 145.396,107.534 143.5,108.5C 143.709,109.086 144.043,109.586 144.5,110C 142.658,111.346 141.658,113.179 141.5,115.5C 138.833,118.5 136.167,121.5 133.5,124.5C 132.833,124.833 132.167,125.167 131.5,125.5C 129.5,126.167 127.5,126.833 125.5,127.5C 125.652,131.801 124.318,132.801 121.5,130.5C 120.41,131.391 120.41,132.391 121.5,133.5C 119.534,134.372 117.534,134.205 115.5,133C 116.846,131.358 116.513,130.691 114.5,131C 113.289,132.113 113.289,133.28 114.5,134.5C 115.833,135.167 117.167,135.833 118.5,136.5C 117.675,137.386 116.675,137.719 115.5,137.5C 115.6,140.108 114.933,142.442 113.5,144.5C 113.158,145.338 112.492,145.672 111.5,145.5C 108.477,145.105 107.477,146.105 108.5,148.5C 107.048,149.94 106.048,151.606 105.5,153.5C 102.833,154.833 100.833,156.833 99.5,159.5C 97.5,160.167 96.1667,161.5 95.5,163.5C 92.1667,166.5 88.8333,169.5 85.5,172.5C 84.5,172.5 83.5,172.5 82.5,172.5C 82.762,173.978 82.4287,175.311 81.5,176.5C 80.2322,175.572 78.8989,175.405 77.5,176C 76.4063,177.78 75.4063,179.614 74.5,181.5C 73.8333,180.5 73.1667,179.5 72.5,178.5C 71.935,184.732 68.935,189.398 63.5,192.5C 64.2458,193.736 64.5792,195.07 64.5,196.5C 62.6878,198.461 61.6878,200.794 61.5,203.5C 60.3608,206.004 59.6941,208.67 59.5,211.5C 58.71,212.609 58.21,213.942 58,215.5C 57.3333,262.167 57.3333,308.833 58,355.5C 58.3333,357.833 58.6667,360.167 59,362.5C 59.3826,363.056 59.8826,363.389 60.5,363.5C 60.5,364.833 60.5,366.167 60.5,367.5C 59.1529,368.171 57.9862,368.171 57,367.5C 56.4592,370.209 54.9592,372.209 52.5,373.5C 51.8015,370.731 50.4682,368.398 48.5,366.5C 48.8076,365.692 49.3076,365.025 50,364.5C 51,365.5 52,366.5 53,367.5C 53.1667,366.833 53.3333,366.167 53.5,365.5C 52.3035,362.911 51.3035,360.244 50.5,357.5C 48.4321,360.077 47.0987,363.077 46.5,366.5C 46.4837,362.732 45.4837,359.065 43.5,355.5C 39.4363,353.523 35.2696,352.523 31,352.5C 27.8411,348.993 25.0078,345.16 22.5,341C 21.5043,337.769 21.8376,334.602 23.5,331.5C 23.3333,330.167 23.1667,328.833 23,327.5C 22.0201,329.059 21.1867,330.726 20.5,332.5C 19.5502,329.58 17.8835,327.247 15.5,325.5C 9.5911,307.737 5.92443,289.403 4.5,270.5C 4.1344,251.12 4.80107,231.786 6.5,212.5C 19.9727,133.627 60.9727,74.1273 129.5,34C 136.919,29.957 144.586,26.457 152.5,23.5C 156.962,22.8466 161.295,21.6799 165.5,20C 170.614,17.7683 175.614,15.6016 180.5,13.5C 180.5,12.8333 180.833,12.5 181.5,12.5C 181.917,13.1239 182.584,13.4573 183.5,13.5C 198.987,10.1624 214.321,7.16238 229.5,4.5C 243.402,3.17814 257.402,3.17814 271.5,4.5 Z"/></g>
<g><path style="opacity:1" fill="#f2cd88" d="M 229.5,4.5 C 214.321,7.16238 198.987,10.1624 183.5,13.5C 182.584,13.4573 181.917,13.1239 181.5,12.5C 197.239,8.32133 213.239,5.65466 229.5,4.5 Z"/></g>
<g><path style="opacity:1" fill="#f2cd83" d="M 271.5,4.5 C 285.181,5.55688 298.514,7.89021 311.5,11.5C 300.74,10.5084 290.074,9.34176 279.5,8C 279.833,7.66667 280.167,7.33333 280.5,7C 277.008,7.07044 274.008,6.23711 271.5,4.5 Z"/></g>
<g><path style="opacity:1" fill="#f0cd88" d="M 180.5,13.5 C 175.614,15.6016 170.614,17.7683 165.5,20C 161.295,21.6799 156.962,22.8466 152.5,23.5C 161.357,19.0826 170.69,15.7493 180.5,13.5 Z"/></g>
<g><path style="opacity:1" fill="#f5cf80" d="M 325.5,15.5 C 331.91,17.3591 338.243,19.5258 344.5,22C 346.727,22.941 348.727,24.1077 350.5,25.5C 345.744,23.4128 340.744,22.0794 335.5,21.5C 334.228,21.5698 333.062,21.9032 332,22.5C 328.985,20.9841 326.818,18.6508 325.5,15.5 Z"/></g>
<g><path style="opacity:1" fill="#cdd095" d="M 207.5,73.5 C 202.156,73.334 196.823,73.5006 191.5,74C 189.389,74.8447 187.389,75.678 185.5,76.5C 184.167,76.8333 182.833,77.1667 181.5,77.5C 181.804,76.8501 182.137,76.1835 182.5,75.5C 190.779,72.4862 199.112,71.8195 207.5,73.5 Z"/></g>
<g><path style="opacity:1" fill="#2b9499" d="M 207.5,73.5 C 209.629,74.2028 211.629,75.2028 213.5,76.5C 209.818,76.6653 206.152,76.4986 202.5,76C 202.833,75.6667 203.167,75.3333 203.5,75C 200.833,74.3333 198.167,74.3333 195.5,75C 195.833,75.3333 196.167,75.6667 196.5,76C 192.848,76.4986 189.182,76.6653 185.5,76.5C 187.389,75.678 189.389,74.8447 191.5,74C 196.823,73.5006 202.156,73.334 207.5,73.5 Z"/></g>
<g><path style="opacity:1" fill="#cbd095" d="M 215.5,76.5 C 219.537,76.1758 222.203,77.8424 223.5,81.5C 221.947,79.615 219.947,78.615 217.5,78.5C 216.833,77.8333 216.167,77.1667 215.5,76.5 Z"/></g>
<g><path style="opacity:1" fill="#f4cd83" d="M 419.5,71.5 C 424.184,75.6851 428.684,80.0184 433,84.5C 435.41,87.3968 437.577,90.3968 439.5,93.5C 436.854,91.5211 434.521,89.1878 432.5,86.5C 428.304,85.9748 426.304,83.6414 426.5,79.5C 423.927,79.8515 421.594,79.3515 419.5,78C 420.624,77.7508 421.624,77.2508 422.5,76.5C 421.048,75.0603 420.048,73.3936 419.5,71.5 Z"/></g>
<g><path style="opacity:1" fill="#8aaf90" d="M 180.5,77.5 C 179.415,79.5869 177.749,80.9202 175.5,81.5C 176.585,79.4131 178.251,78.0798 180.5,77.5 Z"/></g>
<g><path style="opacity:1" fill="#dbd08c" d="M 224.5,81.5 C 227.828,83.9778 231.328,86.3111 235,88.5C 237.086,91.4029 238.919,94.4029 240.5,97.5C 234.806,92.4729 229.473,87.1396 224.5,81.5 Z"/></g>
<g><path style="opacity:1" fill="#8cb89d" d="M 170.5,85.5 C 169.833,88.1667 168.167,89.8333 165.5,90.5C 166.833,88.5 168.5,86.8333 170.5,85.5 Z"/></g>
<g><path style="opacity:1" fill="#5b9f92" d="M 164.5,91.5 C 164.762,92.9778 164.429,94.3112 163.5,95.5C 161.483,96.961 159.483,98.2943 157.5,99.5C 158.167,98.5 158.833,97.5 159.5,96.5C 161.386,95.0699 163.053,93.4032 164.5,91.5 Z"/></g>
<g><path style="opacity:1" fill="#4a9b87" d="M 241.5,99.5 C 243.833,101.167 245.833,103.167 247.5,105.5C 244.5,104.5 242.5,102.5 241.5,99.5 Z"/></g>
<g><path style="opacity:1" fill="#ebd081" d="M 159.5,96.5 C 158.833,97.5 158.167,98.5 157.5,99.5C 157.5,100.167 157.167,100.5 156.5,100.5C 153.806,102.527 151.473,104.861 149.5,107.5C 149.5,105.833 149.5,104.167 149.5,102.5C 151.606,102.321 153.272,101.321 154.5,99.5C 154.291,98.914 153.957,98.414 153.5,98C 154.646,97.3551 155.646,96.5217 156.5,95.5C 157.417,96.1272 158.417,96.4606 159.5,96.5 Z"/></g>
<g><path style="opacity:1" fill="#1695a5" d="M 217.5,78.5 C 219.947,78.615 221.947,79.615 223.5,81.5C 223.833,81.5 224.167,81.5 224.5,81.5C 229.473,87.1396 234.806,92.4729 240.5,97.5C 240.833,98.1667 241.167,98.8333 241.5,99.5C 242.5,102.5 244.5,104.5 247.5,105.5C 247.5,106.833 247.5,108.167 247.5,109.5C 248.791,109.263 249.791,109.596 250.5,110.5C 247.708,110.452 245.875,111.785 245,114.5C 244.691,113.234 244.191,112.067 243.5,111C 247.606,108.749 247.439,106.915 243,105.5C 242.05,106.022 241.216,106.689 240.5,107.5C 239.17,105.653 239.503,104.153 241.5,103C 239.585,101.145 237.418,99.6446 235,98.5C 234.981,95.6924 233.981,93.3591 232,91.5C 230.89,93.0368 229.39,93.7035 227.5,93.5C 226.234,90.6994 225.401,87.6994 225,84.5C 223.352,83.283 221.519,82.4497 219.5,82C 218.177,81.1841 217.511,80.0174 217.5,78.5 Z"/></g>
<g><path style="opacity:1" fill="#dbd792" d="M 248.5,105.5 C 251.167,106.167 252.833,107.833 253.5,110.5C 251.5,109.167 249.833,107.5 248.5,105.5 Z"/></g>
<g><path style="opacity:1" fill="#46988f" d="M 247.5,105.5 C 247.833,105.5 248.167,105.5 248.5,105.5C 249.833,107.5 251.5,109.167 253.5,110.5C 255.5,112.833 257.5,115.167 259.5,117.5C 260.833,119.5 262.5,121.167 264.5,122.5C 268.167,126.5 271.833,130.5 275.5,134.5C 268.694,129.528 262.694,123.694 257.5,117C 253.985,115.982 251.652,113.815 250.5,110.5C 249.791,109.596 248.791,109.263 247.5,109.5C 247.5,108.167 247.5,106.833 247.5,105.5 Z"/></g>
<g><path style="opacity:1" fill="#e5d188" d="M 149.5,107.5 C 147.194,110.473 144.527,113.14 141.5,115.5C 141.658,113.179 142.658,111.346 144.5,110C 144.043,109.586 143.709,109.086 143.5,108.5C 145.396,107.534 147.396,107.201 149.5,107.5 Z"/></g>
<g><path style="opacity:1" fill="#fdcc71" d="M 194.5,104.5 C 200.532,103.375 205.532,105.041 209.5,109.5C 210.833,110.5 212.167,111.5 213.5,112.5C 215.833,115.167 218.167,117.833 220.5,120.5C 226.776,128.445 233.776,135.778 241.5,142.5C 242.167,142.833 242.833,143.167 243.5,143.5C 248.167,148.5 252.833,153.5 257.5,158.5C 258.5,161.5 260.5,163.5 263.5,164.5C 267.167,168.833 271.167,172.833 275.5,176.5C 278.833,180.167 282.167,183.833 285.5,187.5C 284.5,187.5 283.5,187.5 282.5,187.5C 277.215,188.148 272.548,190.148 268.5,193.5C 266.914,194.413 265.414,194.413 264,193.5C 263.607,196.633 262.774,199.633 261.5,202.5C 260.018,200.109 258.351,197.776 256.5,195.5C 256.167,196 255.833,196.5 255.5,197C 256.944,200.307 257.944,203.807 258.5,207.5C 259.086,207.291 259.586,206.957 260,206.5C 260.892,209.453 260.392,212.119 258.5,214.5C 259.689,215.429 261.022,215.762 262.5,215.5C 262.833,215.5 263.167,215.5 263.5,215.5C 264.209,216.404 265.209,216.737 266.5,216.5C 268.287,238.134 269.787,259.801 271,281.5C 272.252,290.667 273.752,299.667 275.5,308.5C 275.909,325.904 276.909,343.237 278.5,360.5C 278.643,362.262 278.309,363.929 277.5,365.5C 218.836,366.667 160.17,366.833 101.5,366C 100.095,364.731 98.4286,364.231 96.5,364.5C 95.1667,363.833 94.1667,362.833 93.5,361.5C 93.2287,359.688 92.562,358.022 91.5,356.5C 90.1765,308.129 90.1765,259.796 91.5,211.5C 93.914,210.089 95.5806,208.089 96.5,205.5C 97.2389,205.631 97.9056,205.464 98.5,205C 102.426,200.917 106.093,196.75 109.5,192.5C 110.5,190.833 111.833,189.5 113.5,188.5C 117.234,185.769 120.234,182.436 122.5,178.5C 127.145,175.855 130.812,172.188 133.5,167.5C 135.144,165.519 136.81,163.519 138.5,161.5C 139.945,159.937 141.611,158.604 143.5,157.5C 151.556,150.445 158.89,142.779 165.5,134.5C 168.903,132.1 171.57,129.1 173.5,125.5C 181.479,119.521 188.479,112.521 194.5,104.5 Z"/></g>
<g><path style="opacity:1" fill="#3f938b" d="M 156.5,100.5 C 155.588,102.595 154.421,104.595 153,106.5C 146.936,113.067 140.436,119.067 133.5,124.5C 136.167,121.5 138.833,118.5 141.5,115.5C 144.527,113.14 147.194,110.473 149.5,107.5C 151.473,104.861 153.806,102.527 156.5,100.5 Z"/></g>
<g><path style="opacity:1" fill="#c9d097" d="M 259.5,117.5 C 262.167,118.167 263.833,119.833 264.5,122.5C 262.5,121.167 260.833,119.5 259.5,117.5 Z"/></g>
<g><path style="opacity:1" fill="#49978c" d="M 133.5,124.5 C 133.649,125.552 133.483,126.552 133,127.5C 130.148,129.951 127.315,132.285 124.5,134.5C 126.506,131.171 128.839,128.171 131.5,125.5C 132.167,125.167 132.833,124.833 133.5,124.5 Z"/></g>
<g><path style="opacity:1" fill="#efd07e" d="M 131.5,125.5 C 128.839,128.171 126.506,131.171 124.5,134.5C 120.203,137.129 116.537,140.463 113.5,144.5C 114.933,142.442 115.6,140.108 115.5,137.5C 116.675,137.719 117.675,137.386 118.5,136.5C 117.167,135.833 115.833,135.167 114.5,134.5C 113.289,133.28 113.289,132.113 114.5,131C 116.513,130.691 116.846,131.358 115.5,133C 117.534,134.205 119.534,134.372 121.5,133.5C 120.41,132.391 120.41,131.391 121.5,130.5C 124.318,132.801 125.652,131.801 125.5,127.5C 127.5,126.833 129.5,126.167 131.5,125.5 Z"/></g>
<g><path style="opacity:1" fill="#4c9b8e" d="M 277.5,136.5 C 280.473,138.806 283.14,141.473 285.5,144.5C 285.5,144.833 285.5,145.167 285.5,145.5C 283.704,144.207 282.037,142.707 280.5,141C 279.552,140.517 278.552,140.351 277.5,140.5C 277.5,139.167 277.5,137.833 277.5,136.5 Z"/></g>
<g><path style="opacity:1" fill="#4a988e" d="M 124.5,134.5 C 119.46,141.204 113.793,147.204 107.5,152.5C 109.098,150.302 110.431,147.969 111.5,145.5C 112.492,145.672 113.158,145.338 113.5,144.5C 116.537,140.463 120.203,137.129 124.5,134.5 Z"/></g>
<g><path style="opacity:1" fill="#d3ce8f" d="M 111.5,145.5 C 110.431,147.969 109.098,150.302 107.5,152.5C 106.833,152.5 106.5,152.833 106.5,153.5C 106.167,153.5 105.833,153.5 105.5,153.5C 106.048,151.606 107.048,149.94 108.5,148.5C 107.477,146.105 108.477,145.105 111.5,145.5 Z"/></g>
<g><path style="opacity:1" fill="#cbd198" d="M 285.5,145.5 C 285.5,145.167 285.5,144.833 285.5,144.5C 289.167,145.5 291.5,147.833 292.5,151.5C 290.833,150.167 289.167,148.833 287.5,147.5C 287.167,146.5 286.5,145.833 285.5,145.5 Z"/></g>
<g><path style="opacity:1" fill="#319698" d="M 287.5,147.5 C 289.167,148.833 290.833,150.167 292.5,151.5C 295.077,153.955 297.411,156.622 299.5,159.5C 297.255,157.639 294.588,156.639 291.5,156.5C 291.657,155.127 291.49,153.793 291,152.5C 289.198,151.211 288.031,149.544 287.5,147.5 Z"/></g>
<g><path style="opacity:1" fill="#68a68f" d="M 105.5,153.5 C 105.833,153.5 106.167,153.5 106.5,153.5C 104.441,155.897 102.108,157.897 99.5,159.5C 100.833,156.833 102.833,154.833 105.5,153.5 Z"/></g>
<g><path style="opacity:1" fill="#69a691" d="M 99.5,159.5 C 99.5,160.5 99.5,161.5 99.5,162.5C 98.0413,162.433 96.7079,162.766 95.5,163.5C 96.1667,161.5 97.5,160.167 99.5,159.5 Z"/></g>
<g><path style="opacity:1" fill="#e1c382" d="M 422.5,187.5 C 411.167,187.5 399.833,187.5 388.5,187.5C 388.666,183.486 388.499,179.486 388,175.5C 387.617,174.944 387.117,174.611 386.5,174.5C 385.011,170.847 382.344,168.347 378.5,167C 360.17,166.5 341.836,166.333 323.5,166.5C 332.308,165.168 341.475,164.502 351,164.5C 360.167,164.667 369.333,164.833 378.5,165C 388.337,168.836 392.337,176.002 390.5,186.5C 401.346,186.172 412.013,186.506 422.5,187.5 Z"/></g>
<g><path style="opacity:1" fill="#413e31" d="M 323.5,166.5 C 341.836,166.333 360.17,166.5 378.5,167C 382.344,168.347 385.011,170.847 386.5,174.5C 383.824,171.886 380.824,169.719 377.5,168C 360.167,167.333 342.833,167.333 325.5,168C 321.495,169.178 318.162,171.345 315.5,174.5C 315.5,173.833 315.5,173.167 315.5,172.5C 317.908,170.084 320.574,168.084 323.5,166.5 Z"/></g>
<g><path style="opacity:1" fill="#35404c" d="M 386.5,174.5 C 387.117,174.611 387.617,174.944 388,175.5C 388.499,179.486 388.666,183.486 388.5,187.5C 385.5,187.5 382.5,187.5 379.5,187.5C 379.81,184.287 379.477,181.287 378.5,178.5C 378.167,178.5 377.833,178.5 377.5,178.5C 377.389,177.883 377.056,177.383 376.5,177C 359.5,176.333 342.5,176.333 325.5,177C 324.944,177.383 324.611,177.883 324.5,178.5C 323.539,180.265 323.205,182.265 323.5,184.5C 323.5,185.5 323.5,186.5 323.5,187.5C 320.167,187.5 316.833,187.5 313.5,187.5C 313.054,182.929 313.72,178.596 315.5,174.5C 318.162,171.345 321.495,169.178 325.5,168C 342.833,167.333 360.167,167.333 377.5,168C 380.824,169.719 383.824,171.886 386.5,174.5 Z"/></g>
<g><path style="opacity:1" fill="#b4c899" d="M 309.5,169.5 C 311.5,170.5 313.5,171.5 315.5,172.5C 315.5,173.167 315.5,173.833 315.5,174.5C 312.911,173.581 310.911,171.914 309.5,169.5 Z"/></g>
<g><path style="opacity:1" fill="#73a78a" d="M 95.5,163.5 C 93.1667,167.833 89.8333,171.167 85.5,173.5C 85.5,173.167 85.5,172.833 85.5,172.5C 88.8333,169.5 92.1667,166.5 95.5,163.5 Z"/></g>
<g><path style="opacity:1" fill="#ebcd91" d="M 377.5,178.5 C 359.833,177.167 342.167,177.167 324.5,178.5C 324.611,177.883 324.944,177.383 325.5,177C 342.5,176.333 359.5,176.333 376.5,177C 377.056,177.383 377.389,177.883 377.5,178.5 Z"/></g>
<g><path style="opacity:1" fill="#efd07f" d="M 85.5,172.5 C 85.5,172.833 85.5,173.167 85.5,173.5C 82.4602,176.539 79.7935,179.873 77.5,183.5C 73.8333,185.167 71.1667,187.833 69.5,191.5C 69.1667,191.5 68.8333,191.5 68.5,191.5C 66.7376,192.262 65.7376,193.596 65.5,195.5C 65.5,195.833 65.5,196.167 65.5,196.5C 65.1667,196.5 64.8333,196.5 64.5,196.5C 64.5792,195.07 64.2458,193.736 63.5,192.5C 68.935,189.398 71.935,184.732 72.5,178.5C 73.1667,179.5 73.8333,180.5 74.5,181.5C 75.4063,179.614 76.4063,177.78 77.5,176C 78.8989,175.405 80.2322,175.572 81.5,176.5C 82.4287,175.311 82.762,173.978 82.5,172.5C 83.5,172.5 84.5,172.5 85.5,172.5 Z"/></g>
<g><path style="opacity:1" fill="#c8cf94" d="M 122.5,178.5 C 120.234,182.436 117.234,185.769 113.5,188.5C 114.075,186.589 115.075,184.922 116.5,183.5C 118.5,181.833 120.5,180.167 122.5,178.5 Z"/></g>
<g><path style="opacity:1" fill="#e1cc97" d="M 324.5,178.5 C 324.448,180.903 324.781,183.236 325.5,185.5C 324.833,185.167 324.167,184.833 323.5,184.5C 323.205,182.265 323.539,180.265 324.5,178.5 Z"/></g>
<g><path style="opacity:1" fill="#fccc72" d="M 377.5,178.5 C 377.5,181.167 377.5,183.833 377.5,186.5C 360.12,186.806 342.786,186.472 325.5,185.5C 324.781,183.236 324.448,180.903 324.5,178.5C 342.167,177.167 359.833,177.167 377.5,178.5 Z"/></g>
<g><path style="opacity:1" fill="#0297b1" d="M 213.5,76.5 C 214.167,76.5 214.833,76.5 215.5,76.5C 216.167,77.1667 216.833,77.8333 217.5,78.5C 217.511,80.0174 218.177,81.1841 219.5,82C 221.519,82.4497 223.352,83.283 225,84.5C 225.401,87.6994 226.234,90.6994 227.5,93.5C 229.39,93.7035 230.89,93.0368 232,91.5C 233.981,93.3591 234.981,95.6924 235,98.5C 237.418,99.6446 239.585,101.145 241.5,103C 239.503,104.153 239.17,105.653 240.5,107.5C 241.216,106.689 242.05,106.022 243,105.5C 247.439,106.915 247.606,108.749 243.5,111C 244.191,112.067 244.691,113.234 245,114.5C 245.875,111.785 247.708,110.452 250.5,110.5C 251.652,113.815 253.985,115.982 257.5,117C 262.694,123.694 268.694,129.528 275.5,134.5C 276.5,134.833 277.167,135.5 277.5,136.5C 277.5,137.833 277.5,139.167 277.5,140.5C 278.552,140.351 279.552,140.517 280.5,141C 282.037,142.707 283.704,144.207 285.5,145.5C 286.5,145.833 287.167,146.5 287.5,147.5C 288.031,149.544 289.198,151.211 291,152.5C 291.49,153.793 291.657,155.127 291.5,156.5C 294.588,156.639 297.255,157.639 299.5,159.5C 300.957,161.628 301.957,163.962 302.5,166.5C 301.167,166.5 299.833,166.5 298.5,166.5C 298.5,167.5 298.5,168.5 298.5,169.5C 299.873,169.343 301.207,169.51 302.5,170C 303.675,173.691 305.508,174.191 308,171.5C 310.792,172.915 312.292,175.249 312.5,178.5C 311.607,181.084 311.274,183.751 311.5,186.5C 303.14,186.831 294.807,186.498 286.5,185.5C 285.24,184.618 284.074,183.618 283,182.5C 282.383,181.551 282.549,180.718 283.5,180C 282.551,179.383 281.718,179.549 281,180.5C 279.549,178.536 277.716,177.203 275.5,176.5C 275.5,174.833 275.5,173.167 275.5,171.5C 277.766,171.141 279.599,171.808 281,173.5C 285.404,170.47 284.571,168.97 278.5,169C 274.316,163.929 272.983,164.429 274.5,170.5C 271.208,170.88 268.875,169.547 267.5,166.5C 267.555,162.13 267.055,157.797 266,153.5C 264.5,152 263,150.5 261.5,149C 258.484,148.78 255.984,147.613 254,145.5C 253.289,147.367 253.789,148.867 255.5,150C 254.471,153.057 253.138,153.057 251.5,150C 252.711,148.887 252.711,147.72 251.5,146.5C 248.675,145.745 246.009,144.745 243.5,143.5C 242.833,143.167 242.167,142.833 241.5,142.5C 236.226,135.889 230.56,129.555 224.5,123.5C 222.18,120.331 220.013,116.998 218,113.5C 216.644,112.62 215.144,112.286 213.5,112.5C 212.167,111.5 210.833,110.5 209.5,109.5C 208.746,106.909 207.079,105.076 204.5,104C 200.973,103.192 197.64,103.359 194.5,104.5C 187.242,111.092 180.242,118.092 173.5,125.5C 170.097,127.9 167.43,130.9 165.5,134.5C 158.167,141.5 150.833,148.5 143.5,155.5C 139.515,155.44 137.848,157.44 138.5,161.5C 136.81,163.519 135.144,165.519 133.5,167.5C 129.548,170.785 125.881,174.452 122.5,178.5C 120.5,180.167 118.5,181.833 116.5,183.5C 115.167,183.5 113.833,183.5 112.5,183.5C 112.5,184.833 112.5,186.167 112.5,187.5C 111.167,187.5 109.833,187.5 108.5,187.5C 106.404,190.602 104.738,193.936 103.5,197.5C 101.196,200.141 98.8623,202.808 96.5,205.5C 94.086,206.911 92.4194,208.911 91.5,211.5C 90.1429,212.59 89.1429,213.924 88.5,215.5C 86.2413,213.561 84.2413,211.228 82.5,208.5C 82.1667,209 81.8333,209.5 81.5,210C 82.9932,212.496 84.4932,214.996 86,217.5C 86.1667,263.504 86.6667,309.504 87.5,355.5C 88.0292,358.257 89.0292,360.757 90.5,363C 92.8532,363.883 94.6866,365.383 96,367.5C 97.7659,368.233 99.5992,368.567 101.5,368.5C 101.611,369.117 101.944,369.617 102.5,370C 162.335,370.832 222.001,370.665 281.5,369.5C 281.685,377.897 283.685,385.897 287.5,393.5C 287.953,394.458 288.619,395.292 289.5,396C 225.167,396.667 160.833,396.667 96.5,396C 89.757,393.296 82.757,389.796 75.5,385.5C 73.9382,385.267 72.6049,384.6 71.5,383.5C 70.5294,381.517 69.5294,379.517 68.5,377.5C 68.3573,375.738 68.6906,374.071 69.5,372.5C 68.1369,371.107 67.3036,369.441 67,367.5C 66.3333,368.167 65.6667,368.833 65,369.5C 63.6718,365.169 62.3385,360.836 61,356.5C 60.3333,308.167 60.3333,259.833 61,211.5C 62.4742,207.562 63.6409,203.562 64.5,199.5C 65.1098,198.609 65.4431,197.609 65.5,196.5C 65.5,196.167 65.5,195.833 65.5,195.5C 67.2624,194.738 68.2624,193.404 68.5,191.5C 68.8333,191.5 69.1667,191.5 69.5,191.5C 72.5,189.167 75.1667,186.5 77.5,183.5C 79.7935,179.873 82.4602,176.539 85.5,173.5C 89.8333,171.167 93.1667,167.833 95.5,163.5C 96.7079,162.766 98.0413,162.433 99.5,162.5C 99.5,161.5 99.5,160.5 99.5,159.5C 102.108,157.897 104.441,155.897 106.5,153.5C 106.5,152.833 106.833,152.5 107.5,152.5C 113.793,147.204 119.46,141.204 124.5,134.5C 127.315,132.285 130.148,129.951 133,127.5C 133.483,126.552 133.649,125.552 133.5,124.5C 140.436,119.067 146.936,113.067 153,106.5C 154.421,104.595 155.588,102.595 156.5,100.5C 157.167,100.5 157.5,100.167 157.5,99.5C 159.483,98.2943 161.483,96.961 163.5,95.5C 164.429,94.3112 164.762,92.9778 164.5,91.5C 165.167,91.5 165.5,91.1667 165.5,90.5C 168.167,89.8333 169.833,88.1667 170.5,85.5C 172.389,84.396 174.055,83.0627 175.5,81.5C 177.749,80.9202 179.415,79.5869 180.5,77.5C 180.833,77.5 181.167,77.5 181.5,77.5C 182.833,77.1667 184.167,76.8333 185.5,76.5C 189.182,76.6653 192.848,76.4986 196.5,76C 196.167,75.6667 195.833,75.3333 195.5,75C 198.167,74.3333 200.833,74.3333 203.5,75C 203.167,75.3333 202.833,75.6667 202.5,76C 206.152,76.4986 209.818,76.6653 213.5,76.5 Z"/></g>
<g><path style="opacity:1" fill="#cfd193" d="M 133.5,167.5 C 130.812,172.188 127.145,175.855 122.5,178.5C 125.881,174.452 129.548,170.785 133.5,167.5 Z"/></g>
<g><path style="opacity:1" fill="#c1ce96" d="M 257.5,158.5 C 259.833,160.167 261.833,162.167 263.5,164.5C 260.5,163.5 258.5,161.5 257.5,158.5 Z"/></g>
<g><path style="opacity:1" fill="#3b9997" d="M 143.5,155.5 C 143.5,156.167 143.5,156.833 143.5,157.5C 141.611,158.604 139.945,159.937 138.5,161.5C 137.848,157.44 139.515,155.44 143.5,155.5 Z"/></g>
<g><path style="opacity:1" fill="#ccd096" d="M 165.5,134.5 C 158.89,142.779 151.556,150.445 143.5,157.5C 143.5,156.833 143.5,156.167 143.5,155.5C 150.833,148.5 158.167,141.5 165.5,134.5 Z"/></g>
<g><path style="opacity:1" fill="#2096a5" d="M 243.5,143.5 C 246.009,144.745 248.675,145.745 251.5,146.5C 252.711,147.72 252.711,148.887 251.5,150C 253.138,153.057 254.471,153.057 255.5,150C 253.789,148.867 253.289,147.367 254,145.5C 255.984,147.613 258.484,148.78 261.5,149C 263,150.5 264.5,152 266,153.5C 267.055,157.797 267.555,162.13 267.5,166.5C 268.875,169.547 271.208,170.88 274.5,170.5C 272.983,164.429 274.316,163.929 278.5,169C 284.571,168.97 285.404,170.47 281,173.5C 279.599,171.808 277.766,171.141 275.5,171.5C 275.5,173.167 275.5,174.833 275.5,176.5C 271.167,172.833 267.167,168.833 263.5,164.5C 261.833,162.167 259.833,160.167 257.5,158.5C 252.833,153.5 248.167,148.5 243.5,143.5 Z"/></g>
<g><path style="opacity:1" fill="#b0ca93" d="M 173.5,125.5 C 171.57,129.1 168.903,132.1 165.5,134.5C 167.43,130.9 170.097,127.9 173.5,125.5 Z"/></g>
<g><path style="opacity:1" fill="#c4cf99" d="M 220.5,120.5 C 221.833,121.5 223.167,122.5 224.5,123.5C 230.56,129.555 236.226,135.889 241.5,142.5C 233.776,135.778 226.776,128.445 220.5,120.5 Z"/></g>
<g><path style="opacity:1" fill="#3c9693" d="M 213.5,112.5 C 215.144,112.286 216.644,112.62 218,113.5C 220.013,116.998 222.18,120.331 224.5,123.5C 223.167,122.5 221.833,121.5 220.5,120.5C 218.167,117.833 215.833,115.167 213.5,112.5 Z"/></g>
<g><path style="opacity:1" fill="#d2d094" d="M 194.5,104.5 C 188.479,112.521 181.479,119.521 173.5,125.5C 180.242,118.092 187.242,111.092 194.5,104.5 Z"/></g>
<g><path style="opacity:1" fill="#d1d495" d="M 194.5,104.5 C 197.64,103.359 200.973,103.192 204.5,104C 207.079,105.076 208.746,106.909 209.5,109.5C 205.532,105.041 200.532,103.375 194.5,104.5 Z"/></g>
<g><path style="opacity:1" fill="#539887" d="M 77.5,183.5 C 75.1667,186.5 72.5,189.167 69.5,191.5C 71.1667,187.833 73.8333,185.167 77.5,183.5 Z"/></g>
<g><path style="opacity:1" fill="#2092a2" d="M 299.5,159.5 C 303.167,162.5 306.5,165.833 309.5,169.5C 310.911,171.914 312.911,173.581 315.5,174.5C 313.72,178.596 313.054,182.929 313.5,187.5C 304.167,187.5 294.833,187.5 285.5,187.5C 282.167,183.833 278.833,180.167 275.5,176.5C 277.716,177.203 279.549,178.536 281,180.5C 281.718,179.549 282.551,179.383 283.5,180C 282.549,180.718 282.383,181.551 283,182.5C 284.074,183.618 285.24,184.618 286.5,185.5C 294.807,186.498 303.14,186.831 311.5,186.5C 311.274,183.751 311.607,181.084 312.5,178.5C 312.292,175.249 310.792,172.915 308,171.5C 305.508,174.191 303.675,173.691 302.5,170C 301.207,169.51 299.873,169.343 298.5,169.5C 298.5,168.5 298.5,167.5 298.5,166.5C 299.833,166.5 301.167,166.5 302.5,166.5C 301.957,163.962 300.957,161.628 299.5,159.5 Z"/></g>
<g><path style="opacity:1" fill="#edce8e" d="M 377.5,178.5 C 377.833,178.5 378.167,178.5 378.5,178.5C 378.81,181.713 378.477,184.713 377.5,187.5C 360.09,187.819 342.756,187.485 325.5,186.5C 325.5,186.167 325.5,185.833 325.5,185.5C 342.786,186.472 360.12,186.806 377.5,186.5C 377.5,183.833 377.5,181.167 377.5,178.5 Z"/></g>
<g><path style="opacity:1" fill="#3c9696" d="M 116.5,183.5 C 115.075,184.922 114.075,186.589 113.5,188.5C 111.833,189.5 110.5,190.833 109.5,192.5C 107.5,194.167 105.5,195.833 103.5,197.5C 104.738,193.936 106.404,190.602 108.5,187.5C 109.833,187.5 111.167,187.5 112.5,187.5C 112.5,186.167 112.5,184.833 112.5,183.5C 113.833,183.5 115.167,183.5 116.5,183.5 Z"/></g>
<g><path style="opacity:1" fill="#646352" d="M 388.5,187.5 C 399.833,187.5 411.167,187.5 422.5,187.5C 427.335,189.414 431.669,192.081 435.5,195.5C 436.11,196.391 436.443,197.391 436.5,198.5C 432.637,194.192 427.971,191.026 422.5,189C 410.993,188.831 399.659,188.331 388.5,187.5 Z"/></g>
<g><path style="opacity:1" fill="#50606a" d="M 378.5,178.5 C 379.477,181.287 379.81,184.287 379.5,187.5C 382.5,187.5 385.5,187.5 388.5,187.5C 399.659,188.331 410.993,188.831 422.5,189C 427.971,191.026 432.637,194.192 436.5,198.5C 437.558,199.6 438.392,200.934 439,202.5C 439.499,206.821 439.666,211.154 439.5,215.5C 437.833,215.5 436.167,215.5 434.5,215.5C 434.167,215.5 433.833,215.5 433.5,215.5C 378.664,215.168 323.997,215.501 269.5,216.5C 268.833,216.167 268.167,215.833 267.5,215.5C 266.391,214.71 265.058,214.21 263.5,214C 263.925,208.289 265.258,202.789 267.5,197.5C 269.045,196.548 270.712,196.215 272.5,196.5C 272.178,194.278 272.845,192.444 274.5,191C 277.666,190.678 280.333,189.511 282.5,187.5C 283.5,187.5 284.5,187.5 285.5,187.5C 294.833,187.5 304.167,187.5 313.5,187.5C 316.833,187.5 320.167,187.5 323.5,187.5C 323.5,186.5 323.5,185.5 323.5,184.5C 324.167,184.833 324.833,185.167 325.5,185.5C 325.5,185.833 325.5,186.167 325.5,186.5C 333.807,187.831 342.473,188.498 351.5,188.5C 360.34,188.5 369.007,188.166 377.5,187.5C 378.477,184.713 378.81,181.713 378.5,178.5 Z"/></g>
<g><path style="opacity:1" fill="#5f5e50" d="M 325.5,186.5 C 342.756,187.485 360.09,187.819 377.5,187.5C 369.007,188.166 360.34,188.5 351.5,188.5C 342.473,188.498 333.807,187.831 325.5,186.5 Z"/></g>
<g><path style="opacity:1" fill="#b7ce9f" d="M 68.5,191.5 C 68.2624,193.404 67.2624,194.738 65.5,195.5C 65.7376,193.596 66.7376,192.262 68.5,191.5 Z"/></g>
<g><path style="opacity:1" fill="#656557" d="M 282.5,187.5 C 280.333,189.511 277.666,190.678 274.5,191C 272.845,192.444 272.178,194.278 272.5,196.5C 270.712,196.215 269.045,196.548 267.5,197.5C 265.258,202.789 263.925,208.289 263.5,214C 265.058,214.21 266.391,214.71 267.5,215.5C 266.167,215.5 264.833,215.5 263.5,215.5C 263.167,215.5 262.833,215.5 262.5,215.5C 261.125,207.148 263.125,199.815 268.5,193.5C 272.548,190.148 277.215,188.148 282.5,187.5 Z"/></g>
<g><path style="opacity:1" fill="#ddd595" d="M 109.5,192.5 C 106.093,196.75 102.426,200.917 98.5,205C 97.9056,205.464 97.2389,205.631 96.5,205.5C 98.8623,202.808 101.196,200.141 103.5,197.5C 105.5,195.833 107.5,194.167 109.5,192.5 Z"/></g>
<g><path style="opacity:1" fill="#dfc07f" d="M 435.5,195.5 C 436.496,195.414 437.329,195.748 438,196.5C 440.13,201.205 441.297,206.205 441.5,211.5C 441.415,213.333 440.748,214.666 439.5,215.5C 439.666,211.154 439.499,206.821 439,202.5C 438.392,200.934 437.558,199.6 436.5,198.5C 436.443,197.391 436.11,196.391 435.5,195.5 Z"/></g>
<g><path style="opacity:1" fill="#cfd399" d="M 64.5,196.5 C 64.8333,196.5 65.1667,196.5 65.5,196.5C 65.4431,197.609 65.1098,198.609 64.5,199.5C 63.5,200.833 62.5,202.167 61.5,203.5C 61.6878,200.794 62.6878,198.461 64.5,196.5 Z"/></g>
<g><path style="opacity:1" fill="#f5cb7e" d="M 268.5,193.5 C 263.125,199.815 261.125,207.148 262.5,215.5C 261.022,215.762 259.689,215.429 258.5,214.5C 260.392,212.119 260.892,209.453 260,206.5C 259.586,206.957 259.086,207.291 258.5,207.5C 257.944,203.807 256.944,200.307 255.5,197C 255.833,196.5 256.167,196 256.5,195.5C 258.351,197.776 260.018,200.109 261.5,202.5C 262.774,199.633 263.607,196.633 264,193.5C 265.414,194.413 266.914,194.413 268.5,193.5 Z"/></g>
<g><path style="opacity:1" fill="#ebd766" d="M 215.5,206.5 C 200.324,206.171 185.324,206.504 170.5,207.5C 169.167,208.167 167.833,208.833 166.5,209.5C 166.414,208.504 166.748,207.671 167.5,207C 169.244,205.659 171.077,204.492 173,203.5C 187.516,203.787 201.683,204.787 215.5,206.5 Z"/></g>
<g><path style="opacity:1" fill="#97b525" d="M 170.5,207.5 C 185.324,206.504 200.324,206.171 215.5,206.5C 215.5,206.833 215.5,207.167 215.5,207.5C 203.988,207.172 192.654,207.505 181.5,208.5C 178.236,207.676 174.902,207.342 171.5,207.5C 171.167,207.5 170.833,207.5 170.5,207.5 Z"/></g>
<g><path style="opacity:1" fill="#e6d264" d="M 215.5,207.5 C 215.5,207.167 215.5,206.833 215.5,206.5C 218.157,206.162 220.49,206.829 222.5,208.5C 223.167,208.167 223.833,207.833 224.5,207.5C 224.254,210.066 224.587,212.732 225.5,215.5C 224.833,215.167 224.167,214.833 223.5,214.5C 223.306,212.088 221.973,211.088 219.5,211.5C 219.475,208.821 218.142,207.488 215.5,207.5 Z"/></g>
<g><path style="opacity:1" fill="#c6d39f" d="M 96.5,205.5 C 95.5806,208.089 93.914,210.089 91.5,211.5C 92.4194,208.911 94.086,206.911 96.5,205.5 Z"/></g>
<g><path style="opacity:1" fill="#95d733" d="M 215.5,207.5 C 218.142,207.488 219.475,208.821 219.5,211.5C 209.132,212.17 198.799,213.17 188.5,214.5C 186.142,212.471 183.808,210.471 181.5,208.5C 192.654,207.505 203.988,207.172 215.5,207.5 Z"/></g>
<g><path style="opacity:1" fill="#f6cc81" d="M 484.5,177.5 C 494.142,207.653 497.642,238.653 495,270.5C 493.77,283.132 491.604,295.466 488.5,307.5C 488.966,299.403 490.133,291.403 492,283.5C 492.799,278.913 492.632,274.413 491.5,270C 492.525,267.929 493.358,265.762 494,263.5C 494.667,252.833 494.667,242.167 494,231.5C 491.669,225.081 489.836,218.581 488.5,212C 489.394,209.932 490.06,207.765 490.5,205.5C 489.097,201.283 488.264,196.949 488,192.5C 484.992,188.033 483.826,183.033 484.5,177.5 Z"/></g>
<g><path style="opacity:1" fill="#2e7d01" d="M 170.5,207.5 C 170.833,207.5 171.167,207.5 171.5,207.5C 176.944,212.043 181.778,217.376 186,223.5C 187.143,226.777 187.977,230.11 188.5,233.5C 188.573,235.027 187.906,236.027 186.5,236.5C 186.66,234.801 186.494,233.134 186,231.5C 183.987,228.059 181.487,225.059 178.5,222.5C 177.914,222.709 177.414,223.043 177,223.5C 173.687,221.532 170.354,219.532 167,217.5C 166.667,218.167 166.333,218.833 166,219.5C 165.722,218.584 165.222,217.918 164.5,217.5C 164.443,216.391 164.11,215.391 163.5,214.5C 164.11,212.566 165.11,210.899 166.5,209.5C 167.833,208.833 169.167,208.167 170.5,207.5 Z"/></g>
<g><path style="opacity:1" fill="#206401" d="M 171.5,207.5 C 174.902,207.342 178.236,207.676 181.5,208.5C 183.808,210.471 186.142,212.471 188.5,214.5C 189.475,216.795 190.808,218.795 192.5,220.5C 193.167,222.167 193.833,223.833 194.5,225.5C 192.115,227.884 190.115,230.55 188.5,233.5C 187.977,230.11 187.143,226.777 186,223.5C 181.778,217.376 176.944,212.043 171.5,207.5 Z"/></g>
<g><path style="opacity:1" fill="#314151" d="M 433.5,215.5 C 433.784,217.415 433.451,219.081 432.5,220.5C 378.167,220.5 323.833,220.5 269.5,220.5C 269.5,219.167 269.5,217.833 269.5,216.5C 323.997,215.501 378.664,215.168 433.5,215.5 Z"/></g>
<g><path style="opacity:1" fill="#7aca1b" d="M 219.5,211.5 C 221.973,211.088 223.306,212.088 223.5,214.5C 223.5,215.5 223.5,216.5 223.5,217.5C 213.059,217.644 202.726,218.644 192.5,220.5C 190.808,218.795 189.475,216.795 188.5,214.5C 198.799,213.17 209.132,212.17 219.5,211.5 Z"/></g>
<g><path style="opacity:1" fill="#41515e" d="M 267.5,215.5 C 268.167,215.833 268.833,216.167 269.5,216.5C 269.5,217.833 269.5,219.167 269.5,220.5C 323.833,220.5 378.167,220.5 432.5,220.5C 432.5,220.833 432.5,221.167 432.5,221.5C 378.5,221.5 324.5,221.5 270.5,221.5C 269.833,221.5 269.167,221.5 268.5,221.5C 267.539,219.735 267.205,217.735 267.5,215.5 Z"/></g>
<g><path style="opacity:1" fill="#50606a" d="M 270.5,221.5 C 324.5,221.5 378.5,221.5 432.5,221.5C 430.98,233.417 430.313,245.417 430.5,257.5C 429.57,273.253 428.237,288.92 426.5,304.5C 424.929,312.201 423.763,320.201 423,328.5C 422.501,333.489 422.334,338.489 422.5,343.5C 421.653,353.487 420.986,363.487 420.5,373.5C 419.778,373.918 419.278,374.584 419,375.5C 418.667,378.833 418.333,382.167 418,385.5C 417.667,385.167 417.333,384.833 417,384.5C 416.667,386.167 416.333,387.833 416,389.5C 413.701,391.728 411.534,394.061 409.5,396.5C 408.292,397.234 406.959,397.567 405.5,397.5C 367.5,397.5 329.5,397.5 291.5,397.5C 291.167,395.167 289.833,393.833 287.5,393.5C 283.685,385.897 281.685,377.897 281.5,369.5C 281.5,369.167 281.5,368.833 281.5,368.5C 279.646,351.548 278.313,334.548 277.5,317.5C 276.498,308.992 276.498,300.492 277.5,292C 275.054,284.529 274.387,276.862 275.5,269C 274.527,268.651 273.694,267.818 273,266.5C 272.676,251.348 271.842,236.348 270.5,221.5 Z"/></g>
<g><path style="opacity:1" fill="#e8d26c" d="M 160.5,217.5 C 158.913,221.683 156.579,225.35 153.5,228.5C 153.471,224.86 154.471,221.527 156.5,218.5C 157.689,217.571 159.022,217.238 160.5,217.5 Z"/></g>
<g><path style="opacity:1" fill="#358902" d="M 164.5,217.5 C 165.222,217.918 165.722,218.584 166,219.5C 166.333,218.833 166.667,218.167 167,217.5C 170.354,219.532 173.687,221.532 177,223.5C 177.414,223.043 177.914,222.709 178.5,222.5C 181.487,225.059 183.987,228.059 186,231.5C 186.494,233.134 186.66,234.801 186.5,236.5C 186.573,238.027 185.906,239.027 184.5,239.5C 184.649,238.448 184.483,237.448 184,236.5C 180.156,234.5 177.656,231.5 176.5,227.5C 172.099,226.602 168.266,224.602 165,221.5C 164.667,221.833 164.333,222.167 164,222.5C 163.22,220.613 163.387,218.946 164.5,217.5 Z"/></g>
<g><path style="opacity:1" fill="#d2cb88" d="M 59.5,211.5 C 59.1848,262.19 59.5182,312.857 60.5,363.5C 59.8826,363.389 59.3826,363.056 59,362.5C 58.6667,360.167 58.3333,357.833 58,355.5C 57.3333,308.833 57.3333,262.167 58,215.5C 58.21,213.942 58.71,212.609 59.5,211.5 Z"/></g>
<g><path style="opacity:1" fill="#d0d092" d="M 91.5,211.5 C 90.1765,259.796 90.1765,308.129 91.5,356.5C 92.562,358.022 93.2287,359.688 93.5,361.5C 91.6609,359.489 90.1609,357.156 89,354.5C 88.5,308.168 88.3333,261.835 88.5,215.5C 89.1429,213.924 90.1429,212.59 91.5,211.5 Z"/></g>
<g><path style="opacity:1" fill="#278f94" d="M 64.5,199.5 C 63.6409,203.562 62.4742,207.562 61,211.5C 60.3333,259.833 60.3333,308.167 61,356.5C 62.3385,360.836 63.6718,365.169 65,369.5C 65.6667,368.833 66.3333,368.167 67,367.5C 67.3036,369.441 68.1369,371.107 69.5,372.5C 68.6906,374.071 68.3573,375.738 68.5,377.5C 67.5416,377.047 66.7083,376.381 66,375.5C 64.6248,371.171 62.7915,367.171 60.5,363.5C 59.5182,312.857 59.1848,262.19 59.5,211.5C 59.6941,208.67 60.3608,206.004 61.5,203.5C 62.5,202.167 63.5,200.833 64.5,199.5 Z"/></g>
<g><path style="opacity:1" fill="#21909a" d="M 88.5,215.5 C 88.3333,261.835 88.5,308.168 89,354.5C 90.1609,357.156 91.6609,359.489 93.5,361.5C 94.1667,362.833 95.1667,363.833 96.5,364.5C 97.6594,366.25 99.326,367.25 101.5,367.5C 101.5,367.833 101.5,368.167 101.5,368.5C 99.5992,368.567 97.7659,368.233 96,367.5C 94.6866,365.383 92.8532,363.883 90.5,363C 89.0292,360.757 88.0292,358.257 87.5,355.5C 86.6667,309.504 86.1667,263.504 86,217.5C 84.4932,214.996 82.9932,212.496 81.5,210C 81.8333,209.5 82.1667,209 82.5,208.5C 84.2413,211.228 86.2413,213.561 88.5,215.5 Z"/></g>
<g><path style="opacity:1" fill="#54b703" d="M 223.5,217.5 C 224.209,218.404 225.209,218.737 226.5,218.5C 226.714,220.144 226.38,221.644 225.5,223C 226.727,225.27 228.394,227.103 230.5,228.5C 224.236,232.128 217.569,234.961 210.5,237C 208.667,237.5 207.5,238.667 207,240.5C 206.667,238.833 206.333,237.167 206,235.5C 205.667,235.833 205.333,236.167 205,236.5C 203.6,235.252 202.1,234.252 200.5,233.5C 198.885,230.55 196.885,227.884 194.5,225.5C 193.833,223.833 193.167,222.167 192.5,220.5C 202.726,218.644 213.059,217.644 223.5,217.5 Z"/></g>
<g><path style="opacity:1" fill="#e1d363" d="M 228.5,219.5 C 230.303,221.481 231.97,223.648 233.5,226C 235.751,225.793 238.085,225.627 240.5,225.5C 240.662,227.527 240.495,229.527 240,231.5C 238.572,234.39 237.072,237.056 235.5,239.5C 236.488,235.515 237.488,231.515 238.5,227.5C 236.488,228.014 234.488,228.18 232.5,228C 230.939,225.273 229.605,222.439 228.5,219.5 Z"/></g>
<g><path style="opacity:1" fill="#3c9608" d="M 163.5,214.5 C 164.11,215.391 164.443,216.391 164.5,217.5C 163.387,218.946 163.22,220.613 164,222.5C 164.333,222.167 164.667,221.833 165,221.5C 168.266,224.602 172.099,226.602 176.5,227.5C 177.656,231.5 180.156,234.5 184,236.5C 184.483,237.448 184.649,238.448 184.5,239.5C 183.25,239.577 182.417,240.244 182,241.5C 180.061,239.806 178.228,237.973 176.5,236C 169.177,233.844 162.843,231.011 157.5,227.5C 156.148,228.524 154.815,229.524 153.5,230.5C 153.5,230.167 153.5,229.833 153.5,229.5C 153.5,229.167 153.5,228.833 153.5,228.5C 156.579,225.35 158.913,221.683 160.5,217.5C 161.167,216.167 162.167,215.167 163.5,214.5 Z"/></g>
<g><path style="opacity:1" fill="#49a20c" d="M 184.5,239.5 C 183.89,240.391 183.557,241.391 183.5,242.5C 183.5,242.833 183.5,243.167 183.5,243.5C 180.719,246.623 178.385,250.123 176.5,254C 175.212,254.239 174.212,253.739 173.5,252.5C 172.083,249.331 170.417,246.331 168.5,243.5C 168.33,240.796 166.997,239.129 164.5,238.5C 159.983,237.834 155.317,237.167 150.5,236.5C 151.952,235.06 152.952,233.394 153.5,231.5C 153.5,231.167 153.5,230.833 153.5,230.5C 154.815,229.524 156.148,228.524 157.5,227.5C 162.843,231.011 169.177,233.844 176.5,236C 178.228,237.973 180.061,239.806 182,241.5C 182.417,240.244 183.25,239.577 184.5,239.5 Z"/></g>
<g><path style="opacity:1" fill="#50b00d" d="M 223.5,214.5 C 224.167,214.833 224.833,215.167 225.5,215.5C 226.512,216.872 227.512,218.205 228.5,219.5C 229.605,222.439 230.939,225.273 232.5,228C 234.488,228.18 236.488,228.014 238.5,227.5C 237.488,231.515 236.488,235.515 235.5,239.5C 235.167,239.5 234.833,239.5 234.5,239.5C 234.657,238.127 234.49,236.793 234,235.5C 231.536,237.42 229.036,239.253 226.5,241C 219.831,243.705 213.497,246.538 207.5,249.5C 204.659,249.44 201.993,248.774 199.5,247.5C 199.833,246.833 200.167,246.167 200.5,245.5C 202.948,245.915 204.281,244.915 204.5,242.5C 204.241,240.013 203.241,238.013 201.5,236.5C 201.443,235.391 201.11,234.391 200.5,233.5C 202.1,234.252 203.6,235.252 205,236.5C 205.333,236.167 205.667,235.833 206,235.5C 206.333,237.167 206.667,238.833 207,240.5C 207.5,238.667 208.667,237.5 210.5,237C 217.569,234.961 224.236,232.128 230.5,228.5C 228.394,227.103 226.727,225.27 225.5,223C 226.38,221.644 226.714,220.144 226.5,218.5C 225.209,218.737 224.209,218.404 223.5,217.5C 223.5,216.5 223.5,215.5 223.5,214.5 Z"/></g>
<g><path style="opacity:1" fill="#5a5d59" d="M 433.5,215.5 C 433.833,215.5 434.167,215.5 434.5,215.5C 433.834,223.483 433.501,231.483 433.5,239.5C 432.028,243.919 431.362,248.586 431.5,253.5C 431.5,254.833 431.5,256.167 431.5,257.5C 431.167,257.5 430.833,257.5 430.5,257.5C 430.313,245.417 430.98,233.417 432.5,221.5C 432.5,221.167 432.5,220.833 432.5,220.5C 433.451,219.081 433.784,217.415 433.5,215.5 Z"/></g>
<g><path style="opacity:1" fill="#f2cf6c" d="M 194.5,225.5 C 196.885,227.884 198.885,230.55 200.5,233.5C 201.11,234.391 201.443,235.391 201.5,236.5C 201.511,238.547 201.844,240.547 202.5,242.5C 202.058,243.739 201.391,244.739 200.5,245.5C 200.167,246.167 199.833,246.833 199.5,247.5C 197.44,246.785 195.774,245.451 194.5,243.5C 194.833,242.5 195.5,241.833 196.5,241.5C 196.736,242.247 197.07,243.08 197.5,244C 198.167,244.667 198.833,244.667 199.5,244C 200.423,241.959 200.756,239.792 200.5,237.5C 198.088,237.244 196.421,238.244 195.5,240.5C 194.092,238.493 192.592,236.493 191,234.5C 188.961,235.978 188.128,237.978 188.5,240.5C 186.486,240.392 184.82,241.058 183.5,242.5C 183.557,241.391 183.89,240.391 184.5,239.5C 185.906,239.027 186.573,238.027 186.5,236.5C 187.906,236.027 188.573,235.027 188.5,233.5C 190.115,230.55 192.115,227.884 194.5,225.5 Z"/></g>
<g><path style="opacity:1" fill="#7fa11d" d="M 153.5,231.5 C 152.952,233.394 151.952,235.06 150.5,236.5C 155.317,237.167 159.983,237.834 164.5,238.5C 159.125,238.828 153.792,238.495 148.5,237.5C 149.467,234.871 151.133,232.871 153.5,231.5 Z"/></g>
<g><path style="opacity:1" fill="#e8d36a" d="M 153.5,229.5 C 153.5,229.833 153.5,230.167 153.5,230.5C 153.5,230.833 153.5,231.167 153.5,231.5C 151.133,232.871 149.467,234.871 148.5,237.5C 153.792,238.495 159.125,238.828 164.5,238.5C 166.997,239.129 168.33,240.796 168.5,243.5C 166.952,243.179 166.285,242.179 166.5,240.5C 160.491,240.666 154.491,240.499 148.5,240C 147.565,237.619 147.232,235.119 147.5,232.5C 148.5,232.5 149.5,232.5 150.5,232.5C 150.5,231.5 150.5,230.5 150.5,229.5C 151.5,229.5 152.5,229.5 153.5,229.5 Z"/></g>
<g><path style="opacity:1" fill="#d0d659" d="M 201.5,236.5 C 203.241,238.013 204.241,240.013 204.5,242.5C 204.281,244.915 202.948,245.915 200.5,245.5C 201.391,244.739 202.058,243.739 202.5,242.5C 201.844,240.547 201.511,238.547 201.5,236.5 Z"/></g>
<g><path style="opacity:1" fill="#39a505" d="M 234.5,239.5 C 234.58,242.781 233.913,245.781 232.5,248.5C 231.609,249.261 230.942,250.261 230.5,251.5C 228.333,251.833 226.167,252.167 224,252.5C 218.396,252.02 212.896,251.02 207.5,249.5C 213.497,246.538 219.831,243.705 226.5,241C 229.036,239.253 231.536,237.42 234,235.5C 234.49,236.793 234.657,238.127 234.5,239.5 Z"/></g>
<g><path style="opacity:1" fill="#2f3f4f" d="M 299.5,241.5 C 303.741,240.75 307.074,242.083 309.5,245.5C 310.708,255.182 311.875,264.848 313,274.5C 314.869,306.555 317.369,338.555 320.5,370.5C 319.358,377.25 315.358,379.75 308.5,378C 307.667,377.167 306.833,376.333 306,375.5C 302.183,332.185 298.85,288.851 296,245.5C 297.102,244.051 298.269,242.718 299.5,241.5 Z"/></g>
<g><path style="opacity:1" fill="#2f3f4f" d="M 395.5,241.5 C 403.249,240.749 406.916,244.249 406.5,252C 403.304,293.185 399.804,334.352 396,375.5C 392.483,378.635 388.483,379.302 384,377.5C 382.921,374.288 382.421,370.955 382.5,367.5C 385.697,326.837 388.863,286.17 392,245.5C 393.376,244.295 394.542,242.962 395.5,241.5 Z"/></g>
<g><path style="opacity:1" fill="#e6c582" d="M 434.5,215.5 C 436.167,215.5 437.833,215.5 439.5,215.5C 438.432,216.434 437.099,216.768 435.5,216.5C 435.067,227.166 434.567,237.833 434,248.5C 433.79,250.058 433.29,251.391 432.5,252.5C 433.08,248.19 433.414,243.857 433.5,239.5C 433.501,231.483 433.834,223.483 434.5,215.5 Z"/></g>
<g><path style="opacity:1" fill="#2f3f4f" d="M 347.5,241.5 C 351.803,240.796 355.303,242.13 358,245.5C 358.667,288.833 358.667,332.167 358,375.5C 352.456,381.252 347.789,380.586 344,373.5C 343.333,330.833 343.333,288.167 344,245.5C 345.376,244.295 346.542,242.962 347.5,241.5 Z"/></g>
<g><path style="opacity:1" fill="#f0ce8c" d="M 6.5,212.5 C 4.80107,231.786 4.1344,251.12 4.5,270.5C 3.33932,256.673 3.17266,242.673 4,228.5C 4.51956,222.975 5.3529,217.642 6.5,212.5 Z"/></g>
<g><path style="opacity:1" fill="#e4cf63" d="M 183.5,243.5 C 183.143,247.117 181.81,250.284 179.5,253C 179.645,253.772 179.978,254.439 180.5,255C 178.19,255.497 175.857,255.663 173.5,255.5C 173.5,254.5 173.5,253.5 173.5,252.5C 174.212,253.739 175.212,254.239 176.5,254C 178.385,250.123 180.719,246.623 183.5,243.5 Z"/></g>
<g><path style="opacity:1" fill="#e9d069" d="M 162.5,255.5 C 161.262,253.786 160.595,251.786 160.5,249.5C 153.15,250.669 145.816,252.169 138.5,254C 137.944,254.383 137.611,254.883 137.5,255.5C 135.833,255.5 134.167,255.5 132.5,255.5C 136.165,253.914 139.665,251.914 143,249.5C 144.301,249.96 145.634,250.294 147,250.5C 151.652,248.621 156.486,247.621 161.5,247.5C 161.833,250.167 162.167,252.833 162.5,255.5 Z"/></g>
<g><path style="opacity:1" fill="#4a990e" d="M 162.5,255.5 C 163.838,261.506 165.171,267.506 166.5,273.5C 163.914,272.513 162.581,270.513 162.5,267.5C 163.259,262.167 161.926,257.501 158.5,253.5C 157,253.167 155.5,252.833 154,252.5C 148.637,253.897 143.137,254.897 137.5,255.5C 137.611,254.883 137.944,254.383 138.5,254C 145.816,252.169 153.15,250.669 160.5,249.5C 160.595,251.786 161.262,253.786 162.5,255.5 Z"/></g>
<g><path style="opacity:1" fill="#49940b" d="M 232.5,248.5 C 232.401,251.605 231.401,254.272 229.5,256.5C 222.206,254.374 214.873,252.374 207.5,250.5C 207.5,250.167 207.5,249.833 207.5,249.5C 212.896,251.02 218.396,252.02 224,252.5C 226.167,252.167 228.333,251.833 230.5,251.5C 230.942,250.261 231.609,249.261 232.5,248.5 Z"/></g>
<g><path style="opacity:1" fill="#b7a372" d="M 433.5,239.5 C 433.414,243.857 433.08,248.19 432.5,252.5C 432.5,253.167 432.167,253.5 431.5,253.5C 431.362,248.586 432.028,243.919 433.5,239.5 Z"/></g>
<g><path style="opacity:1" fill="#e1d269" d="M 234.5,239.5 C 234.833,239.5 235.167,239.5 235.5,239.5C 235.512,245.642 234.178,251.476 231.5,257C 226.273,256.823 221.106,255.99 216,254.5C 212.741,253.784 209.907,252.451 207.5,250.5C 214.873,252.374 222.206,254.374 229.5,256.5C 231.401,254.272 232.401,251.605 232.5,248.5C 233.913,245.781 234.58,242.781 234.5,239.5 Z"/></g>
<g><path style="opacity:1" fill="#ddd15b" d="M 132.5,255.5 C 132.196,256.15 131.863,256.817 131.5,257.5C 134.941,259.556 135.274,261.889 132.5,264.5C 132.5,263.167 132.5,261.833 132.5,260.5C 129.53,260.254 128.197,258.588 128.5,255.5C 129.833,255.5 131.167,255.5 132.5,255.5 Z"/></g>
<g><path style="opacity:1" fill="#38a504" d="M 162.5,267.5 C 154.209,263.186 145.876,259.186 137.5,255.5C 143.137,254.897 148.637,253.897 154,252.5C 155.5,252.833 157,253.167 158.5,253.5C 161.926,257.501 163.259,262.167 162.5,267.5 Z"/></g>
<g><path style="opacity:1" fill="#d7d063" d="M 238.5,261.5 C 238.461,262.583 238.127,263.583 237.5,264.5C 230.866,265.497 224.2,265.83 217.5,265.5C 223.645,264.51 229.978,264.177 236.5,264.5C 236.285,262.821 236.952,261.821 238.5,261.5 Z"/></g>
<g><path style="opacity:1" fill="#479e0d" d="M 254.5,265.5 C 255.11,266.391 255.443,267.391 255.5,268.5C 255.167,268.5 254.833,268.5 254.5,268.5C 253.732,267.737 253.232,266.737 253,265.5C 252.163,267.351 251.329,269.184 250.5,271C 247.891,270.472 245.225,270.805 242.5,272C 240.475,273.194 240.141,274.694 241.5,276.5C 238.93,279.16 237.43,278.494 237,274.5C 234.493,276.189 232.993,278.522 232.5,281.5C 231.311,282.429 229.978,282.762 228.5,282.5C 228.477,280.073 227.977,277.74 227,275.5C 225.586,276.413 224.086,276.413 222.5,275.5C 220.82,272.14 219.153,268.807 217.5,265.5C 224.2,265.83 230.866,265.497 237.5,264.5C 238.127,263.583 238.461,262.583 238.5,261.5C 240.32,257.88 242.653,254.547 245.5,251.5C 248.499,256.161 251.499,260.828 254.5,265.5 Z"/></g>
<g><path style="opacity:1" fill="#51b209" d="M 132.5,255.5 C 134.167,255.5 135.833,255.5 137.5,255.5C 145.876,259.186 154.209,263.186 162.5,267.5C 162.581,270.513 163.914,272.513 166.5,273.5C 169.862,279.137 168.696,280.47 163,277.5C 160.926,278.072 159.76,279.405 159.5,281.5C 157.992,283.181 156.992,285.181 156.5,287.5C 155.833,287.833 155.167,288.167 154.5,288.5C 153.21,287.942 152.377,286.942 152,285.5C 151.333,286.833 150.667,286.833 150,285.5C 150.088,281.766 148.755,278.766 146,276.5C 145.333,277.167 144.667,277.833 144,278.5C 144.094,275.499 142.761,273.499 140,272.5C 139.667,273.167 139.333,273.833 139,274.5C 137.041,273.252 135.541,271.585 134.5,269.5C 133.16,270.688 132.493,272.188 132.5,274C 132.943,275.825 133.277,277.658 133.5,279.5C 131.806,278.473 130.473,277.139 129.5,275.5C 129.5,274.167 129.5,272.833 129.5,271.5C 130.688,269.278 131.688,266.945 132.5,264.5C 135.274,261.889 134.941,259.556 131.5,257.5C 131.863,256.817 132.196,256.15 132.5,255.5 Z"/></g>
<g><path style="opacity:1" fill="#3c9208" d="M 254.5,268.5 C 254.719,269.675 254.386,270.675 253.5,271.5C 246.306,275.069 239.972,279.569 234.5,285C 232.455,285.49 230.455,285.323 228.5,284.5C 226.265,281.709 224.265,278.709 222.5,275.5C 224.086,276.413 225.586,276.413 227,275.5C 227.977,277.74 228.477,280.073 228.5,282.5C 229.978,282.762 231.311,282.429 232.5,281.5C 232.993,278.522 234.493,276.189 237,274.5C 237.43,278.494 238.93,279.16 241.5,276.5C 240.141,274.694 240.475,273.194 242.5,272C 245.225,270.805 247.891,270.472 250.5,271C 251.329,269.184 252.163,267.351 253,265.5C 253.232,266.737 253.732,267.737 254.5,268.5 Z"/></g>
<g><path style="opacity:1" fill="#e1d266" d="M 159.5,281.5 C 159.76,279.405 160.926,278.072 163,277.5C 168.696,280.47 169.862,279.137 166.5,273.5C 165.171,267.506 163.838,261.506 162.5,255.5C 163.163,253.958 163.83,252.291 164.5,250.5C 164.833,250.833 165.167,251.167 165.5,251.5C 164.415,254.773 164.248,258.106 165,261.5C 165.333,261.167 165.667,260.833 166,260.5C 166.858,267.322 168.025,273.988 169.5,280.5C 165.896,279.301 162.563,279.635 159.5,281.5 Z"/></g>
<g><path style="opacity:1" fill="#e1c281" d="M 263.5,215.5 C 264.833,215.5 266.167,215.5 267.5,215.5C 267.205,217.735 267.539,219.735 268.5,221.5C 270.379,250.547 272.713,279.547 275.5,308.5C 273.752,299.667 272.252,290.667 271,281.5C 269.787,259.801 268.287,238.134 266.5,216.5C 265.209,216.737 264.209,216.404 263.5,215.5 Z"/></g>
<g><path style="opacity:1" fill="#318102" d="M 254.5,268.5 C 254.833,268.5 255.167,268.5 255.5,268.5C 258.201,271.235 259.868,274.569 260.5,278.5C 260.785,280.288 260.452,281.955 259.5,283.5C 258.019,284.48 256.685,285.647 255.5,287C 247.249,289.226 238.915,289.726 230.5,288.5C 229.326,287.486 228.66,286.153 228.5,284.5C 230.455,285.323 232.455,285.49 234.5,285C 239.972,279.569 246.306,275.069 253.5,271.5C 254.386,270.675 254.719,269.675 254.5,268.5 Z"/></g>
<g><path style="opacity:1" fill="#5aba02" d="M 154.5,288.5 C 153.227,290.713 152.227,293.046 151.5,295.5C 151.5,295.833 151.5,296.167 151.5,296.5C 150.404,299.032 149.071,301.365 147.5,303.5C 147.753,299.585 147.087,295.919 145.5,292.5C 140.388,289.34 136.388,285.007 133.5,279.5C 133.277,277.658 132.943,275.825 132.5,274C 132.493,272.188 133.16,270.688 134.5,269.5C 135.541,271.585 137.041,273.252 139,274.5C 139.333,273.833 139.667,273.167 140,272.5C 142.761,273.499 144.094,275.499 144,278.5C 144.667,277.833 145.333,277.167 146,276.5C 148.755,278.766 150.088,281.766 150,285.5C 150.667,286.833 151.333,286.833 152,285.5C 152.377,286.942 153.21,287.942 154.5,288.5 Z"/></g>
<g><path style="opacity:1" fill="#78ca19" d="M 129.5,275.5 C 130.473,277.139 131.806,278.473 133.5,279.5C 136.388,285.007 140.388,289.34 145.5,292.5C 147.087,295.919 147.753,299.585 147.5,303.5C 147.672,304.492 147.338,305.158 146.5,305.5C 139.818,298.31 133.651,290.644 128,282.5C 127.725,279.942 128.225,277.608 129.5,275.5 Z"/></g>
<g><path style="opacity:1" fill="#debe82" d="M 430.5,257.5 C 430.833,257.5 431.167,257.5 431.5,257.5C 430.858,269.488 430.358,281.488 430,293.5C 429.228,299.717 428.061,305.717 426.5,311.5C 426.5,309.167 426.5,306.833 426.5,304.5C 428.237,288.92 429.57,273.253 430.5,257.5 Z"/></g>
<g><path style="opacity:1" fill="#f0d269" d="M 127.5,273.5 C 126.115,276.259 125.448,279.259 125.5,282.5C 126.232,286.194 127.065,289.861 128,293.5C 131.675,298.185 134.842,303.185 137.5,308.5C 135.433,309.263 133.766,310.596 132.5,312.5C 132.167,311.833 131.833,311.167 131.5,310.5C 132.167,308.833 132.833,307.167 133.5,305.5C 132.637,303.128 131.471,303.128 130,305.5C 130.253,302.867 130.253,300.2 130,297.5C 128.989,296.663 127.822,296.33 126.5,296.5C 125.677,293.649 124.344,290.982 122.5,288.5C 124.028,284.361 125.028,280.028 125.5,275.5C 126.182,274.757 126.849,274.091 127.5,273.5 Z"/></g>
<g><path style="opacity:1" fill="#216301" d="M 260.5,278.5 C 261.152,279.449 261.486,280.615 261.5,282C 261.261,284.635 260.594,287.135 259.5,289.5C 255.807,293.178 251.473,295.511 246.5,296.5C 242.5,296.5 238.5,296.5 234.5,296.5C 234.672,295.508 234.338,294.842 233.5,294.5C 232.529,292.517 231.529,290.517 230.5,288.5C 238.915,289.726 247.249,289.226 255.5,287C 256.685,285.647 258.019,284.48 259.5,283.5C 260.452,281.955 260.785,280.288 260.5,278.5 Z"/></g>
<g><path style="opacity:1" fill="#5c605e" d="M 268.5,221.5 C 269.167,221.5 269.833,221.5 270.5,221.5C 271.842,236.348 272.676,251.348 273,266.5C 273.694,267.818 274.527,268.651 275.5,269C 274.387,276.862 275.054,284.529 277.5,292C 276.498,300.492 276.498,308.992 277.5,317.5C 276.833,314.5 276.167,311.5 275.5,308.5C 272.713,279.547 270.379,250.547 268.5,221.5 Z"/></g>
<g><path style="opacity:1" fill="#e6d46c" d="M 156.5,287.5 C 156.919,290.325 155.919,292.491 153.5,294C 164.341,294.17 175.008,294.67 185.5,295.5C 174.167,295.5 162.833,295.5 151.5,295.5C 152.227,293.046 153.227,290.713 154.5,288.5C 155.167,288.167 155.833,287.833 156.5,287.5 Z"/></g>
<g><path style="opacity:1" fill="#96d331" d="M 129.5,271.5 C 129.5,272.833 129.5,274.167 129.5,275.5C 128.225,277.608 127.725,279.942 128,282.5C 133.651,290.644 139.818,298.31 146.5,305.5C 145.617,310.103 145.283,314.77 145.5,319.5C 142.924,315.9 140.257,312.233 137.5,308.5C 134.842,303.185 131.675,298.185 128,293.5C 127.065,289.861 126.232,286.194 125.5,282.5C 125.448,279.259 126.115,276.259 127.5,273.5C 127.5,272.167 128.167,271.5 129.5,271.5 Z"/></g>
<g><path style="opacity:1" fill="#8bae31" d="M 151.5,296.5 C 151.5,296.167 151.5,295.833 151.5,295.5C 162.833,295.5 174.167,295.5 185.5,295.5C 186.833,296.5 186.833,297.5 185.5,298.5C 178.913,296.539 171.913,295.872 164.5,296.5C 162.833,296.5 161.167,296.5 159.5,296.5C 156.833,296.5 154.167,296.5 151.5,296.5 Z"/></g>
<g><path style="opacity:1" fill="#dbd660" d="M 213.5,290.5 C 214.461,292.265 214.795,294.265 214.5,296.5C 221.255,297.123 227.588,296.456 233.5,294.5C 234.338,294.842 234.672,295.508 234.5,296.5C 227.687,297.491 220.687,297.825 213.5,297.5C 213.5,296.167 213.5,294.833 213.5,293.5C 213.5,292.5 213.5,291.5 213.5,290.5 Z"/></g>
<g><path style="opacity:1" fill="#43a20a" d="M 180.5,317.5 C 181.338,317.842 181.672,318.508 181.5,319.5C 182.933,321.558 183.6,323.892 183.5,326.5C 179.833,326.5 176.167,326.5 172.5,326.5C 171.608,316.866 171.275,307.199 171.5,297.5C 174.978,297.184 178.312,297.684 181.5,299C 182.38,300.356 182.714,301.856 182.5,303.5C 181.325,303.281 180.325,303.614 179.5,304.5C 178.738,307.406 177.738,310.24 176.5,313C 177.121,315.141 178.454,316.641 180.5,317.5 Z"/></g>
<g><path style="opacity:1" fill="#689e18" d="M 213.5,290.5 C 213.5,291.5 213.5,292.5 213.5,293.5C 212.883,293.389 212.383,293.056 212,292.5C 208.936,297.066 205.102,300.733 200.5,303.5C 203.065,300.614 205.565,297.614 208,294.5C 209.451,292.536 211.284,291.203 213.5,290.5 Z"/></g>
<g><path style="opacity:1" fill="#328701" d="M 159.5,296.5 C 161.167,296.5 162.833,296.5 164.5,296.5C 164.852,306.683 164.852,316.683 164.5,326.5C 162.143,326.663 159.81,326.497 157.5,326C 158.167,325.667 158.833,325.333 159.5,325C 159.104,316.429 159.104,307.929 159.5,299.5C 159.5,298.5 159.5,297.5 159.5,296.5 Z"/></g>
<g><path style="opacity:1" fill="#53b602" d="M 221.5,298.5 C 227.167,298.5 232.833,298.5 238.5,298.5C 236.543,303.32 235.043,308.32 234,313.5C 231.562,318.042 229.396,322.709 227.5,327.5C 222.833,327.5 218.167,327.5 213.5,327.5C 213.85,324.959 213.85,322.626 213.5,320.5C 214.249,316.195 215.083,311.862 216,307.5C 216.875,304.785 218.708,303.452 221.5,303.5C 221.5,301.833 221.5,300.167 221.5,298.5 Z"/></g>
<g><path style="opacity:1" fill="#3f9708" d="M 164.5,296.5 C 171.913,295.872 178.913,296.539 185.5,298.5C 184.702,302.089 183.369,305.422 181.5,308.5C 179.899,309.519 178.899,311.019 178.5,313C 179.414,314.406 180.08,315.906 180.5,317.5C 178.454,316.641 177.121,315.141 176.5,313C 177.738,310.24 178.738,307.406 179.5,304.5C 180.325,303.614 181.325,303.281 182.5,303.5C 182.714,301.856 182.38,300.356 181.5,299C 178.312,297.684 174.978,297.184 171.5,297.5C 171.275,307.199 171.608,316.866 172.5,326.5C 176.167,326.5 179.833,326.5 183.5,326.5C 183.6,323.892 182.933,321.558 181.5,319.5C 183.738,320.853 185.071,322.853 185.5,325.5C 178.913,327.461 171.913,328.128 164.5,327.5C 164.5,327.167 164.5,326.833 164.5,326.5C 164.852,316.683 164.852,306.683 164.5,296.5 Z"/></g>
<g><path style="opacity:1" fill="#45ad09" d="M 213.5,293.5 C 213.5,294.833 213.5,296.167 213.5,297.5C 215.948,298.473 218.615,298.806 221.5,298.5C 221.5,300.167 221.5,301.833 221.5,303.5C 218.708,303.452 216.875,304.785 216,307.5C 215.083,311.862 214.249,316.195 213.5,320.5C 208.519,319.501 208.185,320.668 212.5,324C 212.241,325.261 211.574,326.261 210.5,327C 211.337,328.011 211.67,329.178 211.5,330.5C 210.448,330.649 209.448,330.483 208.5,330C 206.886,327.873 204.886,326.373 202.5,325.5C 198.833,322.5 195.5,319.167 192.5,315.5C 192.351,314.448 192.517,313.448 193,312.5C 195.782,310.229 197.949,307.563 199.5,304.5C 199.5,304.167 199.5,303.833 199.5,303.5C 199.833,303.5 200.167,303.5 200.5,303.5C 205.102,300.733 208.936,297.066 212,292.5C 212.383,293.056 212.883,293.389 213.5,293.5 Z"/></g>
<g><path style="opacity:1" fill="#97d332" d="M 259.5,289.5 C 253.893,302.043 247.227,314.043 239.5,325.5C 237.784,325.629 236.117,325.962 234.5,326.5C 238.531,316.448 242.531,306.448 246.5,296.5C 251.473,295.511 255.807,293.178 259.5,289.5 Z"/></g>
<g><path style="opacity:1" fill="#226400" d="M 151.5,296.5 C 154.167,296.5 156.833,296.5 159.5,296.5C 159.5,297.5 159.5,298.5 159.5,299.5C 157.947,302.24 156.114,304.907 154,307.5C 153.699,310.98 152.865,314.313 151.5,317.5C 151.818,318.647 152.484,319.481 153.5,320C 151.717,321.067 151.217,322.567 152,324.5C 153.409,325.781 154.909,326.781 156.5,327.5C 155.5,327.5 154.5,327.5 153.5,327.5C 149.855,325.855 147.188,323.188 145.5,319.5C 145.283,314.77 145.617,310.103 146.5,305.5C 147.338,305.158 147.672,304.492 147.5,303.5C 149.071,301.365 150.404,299.032 151.5,296.5 Z"/></g>
<g><path style="opacity:1" fill="#518c0a" d="M 199.5,304.5 C 197.949,307.563 195.782,310.229 193,312.5C 192.517,313.448 192.351,314.448 192.5,315.5C 190.915,314.998 190.415,313.998 191,312.5C 193.703,309.629 196.536,306.962 199.5,304.5 Z"/></g>
<g><path style="opacity:1" fill="#79ca1b" d="M 234.5,296.5 C 238.5,296.5 242.5,296.5 246.5,296.5C 242.531,306.448 238.531,316.448 234.5,326.5C 232.735,327.461 230.735,327.795 228.5,327.5C 228.167,327.5 227.833,327.5 227.5,327.5C 229.396,322.709 231.562,318.042 234,313.5C 235.043,308.32 236.543,303.32 238.5,298.5C 232.833,298.5 227.167,298.5 221.5,298.5C 218.615,298.806 215.948,298.473 213.5,297.5C 220.687,297.825 227.687,297.491 234.5,296.5 Z"/></g>
<g><path style="opacity:1" fill="#edd16d" d="M 199.5,303.5 C 199.5,303.833 199.5,304.167 199.5,304.5C 196.536,306.962 193.703,309.629 191,312.5C 190.415,313.998 190.915,314.998 192.5,315.5C 195.5,319.167 198.833,322.5 202.5,325.5C 203.167,326.5 203.833,327.5 204.5,328.5C 201.925,327.272 199.592,325.605 197.5,323.5C 196.914,323.709 196.414,324.043 196,324.5C 194.933,319.933 192.1,317.266 187.5,316.5C 186.119,317 185.453,318 185.5,319.5C 187.235,322.961 187.568,326.461 186.5,330C 177.375,329.913 168.375,329.413 159.5,328.5C 168.5,328.5 177.5,328.5 186.5,328.5C 186.737,327.209 186.404,326.209 185.5,325.5C 185.071,322.853 183.738,320.853 181.5,319.5C 181.672,318.508 181.338,317.842 180.5,317.5C 180.08,315.906 179.414,314.406 178.5,313C 178.899,311.019 179.899,309.519 181.5,308.5C 184.777,316.708 187.111,316.375 188.5,307.5C 189.167,308.5 189.833,309.5 190.5,310.5C 191.626,308.207 192.959,306.04 194.5,304C 196.134,303.506 197.801,303.34 199.5,303.5 Z"/></g>
<g><path style="opacity:1" fill="#e6d066" d="M 137.5,308.5 C 140.257,312.233 142.924,315.9 145.5,319.5C 147.188,323.188 149.855,325.855 153.5,327.5C 153.5,327.833 153.5,328.167 153.5,328.5C 148.707,328.456 146.04,326.123 145.5,321.5C 144.5,321.5 143.5,321.5 142.5,321.5C 142.649,320.448 142.483,319.448 142,318.5C 139.562,319.866 139.062,319.366 140.5,317C 138.968,314.379 137.968,311.546 137.5,308.5 Z"/></g>
<g><path style="opacity:1" fill="#f6cc7f" d="M 488.5,307.5 C 486.715,317.335 483.715,326.668 479.5,335.5C 479.643,331.764 480.643,328.264 482.5,325C 482.231,323.393 481.397,322.226 480,321.5C 479.333,320.167 479.333,318.833 480,317.5C 481.294,317.899 482.794,317.899 484.5,317.5C 485.488,314.55 486.321,311.55 487,308.5C 487.383,307.944 487.883,307.611 488.5,307.5 Z"/></g>
<g><path style="opacity:1" fill="#62ac10" d="M 213.5,320.5 C 213.85,322.626 213.85,324.959 213.5,327.5C 218.167,327.5 222.833,327.5 227.5,327.5C 227.833,327.5 228.167,327.5 228.5,327.5C 223.36,328.488 218.026,328.821 212.5,328.5C 212.795,330.735 212.461,332.735 211.5,334.5C 209.167,332.5 206.833,330.5 204.5,328.5C 203.833,327.5 203.167,326.5 202.5,325.5C 204.886,326.373 206.886,327.873 208.5,330C 209.448,330.483 210.448,330.649 211.5,330.5C 211.67,329.178 211.337,328.011 210.5,327C 211.574,326.261 212.241,325.261 212.5,324C 208.185,320.668 208.519,319.501 213.5,320.5 Z"/></g>
<g><path style="opacity:1" fill="#2d7a01" d="M 159.5,299.5 C 159.104,307.929 159.104,316.429 159.5,325C 158.833,325.333 158.167,325.667 157.5,326C 159.81,326.497 162.143,326.663 164.5,326.5C 164.5,326.833 164.5,327.167 164.5,327.5C 161.833,327.5 159.167,327.5 156.5,327.5C 154.909,326.781 153.409,325.781 152,324.5C 151.217,322.567 151.717,321.067 153.5,320C 152.484,319.481 151.818,318.647 151.5,317.5C 152.865,314.313 153.699,310.98 154,307.5C 156.114,304.907 157.947,302.24 159.5,299.5 Z"/></g>
<g><path style="opacity:1" fill="#8fa32d" d="M 185.5,325.5 C 186.404,326.209 186.737,327.209 186.5,328.5C 177.5,328.5 168.5,328.5 159.5,328.5C 157.5,328.5 155.5,328.5 153.5,328.5C 153.5,328.167 153.5,327.833 153.5,327.5C 154.5,327.5 155.5,327.5 156.5,327.5C 159.167,327.5 161.833,327.5 164.5,327.5C 171.913,328.128 178.913,327.461 185.5,325.5 Z"/></g>
<g><path style="opacity:1" fill="#bdcf4b" d="M 239.5,325.5 C 237.042,327.713 234.042,328.879 230.5,329C 224.843,329.499 219.176,329.666 213.5,329.5C 213.5,331.5 213.5,333.5 213.5,335.5C 212.508,335.672 211.842,335.338 211.5,334.5C 212.461,332.735 212.795,330.735 212.5,328.5C 218.026,328.821 223.36,328.488 228.5,327.5C 230.735,327.795 232.735,327.461 234.5,326.5C 236.117,325.962 237.784,325.629 239.5,325.5 Z"/></g>
<g><path style="opacity:1" fill="#edd268" d="M 254.5,265.5 C 256.564,265.762 257.897,266.929 258.5,269C 259.899,269.595 261.232,269.428 262.5,268.5C 263.386,269.325 263.719,270.325 263.5,271.5C 262.5,271.5 261.5,271.5 260.5,271.5C 262.17,276.851 263.837,282.185 265.5,287.5C 262.081,288.435 260.247,290.768 260,294.5C 255.613,298.48 253.447,303.48 253.5,309.5C 249.348,312.994 246.348,317.327 244.5,322.5C 242.308,323.859 240.641,325.692 239.5,328C 231.349,330.282 223.016,331.115 214.5,330.5C 214.784,332.415 214.451,334.081 213.5,335.5C 213.5,333.5 213.5,331.5 213.5,329.5C 219.176,329.666 224.843,329.499 230.5,329C 234.042,328.879 237.042,327.713 239.5,325.5C 247.227,314.043 253.893,302.043 259.5,289.5C 260.594,287.135 261.261,284.635 261.5,282C 261.486,280.615 261.152,279.449 260.5,278.5C 259.868,274.569 258.201,271.235 255.5,268.5C 255.443,267.391 255.11,266.391 254.5,265.5 Z"/></g>
<g><path style="opacity:1" fill="#646456" d="M 426.5,304.5 C 426.5,306.833 426.5,309.167 426.5,311.5C 425.825,322.239 424.492,332.906 422.5,343.5C 422.334,338.489 422.501,333.489 423,328.5C 423.763,320.201 424.929,312.201 426.5,304.5 Z"/></g>
<g><path style="opacity:1" fill="#e7c580" d="M 426.5,311.5 C 426.667,322.172 426.5,332.839 426,343.5C 425.581,344.672 424.915,345.672 424,346.5C 423.239,358.839 422.406,371.172 421.5,383.5C 419.838,392.546 414.504,397.546 405.5,398.5C 405.5,398.167 405.5,397.833 405.5,397.5C 406.959,397.567 408.292,397.234 409.5,396.5C 413.362,395.476 416.195,393.143 418,389.5C 419.234,384.233 420.067,378.9 420.5,373.5C 420.986,363.487 421.653,353.487 422.5,343.5C 424.492,332.906 425.825,322.239 426.5,311.5 Z"/></g>
<g><path style="opacity:1" fill="#dcc78a" d="M 275.5,308.5 C 276.167,311.5 276.833,314.5 277.5,317.5C 278.313,334.548 279.646,351.548 281.5,368.5C 221.5,368.5 161.5,368.5 101.5,368.5C 101.5,368.167 101.5,367.833 101.5,367.5C 161.167,367.5 220.833,367.5 280.5,367.5C 280.59,364.848 279.924,362.515 278.5,360.5C 276.909,343.237 275.909,325.904 275.5,308.5 Z"/></g>
<g><path style="opacity:1" fill="#f0d07f" d="M 278.5,360.5 C 279.924,362.515 280.59,364.848 280.5,367.5C 220.833,367.5 161.167,367.5 101.5,367.5C 99.326,367.25 97.6594,366.25 96.5,364.5C 98.4286,364.231 100.095,364.731 101.5,366C 160.17,366.833 218.836,366.667 277.5,365.5C 278.309,363.929 278.643,362.262 278.5,360.5 Z"/></g>
<g><path style="opacity:1" fill="#fbcc75" d="M 15.5,325.5 C 17.8835,327.247 19.5502,329.58 20.5,332.5C 21.1867,330.726 22.0201,329.059 23,327.5C 23.1667,328.833 23.3333,330.167 23.5,331.5C 21.8376,334.602 21.5043,337.769 22.5,341C 25.0078,345.16 27.8411,348.993 31,352.5C 35.2696,352.523 39.4363,353.523 43.5,355.5C 45.4837,359.065 46.4837,362.732 46.5,366.5C 47.0987,363.077 48.4321,360.077 50.5,357.5C 51.3035,360.244 52.3035,362.911 53.5,365.5C 53.3333,366.167 53.1667,366.833 53,367.5C 52,366.5 51,365.5 50,364.5C 49.3076,365.025 48.8076,365.692 48.5,366.5C 50.4682,368.398 51.8015,370.731 52.5,373.5C 54.9592,372.209 56.4592,370.209 57,367.5C 57.9862,368.171 59.1529,368.171 60.5,367.5C 61.3158,369.895 62.3158,372.229 63.5,374.5C 62.4168,374.461 61.4168,374.127 60.5,373.5C 59.5344,375.396 59.2011,377.396 59.5,379.5C 61.6348,379.147 62.9681,379.98 63.5,382C 62.381,384.802 60.381,386.302 57.5,386.5C 57.5,384.167 57.5,381.833 57.5,379.5C 54.8858,379.277 53.2191,380.444 52.5,383C 53.6405,383.741 53.6405,384.575 52.5,385.5C 53.6888,386.429 55.0222,386.762 56.5,386.5C 56.7612,390.044 55.0945,391.878 51.5,392C 52.8333,394.333 54.1667,396.667 55.5,399C 57.075,398.621 58.575,398.788 60,399.5C 60.3114,400.742 59.8114,401.742 58.5,402.5C 59.2624,402.911 60.2624,403.077 61.5,403C 60.5494,403.718 60.3828,404.551 61,405.5C 62.7454,403.911 63.912,401.911 64.5,399.5C 65.935,397.599 67.6017,397.266 69.5,398.5C 66.8674,399.884 66.8674,401.218 69.5,402.5C 71.578,400.014 74.2447,399.014 77.5,399.5C 78.2436,402.95 76.9103,404.616 73.5,404.5C 73.9065,409.74 73.2398,414.74 71.5,419.5C 70.1667,417.5 68.5,415.833 66.5,414.5C 66.762,413.022 66.4287,411.689 65.5,410.5C 64.0312,408.364 62.0312,407.03 59.5,406.5C 39.9002,382.309 25.2336,355.309 15.5,325.5 Z"/></g>
<g><path style="opacity:1" fill="#e0d088" d="M 60.5,363.5 C 62.7915,367.171 64.6248,371.171 66,375.5C 66.7083,376.381 67.5416,377.047 68.5,377.5C 69.5294,379.517 70.5294,381.517 71.5,383.5C 70.2794,382.972 69.1127,382.305 68,381.5C 67.6667,381.833 67.3333,382.167 67,382.5C 66.9964,379.208 65.8297,376.542 63.5,374.5C 62.3158,372.229 61.3158,369.895 60.5,367.5C 60.5,366.167 60.5,364.833 60.5,363.5 Z"/></g>
<g><path style="opacity:1" fill="#459691" d="M 101.5,368.5 C 161.5,368.5 221.5,368.5 281.5,368.5C 281.5,368.833 281.5,369.167 281.5,369.5C 222.001,370.665 162.335,370.832 102.5,370C 101.944,369.617 101.611,369.117 101.5,368.5 Z"/></g>
<g><path style="opacity:1" fill="#646156" d="M 420.5,373.5 C 420.067,378.9 419.234,384.233 418,389.5C 416.195,393.143 413.362,395.476 409.5,396.5C 411.534,394.061 413.701,391.728 416,389.5C 416.333,387.833 416.667,386.167 417,384.5C 417.333,384.833 417.667,385.167 418,385.5C 418.333,382.167 418.667,378.833 419,375.5C 419.278,374.584 419.778,373.918 420.5,373.5 Z"/></g>
<g><path style="opacity:1" fill="#218e95" d="M 75.5,385.5 C 82.757,389.796 89.757,393.296 96.5,396C 160.833,396.667 225.167,396.667 289.5,396C 288.619,395.292 287.953,394.458 287.5,393.5C 289.833,393.833 291.167,395.167 291.5,397.5C 225.83,397.833 160.163,397.5 94.5,396.5C 92.2235,395.579 89.8901,394.913 87.5,394.5C 82.7845,392.473 78.7845,389.473 75.5,385.5 Z"/></g>
<g><path style="opacity:1" fill="#c5bf85" d="M 87.5,394.5 C 89.8901,394.913 92.2235,395.579 94.5,396.5C 160.163,397.5 225.83,397.833 291.5,397.5C 329.5,397.5 367.5,397.5 405.5,397.5C 405.5,397.833 405.5,398.167 405.5,398.5C 303.48,399.455 201.48,399.455 99.5,398.5C 94.6478,399.259 90.6478,397.926 87.5,394.5 Z"/></g>
<g><path style="opacity:1" fill="#f3cf7f" d="M 99.5,398.5 C 201.48,399.455 303.48,399.455 405.5,398.5C 304.338,400.282 203.004,400.782 101.5,400C 100.584,399.722 99.9175,399.222 99.5,398.5 Z"/></g>
<g><path style="opacity:1" fill="#f0cc8f" d="M 59.5,406.5 C 62.0312,407.03 64.0312,408.364 65.5,410.5C 66.4287,411.689 66.762,413.022 66.5,414.5C 64.1956,411.859 61.8623,409.192 59.5,406.5 Z"/></g>
<g><path style="opacity:1" fill="#f5cd7f" d="M 393.5,448.5 C 380.547,458.422 366.547,466.756 351.5,473.5C 351.5,472.5 351.5,471.5 351.5,470.5C 352.873,470.657 354.207,470.49 355.5,470C 354.724,468.23 354.89,466.397 356,464.5C 357.193,465.978 357.693,467.312 357.5,468.5C 360.406,467.913 362.072,466.246 362.5,463.5C 364.833,463.5 367.167,463.5 369.5,463.5C 369.5,462.5 369.5,461.5 369.5,460.5C 371.288,460.785 372.955,460.452 374.5,459.5C 375.685,458.147 377.019,456.98 378.5,456C 378.167,455.667 377.833,455.333 377.5,455C 379.607,453.736 380.607,451.903 380.5,449.5C 382.492,449.328 384.158,449.995 385.5,451.5C 387.472,450.695 388.972,449.361 390,447.5C 391.011,448.337 392.178,448.67 393.5,448.5 Z"/></g>
<g><path style="opacity:1" fill="#f2cc87" d="M 296.5,490.5 C 287.786,492.887 278.786,494.387 269.5,495C 255.994,495.827 242.66,495.66 229.5,494.5C 247.955,495.033 266.288,494.2 284.5,492C 285.126,491.25 285.626,490.416 286,489.5C 289.394,490.456 292.894,490.789 296.5,490.5 Z"/></g>
</svg>
