<?xml version="1.0" encoding="UTF-8"?>
<!DOCTYPE svg PUBLIC "-//W3C//DTD SVG 1.1//EN" "http://www.w3.org/Graphics/SVG/1.1/DTD/svg11.dtd">
<svg xmlns="http://www.w3.org/2000/svg" version="1.1" width="500px" height="500px" style="shape-rendering:geometricPrecision; text-rendering:geometricPrecision; image-rendering:optimizeQuality; fill-rule:evenodd; clip-rule:evenodd" xmlns:xlink="http://www.w3.org/1999/xlink">
<g><path style="opacity:1" fill="#13d9fc" d="M 486.5,314.5 C 486.823,310.774 486.489,307.107 485.5,303.5C 483.468,302.032 483.635,300.365 486,298.5C 486.614,296.121 486.947,293.788 487,291.5C 486,290.167 485,290.167 484,291.5C 483.808,293.577 483.308,295.577 482.5,297.5C 481.201,296.91 480.368,295.91 480,294.5C 479.818,297.226 479.318,299.893 478.5,302.5C 477.831,260.266 477.164,218.1 476.5,176C 476.167,175.833 475.833,175.667 475.5,175.5C 474.833,218.331 474.167,260.998 473.5,303.5C 473.667,259.499 473.5,215.499 473,171.5C 472.184,170.177 471.017,169.511 469.5,169.5C 430.348,138.749 391.348,107.749 352.5,76.5C 351.333,76.1667 350.167,75.8333 349,75.5C 345.17,76.2499 341.337,76.9166 337.5,77.5C 328.718,79.1776 320.051,80.8442 311.5,82.5C 311.167,82.5 310.833,82.5 310.5,82.5C 303.484,83.4071 296.484,84.4071 289.5,85.5C 285.466,85.4955 281.466,85.1621 277.5,84.5C 277.5,85.5 277.5,86.5 277.5,87.5C 275.265,87.2053 273.265,87.5386 271.5,88.5C 266.688,87.9645 262.355,88.9645 258.5,91.5C 248.643,92.8082 238.976,94.4748 229.5,96.5C 208.661,99.849 187.994,103.516 167.5,107.5C 163.21,107.198 159.21,107.864 155.5,109.5C 154.833,109.5 154.167,109.5 153.5,109.5C 143.559,111.321 133.559,112.821 123.5,114C 122.619,114.708 121.953,115.542 121.5,116.5C 89.8749,142.123 58.5416,168.123 27.5,194.5C 26.167,213.822 25.5003,233.488 25.5,253.5C 25.6667,273.167 25.8333,292.833 26,312.5C 27.9711,314.553 30.1378,315.22 32.5,314.5C 77.5347,340.012 122.201,366.012 166.5,392.5C 166.5,393.833 166.5,395.167 166.5,396.5C 164.549,396.227 163.049,396.893 162,398.5C 160.686,397.687 159.519,396.687 158.5,395.5C 155.453,399.092 156.12,400.426 160.5,399.5C 161.167,401.167 161.833,402.833 162.5,404.5C 164.824,405.984 166.824,407.818 168.5,410C 167.881,412.532 166.881,414.865 165.5,417C 167.342,417.693 168.509,419.527 169,422.5C 169.988,426.185 168.988,429.185 166,431.5C 165.5,431.167 165,430.833 164.5,430.5C 165.5,429.167 166.5,427.833 167.5,426.5C 166.194,425.088 165.36,423.421 165,421.5C 162.347,424.194 159.18,425.027 155.5,424C 154.748,423.329 154.414,422.496 154.5,421.5C 152.208,421.244 150.041,421.577 148,422.5C 146.242,421.531 145.742,420.364 146.5,419C 145.376,418.751 144.376,418.251 143.5,417.5C 145.184,416.146 145.684,414.479 145,412.5C 144.667,412.833 144.333,413.167 144,413.5C 141.929,412.636 140.262,411.303 139,409.5C 136.126,413.484 133.96,413.151 132.5,408.5C 134.339,409.752 136.172,409.752 138,408.5C 139.608,405.228 141.608,402.228 144,399.5C 144.749,398.365 144.583,397.365 143.5,396.5C 116.918,381.293 90.4182,365.96 64,350.5C 63.3292,351.252 62.4959,351.586 61.5,351.5C 59.205,350.208 57.3716,350.874 56,353.5C 56.1554,351.189 56.1554,348.856 56,346.5C 54.6439,347.38 53.1439,347.714 51.5,347.5C 51.6168,349.484 50.9501,351.15 49.5,352.5C 51.9238,354.714 51.2571,355.714 47.5,355.5C 47.3285,357.492 47.9951,359.158 49.5,360.5C 46.6917,361.529 45.3584,360.362 45.5,357C 46.0535,355.449 46.7202,353.949 47.5,352.5C 47.1667,351.833 46.8333,351.167 46.5,350.5C 45.8333,351.5 45.1667,352.5 44.5,353.5C 42.9166,350.006 41.2499,349.84 39.5,353C 38.2068,353.49 36.8734,353.657 35.5,353.5C 35.5,352.5 35.5,351.5 35.5,350.5C 33.5,350.5 31.5,350.5 29.5,350.5C 29.5,352.833 29.5,355.167 29.5,357.5C 27.3894,350.685 24.7228,344.018 21.5,337.5C 20.7124,336.23 19.7124,335.23 18.5,334.5C 15.5331,327.435 13.0331,320.102 11,312.5C 9.29455,306.6 8.12788,300.6 7.5,294.5C 7.45108,291.626 7.78442,288.792 8.5,286C 7.0951,282.451 6.0951,278.784 5.5,275C 8.31897,270.3 8.1523,265.8 5,261.5C 3.96635,246.143 5.13302,230.976 8.5,216C 7.68976,212.208 7.35642,208.375 7.5,204.5C 25.2347,118.931 73.9014,58.0976 153.5,22C 231.418,-8.09403 306.418,-2.42736 378.5,39C 443.544,80.9288 482.044,140.096 494,216.5C 497.618,242.61 496.952,268.61 492,294.5C 490.76,301.472 488.927,308.138 486.5,314.5 Z"/></g>
<g><path style="opacity:1" fill="#020508" d="M 469.5,169.5 C 469.783,170.289 470.283,170.956 471,171.5C 471.5,218.165 471.667,264.832 471.5,311.5C 449.238,320.633 427.238,330.299 405.5,340.5C 400.311,341.554 395.644,343.554 391.5,346.5C 390.391,346.557 389.391,346.89 388.5,347.5C 386.033,347.755 384.033,348.755 382.5,350.5C 327.841,374.163 273.174,397.829 218.5,421.5C 201.153,411.811 183.82,402.144 166.5,392.5C 122.201,366.012 77.5347,340.012 32.5,314.5C 31.5943,313.035 30.261,312.035 28.5,311.5C 27.5001,272.506 27.1668,233.506 27.5,194.5C 58.5416,168.123 89.8749,142.123 121.5,116.5C 122.756,116.539 123.756,116.039 124.5,115C 133.208,114.322 141.875,113.322 150.5,112C 151.571,111.148 152.571,110.315 153.5,109.5C 154.167,109.5 154.833,109.5 155.5,109.5C 159.817,109.917 163.817,109.25 167.5,107.5C 187.994,103.516 208.661,99.849 229.5,96.5C 240.627,96.3992 251.293,94.7325 261.5,91.5C 265.025,90.7903 268.358,89.7903 271.5,88.5C 276.181,88.3314 280.848,87.9981 285.5,87.5C 294.3,87.4734 302.633,85.8068 310.5,82.5C 310.833,82.5 311.167,82.5 311.5,82.5C 320.595,82.3211 329.261,80.6544 337.5,77.5C 341.337,76.9166 345.17,76.2499 349,75.5C 350.167,75.8333 351.333,76.1667 352.5,76.5C 391.348,107.749 430.348,138.749 469.5,169.5 Z"/></g>
<g><path style="opacity:1" fill="#05303c" d="M 337.5,77.5 C 329.261,80.6544 320.595,82.3211 311.5,82.5C 320.051,80.8442 328.718,79.1776 337.5,77.5 Z"/></g>
<g><path style="opacity:1" fill="#19bbd2" d="M 289.5,85.5 C 288.167,86.1667 286.833,86.8333 285.5,87.5C 280.848,87.9981 276.181,88.3314 271.5,88.5C 273.265,87.5386 275.265,87.2053 277.5,87.5C 277.5,86.5 277.5,85.5 277.5,84.5C 281.466,85.1621 285.466,85.4955 289.5,85.5 Z"/></g>
<g><path style="opacity:1" fill="#09222c" d="M 310.5,82.5 C 302.633,85.8068 294.3,87.4734 285.5,87.5C 286.833,86.8333 288.167,86.1667 289.5,85.5C 296.484,84.4071 303.484,83.4071 310.5,82.5 Z"/></g>
<g><path style="opacity:1" fill="#1ba7bd" d="M 271.5,88.5 C 268.358,89.7903 265.025,90.7903 261.5,91.5C 260.5,91.5 259.5,91.5 258.5,91.5C 262.355,88.9645 266.688,87.9645 271.5,88.5 Z"/></g>
<g><path style="opacity:1" fill="#072730" d="M 258.5,91.5 C 259.5,91.5 260.5,91.5 261.5,91.5C 251.293,94.7325 240.627,96.3992 229.5,96.5C 238.976,94.4748 248.643,92.8082 258.5,91.5 Z"/></g>
<g><path style="opacity:1" fill="#259baf" d="M 321.5,98.5 C 317.374,98.1574 313.041,98.1574 308.5,98.5C 313.634,96.5347 318.967,95.868 324.5,96.5C 323.643,97.4252 322.643,98.0919 321.5,98.5 Z"/></g>
<g><path style="opacity:1" fill="#1fa4bd" d="M 307.5,98.5 C 307.082,99.2216 306.416,99.7216 305.5,100C 301.49,100.501 297.49,101.001 293.5,101.5C 297.883,99.7699 302.55,98.7699 307.5,98.5 Z"/></g>
<g><path style="opacity:1" fill="#0cd8fb" d="M 391.5,176.5 C 374.093,177.562 356.76,179.062 339.5,181C 338.748,181.671 338.414,182.504 338.5,183.5C 331.947,183.94 325.613,184.94 319.5,186.5C 316.098,186.342 312.764,186.676 309.5,187.5C 303.931,187.376 298.598,188.043 293.5,189.5C 291.833,189.5 290.167,189.5 288.5,189.5C 282.606,189.939 276.94,190.939 271.5,192.5C 266.797,192.437 262.13,192.771 257.5,193.5C 253.138,193.756 248.805,193.923 244.5,194C 245.252,193.329 245.586,192.496 245.5,191.5C 278.969,159.533 312.635,127.7 346.5,96C 347.609,95.3623 348.775,94.8623 350,94.5C 381.633,119.296 413.133,144.296 444.5,169.5C 426.971,172.733 409.305,175.066 391.5,176.5 Z"/></g>
<g><path style="opacity:1" fill="#21b3cb" d="M 293.5,101.5 C 285.171,104.256 276.504,105.589 267.5,105.5C 275.907,103.291 284.574,101.957 293.5,101.5 Z"/></g>
<g><path style="opacity:1" fill="#0cd8fb" d="M 321.5,98.5 C 286.553,131.778 251.553,165.111 216.5,198.5C 181.506,197.101 146.506,195.768 111.5,194.5C 92.8409,193.454 74.1743,192.454 55.5,191.5C 79.9951,170.508 104.662,149.675 129.5,129C 132.827,128.39 136.161,127.89 139.5,127.5C 144.414,127.638 149.081,126.972 153.5,125.5C 155.698,125.125 157.698,124.458 159.5,123.5C 166.453,122.221 173.453,121.221 180.5,120.5C 185.911,120.875 190.911,119.875 195.5,117.5C 199.489,117.884 203.155,117.217 206.5,115.5C 207.833,115.5 209.167,115.5 210.5,115.5C 213.152,115.59 215.485,114.924 217.5,113.5C 226.199,112.384 234.866,111.05 243.5,109.5C 246.187,109.664 248.854,109.497 251.5,109C 252.416,108.722 253.082,108.222 253.5,107.5C 254.833,107.5 256.167,107.5 257.5,107.5C 261.04,107.247 264.373,106.581 267.5,105.5C 276.504,105.589 285.171,104.256 293.5,101.5C 297.49,101.001 301.49,100.501 305.5,100C 306.416,99.7216 307.082,99.2216 307.5,98.5C 307.833,98.5 308.167,98.5 308.5,98.5C 313.041,98.1574 317.374,98.1574 321.5,98.5 Z"/></g>
<g><path style="opacity:1" fill="#148594" d="M 267.5,105.5 C 264.373,106.581 261.04,107.247 257.5,107.5C 257.918,106.778 258.584,106.278 259.5,106C 262.146,105.503 264.813,105.336 267.5,105.5 Z"/></g>
<g><path style="opacity:1" fill="#092b30" d="M 167.5,107.5 C 163.817,109.25 159.817,109.917 155.5,109.5C 159.21,107.864 163.21,107.198 167.5,107.5 Z"/></g>
<g><path style="opacity:1" fill="#158597" d="M 253.5,107.5 C 253.082,108.222 252.416,108.722 251.5,109C 248.854,109.497 246.187,109.664 243.5,109.5C 246.627,108.419 249.96,107.753 253.5,107.5 Z"/></g>
<g><path style="opacity:1" fill="#09202b" d="M 153.5,109.5 C 152.571,110.315 151.571,111.148 150.5,112C 141.875,113.322 133.208,114.322 124.5,115C 123.756,116.039 122.756,116.539 121.5,116.5C 121.953,115.542 122.619,114.708 123.5,114C 133.559,112.821 143.559,111.321 153.5,109.5 Z"/></g>
<g><path style="opacity:1" fill="#107a87" d="M 217.5,113.5 C 215.485,114.924 213.152,115.59 210.5,115.5C 212.515,114.076 214.848,113.41 217.5,113.5 Z"/></g>
<g><path style="opacity:1" fill="#0f7587" d="M 206.5,115.5 C 203.155,117.217 199.489,117.884 195.5,117.5C 198.974,116.475 202.64,115.808 206.5,115.5 Z"/></g>
<g><path style="opacity:1" fill="#189bb5" d="M 195.5,117.5 C 190.911,119.875 185.911,120.875 180.5,120.5C 185.273,118.978 190.273,117.978 195.5,117.5 Z"/></g>
<g><path style="opacity:1" fill="#0a2d37" d="M 159.5,123.5 C 157.698,124.458 155.698,125.125 153.5,125.5C 151.833,125.5 150.167,125.5 148.5,125.5C 148.918,124.778 149.584,124.278 150.5,124C 153.482,123.502 156.482,123.335 159.5,123.5 Z"/></g>
<g><path style="opacity:1" fill="#1f9fb4" d="M 148.5,125.5 C 150.167,125.5 151.833,125.5 153.5,125.5C 149.081,126.972 144.414,127.638 139.5,127.5C 142.311,126.525 145.311,125.858 148.5,125.5 Z"/></g>
<g><path style="opacity:1" fill="#17a5bd" d="M 469.5,169.5 C 471.017,169.511 472.184,170.177 473,171.5C 473.5,215.499 473.667,259.499 473.5,303.5C 473.663,305.857 473.497,308.19 473,310.5C 472.617,311.056 472.117,311.389 471.5,311.5C 471.667,264.832 471.5,218.165 471,171.5C 470.283,170.956 469.783,170.289 469.5,169.5 Z"/></g>
<g><path style="opacity:1" fill="#1dbddb" d="M 391.5,176.5 C 374.913,178.629 358.246,180.962 341.5,183.5C 340.5,183.5 339.5,183.5 338.5,183.5C 338.414,182.504 338.748,181.671 339.5,181C 356.76,179.062 374.093,177.562 391.5,176.5 Z"/></g>
<g><path style="opacity:1" fill="#092026" d="M 338.5,183.5 C 339.5,183.5 340.5,183.5 341.5,183.5C 334.546,186.174 327.212,187.174 319.5,186.5C 325.613,184.94 331.947,183.94 338.5,183.5 Z"/></g>
<g><path style="opacity:1" fill="#033742" d="M 309.5,187.5 C 304.417,189.078 299.084,189.745 293.5,189.5C 298.598,188.043 303.931,187.376 309.5,187.5 Z"/></g>
<g><path style="opacity:1" fill="#10d8fb" d="M 456.5,185.5 C 456.5,224.167 456.5,262.833 456.5,301.5C 452.878,302.82 449.212,304.153 445.5,305.5C 444.5,305.5 443.5,305.5 442.5,305.5C 442.5,265.833 442.5,226.167 442.5,186.5C 447.167,186.167 451.833,185.833 456.5,185.5 Z"/></g>
<g><path style="opacity:1" fill="#11d8fa" d="M 420.5,188.5 C 422.167,188.5 423.833,188.5 425.5,188.5C 425.827,230.906 425.494,273.239 424.5,315.5C 420.833,316.833 417.167,318.167 413.5,319.5C 411.505,276.846 410.839,233.846 411.5,190.5C 412.791,190.737 413.791,190.404 414.5,189.5C 416.735,189.795 418.735,189.461 420.5,188.5 Z"/></g>
<g><path style="opacity:1" fill="#1daec5" d="M 456.5,185.5 C 451.833,185.833 447.167,186.167 442.5,186.5C 442.5,226.167 442.5,265.833 442.5,305.5C 443.5,305.5 444.5,305.5 445.5,305.5C 444.739,306.391 443.739,307.058 442.5,307.5C 441.5,266.839 441.167,226.172 441.5,185.5C 446.666,184.574 451.666,184.574 456.5,185.5 Z"/></g>
<g><path style="opacity:1" fill="#053340" d="M 288.5,189.5 C 283.17,191.667 277.503,192.667 271.5,192.5C 276.94,190.939 282.606,189.939 288.5,189.5 Z"/></g>
<g><path style="opacity:1" fill="#011d26" d="M 420.5,188.5 C 418.735,189.461 416.735,189.795 414.5,189.5C 413.167,189.5 411.833,189.5 410.5,189.5C 409.839,233.513 410.505,277.179 412.5,320.5C 411.791,321.404 410.791,321.737 409.5,321.5C 410.134,277.053 409.467,232.72 407.5,188.5C 411.833,188.5 416.167,188.5 420.5,188.5 Z"/></g>
<g><path style="opacity:1" fill="#1b8e9f" d="M 414.5,189.5 C 413.791,190.404 412.791,190.737 411.5,190.5C 410.839,233.846 411.505,276.846 413.5,319.5C 413.5,320.167 413.167,320.5 412.5,320.5C 410.505,277.179 409.839,233.513 410.5,189.5C 411.833,189.5 413.167,189.5 414.5,189.5 Z"/></g>
<g><path style="opacity:1" fill="#167488" d="M 425.5,188.5 C 426.499,230.33 426.832,272.33 426.5,314.5C 426.158,315.338 425.492,315.672 424.5,315.5C 425.494,273.239 425.827,230.906 425.5,188.5 Z"/></g>
<g><path style="opacity:1" fill="#000f18" d="M 426.5,314.5 C 426.832,272.33 426.499,230.33 425.5,188.5C 423.833,188.5 422.167,188.5 420.5,188.5C 423.187,186.026 426.187,185.859 429.5,188C 428.809,189.067 428.309,190.234 428,191.5C 427.833,232.669 427.333,273.669 426.5,314.5 Z"/></g>
<g><path style="opacity:1" fill="#208da2" d="M 245.5,191.5 C 245.586,192.496 245.252,193.329 244.5,194C 248.805,193.923 253.138,193.756 257.5,193.5C 252.396,195.121 247.063,195.621 241.5,195C 242.705,193.624 244.038,192.458 245.5,191.5 Z"/></g>
<g><path style="opacity:1" fill="#1895ac" d="M 375.5,194.5 C 371.081,195.972 366.414,196.638 361.5,196.5C 365.919,195.028 370.586,194.362 375.5,194.5 Z"/></g>
<g><path style="opacity:1" fill="#0a1c24" d="M 111.5,194.5 C 146.506,195.768 181.506,197.101 216.5,198.5C 192.041,198.517 167.541,198.517 143,198.5C 141.933,197.809 140.766,197.309 139.5,197C 129.949,196.895 120.616,196.062 111.5,194.5 Z"/></g>
<g><path style="opacity:1" fill="#0bd9fd" d="M 379.5,288.5 C 367.638,287.246 355.972,285.246 344.5,282.5C 339.105,280.675 333.438,279.675 327.5,279.5C 318.085,278.529 308.752,277.196 299.5,275.5C 298.791,274.596 297.791,274.263 296.5,274.5C 296.5,251.167 296.5,227.833 296.5,204.5C 299.059,204.802 301.393,204.468 303.5,203.5C 304.167,203.5 304.833,203.5 305.5,203.5C 318.914,202.996 332.247,201.829 345.5,200C 350.251,198.717 354.918,197.55 359.5,196.5C 360.167,196.5 360.833,196.5 361.5,196.5C 366.414,196.638 371.081,195.972 375.5,194.5C 377.167,194.5 378.833,194.5 380.5,194.5C 385.099,194.8 389.599,194.467 394,193.5C 394.833,225.838 394.667,258.172 393.5,290.5C 388.959,289.016 384.292,288.349 379.5,288.5 Z"/></g>
<g><path style="opacity:1" fill="#1caac2" d="M 359.5,196.5 C 354.918,197.55 350.251,198.717 345.5,200C 332.247,201.829 318.914,202.996 305.5,203.5C 323.262,200.362 341.262,198.029 359.5,196.5 Z"/></g>
<g><path style="opacity:1" fill="#18a3bc" d="M 379.5,288.5 C 384.292,288.349 388.959,289.016 393.5,290.5C 394.667,258.172 394.833,225.838 394,193.5C 389.599,194.467 385.099,194.8 380.5,194.5C 381.263,193.732 382.263,193.232 383.5,193C 387.486,192.501 391.486,192.334 395.5,192.5C 395.5,225.5 395.5,258.5 395.5,291.5C 389.939,291.044 384.606,290.044 379.5,288.5 Z"/></g>
<g><path style="opacity:1" fill="#18a4bd" d="M 27.5,194.5 C 27.1668,233.506 27.5001,272.506 28.5,311.5C 30.261,312.035 31.5943,313.035 32.5,314.5C 30.1378,315.22 27.9711,314.553 26,312.5C 25.8333,292.833 25.6667,273.167 25.5,253.5C 25.5003,233.488 26.167,213.822 27.5,194.5 Z"/></g>
<g><path style="opacity:1" fill="#015164" d="M 59.5,207.5 C 53.8333,207.5 48.1667,207.5 42.5,207.5C 42.5,238.833 42.5,270.167 42.5,301.5C 41.5018,270.004 41.1685,238.338 41.5,206.5C 47.69,206.177 53.69,206.51 59.5,207.5 Z"/></g>
<g><path style="opacity:1" fill="#0ad9fd" d="M 159.5,212.5 C 175.978,213.97 192.645,214.637 209.5,214.5C 209.833,274.837 209.5,335.17 208.5,395.5C 207.583,396.127 206.583,396.461 205.5,396.5C 151.734,365.961 98.4011,334.961 45.5,303.5C 45.2172,302.711 44.7172,302.044 44,301.5C 43.5,270.502 43.3334,239.502 43.5,208.5C 82.1469,210.166 120.814,211.5 159.5,212.5 Z"/></g>
<g><path style="opacity:1" fill="#1e899d" d="M 271.5,207.5 C 274.287,206.523 277.287,206.19 280.5,206.5C 280.832,264.002 280.499,321.336 279.5,378.5C 279.5,321.5 279.5,264.5 279.5,207.5C 276.833,207.5 274.167,207.5 271.5,207.5 Z"/></g>
<g><path style="opacity:1" fill="#1aabc2" d="M 303.5,203.5 C 301.393,204.468 299.059,204.802 296.5,204.5C 296.5,227.833 296.5,251.167 296.5,274.5C 297.791,274.263 298.791,274.596 299.5,275.5C 298.167,275.5 296.833,275.5 295.5,275.5C 295.5,251.5 295.5,227.5 295.5,203.5C 298.167,203.5 300.833,203.5 303.5,203.5 Z"/></g>
<g><path style="opacity:1" fill="#23bfd9" d="M 59.5,207.5 C 95.4736,209.329 131.474,210.663 167.5,211.5C 167.5,211.833 167.5,212.167 167.5,212.5C 164.833,212.5 162.167,212.5 159.5,212.5C 120.814,211.5 82.1469,210.166 43.5,208.5C 43.3334,239.502 43.5,270.502 44,301.5C 44.7172,302.044 45.2172,302.711 45.5,303.5C 43.9731,303.573 42.9731,302.906 42.5,301.5C 42.5,270.167 42.5,238.833 42.5,207.5C 48.1667,207.5 53.8333,207.5 59.5,207.5 Z"/></g>
<g><path style="opacity:1" fill="#054f5e" d="M 167.5,212.5 C 167.5,212.167 167.5,211.833 167.5,211.5C 179.378,211.145 191.045,211.812 202.5,213.5C 190.83,213.272 179.163,212.938 167.5,212.5 Z"/></g>
<g><path style="opacity:1" fill="#61dcf1" d="M 7.5,204.5 C 7.35642,208.375 7.68976,212.208 8.5,216C 5.13302,230.976 3.96635,246.143 5,261.5C 8.1523,265.8 8.31897,270.3 5.5,275C 6.0951,278.784 7.0951,282.451 8.5,286C 7.78442,288.792 7.45108,291.626 7.5,294.5C 0.833333,264.5 0.833333,234.5 7.5,204.5 Z"/></g>
<g><path style="opacity:1" fill="#0dd9f8" d="M 243.5,211.5 C 245.167,211.5 246.833,211.5 248.5,211.5C 248.5,214.167 248.5,216.833 248.5,219.5C 247.883,219.389 247.383,219.056 247,218.5C 244.66,221.665 241.66,222.665 238,221.5C 237.055,221.905 236.388,222.572 236,223.5C 235.5,276.499 235.333,329.499 235.5,382.5C 236.873,382.343 238.207,382.51 239.5,383C 242.491,384.778 245.491,386.611 248.5,388.5C 247.833,388.833 247.167,389.167 246.5,389.5C 241.822,387.812 237.156,386.145 232.5,384.5C 232.5,330.833 232.5,277.167 232.5,223.5C 231.5,223.5 230.5,223.5 229.5,223.5C 229.825,280.19 229.492,336.856 228.5,393.5C 228.637,395.107 229.304,396.441 230.5,397.5C 233.556,395.711 236.889,395.044 240.5,395.5C 237.746,396.641 235.079,397.975 232.5,399.5C 231.167,399.833 229.833,400.167 228.5,400.5C 227.501,338.336 227.168,276.002 227.5,213.5C 228.791,213.737 229.791,213.404 230.5,212.5C 234.634,211.515 238.968,211.182 243.5,211.5 Z"/></g>
<g><path style="opacity:1" fill="#19b1cd" d="M 159.5,212.5 C 162.167,212.5 164.833,212.5 167.5,212.5C 179.163,212.938 190.83,213.272 202.5,213.5C 206.012,212.945 209.012,213.612 211.5,215.5C 212.163,277.176 211.496,338.509 209.5,399.5C 207.77,398.974 206.436,397.974 205.5,396.5C 206.583,396.461 207.583,396.127 208.5,395.5C 209.5,335.17 209.833,274.837 209.5,214.5C 192.645,214.637 175.978,213.97 159.5,212.5 Z"/></g>
<g><path style="opacity:1" fill="#0ed7fa" d="M 271.5,207.5 C 274.167,207.5 276.833,207.5 279.5,207.5C 279.5,264.5 279.5,321.5 279.5,378.5C 276.52,379.323 273.853,380.657 271.5,382.5C 270.167,382.833 268.833,383.167 267.5,383.5C 265.516,368.202 264.849,352.536 265.5,336.5C 259.974,336.179 254.64,336.512 249.5,337.5C 249.667,355.503 249.5,373.503 249,391.5C 246.095,392.703 243.262,394.036 240.5,395.5C 236.889,395.044 233.556,395.711 230.5,397.5C 229.304,396.441 228.637,395.107 228.5,393.5C 229.492,336.856 229.825,280.19 229.5,223.5C 230.5,223.5 231.5,223.5 232.5,223.5C 232.5,277.167 232.5,330.833 232.5,384.5C 237.156,386.145 241.822,387.812 246.5,389.5C 247.167,389.167 247.833,388.833 248.5,388.5C 245.491,386.611 242.491,384.778 239.5,383C 238.207,382.51 236.873,382.343 235.5,382.5C 235.333,329.499 235.5,276.499 236,223.5C 236.388,222.572 237.055,221.905 238,221.5C 241.66,222.665 244.66,221.665 247,218.5C 247.383,219.056 247.883,219.389 248.5,219.5C 248.168,251.004 248.502,282.338 249.5,313.5C 254.5,313.5 259.5,313.5 264.5,313.5C 264.5,278.5 264.5,243.5 264.5,208.5C 266.764,207.781 269.097,207.448 271.5,207.5 Z"/></g>
<g><path style="opacity:1" fill="#27bdd9" d="M 243.5,211.5 C 245.265,210.539 247.265,210.205 249.5,210.5C 249.5,211.5 249.5,212.5 249.5,213.5C 249.5,246.833 249.5,280.167 249.5,313.5C 248.502,282.338 248.168,251.004 248.5,219.5C 248.5,216.833 248.5,214.167 248.5,211.5C 246.833,211.5 245.167,211.5 243.5,211.5 Z"/></g>
<g><path style="opacity:1" fill="#001218" d="M 211.5,215.5 C 212.499,276.998 212.832,338.664 212.5,400.5C 211.209,400.737 210.209,400.404 209.5,399.5C 211.496,338.509 212.163,277.176 211.5,215.5 Z"/></g>
<g><path style="opacity:1" fill="#2bafc2" d="M 230.5,212.5 C 229.791,213.404 228.791,213.737 227.5,213.5C 227.168,276.002 227.501,338.336 228.5,400.5C 228.44,401.043 228.107,401.376 227.5,401.5C 226.5,338.504 226.167,275.504 226.5,212.5C 227.833,212.5 229.167,212.5 230.5,212.5 Z"/></g>
<g><path style="opacity:1" fill="#001119" d="M 264.5,208.5 C 264.5,243.5 264.5,278.5 264.5,313.5C 259.5,313.5 254.5,313.5 249.5,313.5C 249.5,280.167 249.5,246.833 249.5,213.5C 250.498,246.329 250.832,279.329 250.5,312.5C 254.833,312.5 259.167,312.5 263.5,312.5C 263.168,277.663 263.502,242.996 264.5,208.5 Z"/></g>
<g><path style="opacity:1" fill="#219eb4" d="M 327.5,279.5 C 333.438,279.675 339.105,280.675 344.5,282.5C 338.522,282.58 332.855,281.58 327.5,279.5 Z"/></g>
<g><path style="opacity:1" fill="#0dd8fb" d="M 303.5,292.5 C 334.201,296.838 364.867,301.505 395.5,306.5C 395.5,313.833 395.5,321.167 395.5,328.5C 366.66,340.249 337.993,352.582 309.5,365.5C 305.958,366.393 302.624,367.726 299.5,369.5C 298.5,369.5 297.5,369.5 296.5,369.5C 296.5,343.833 296.5,318.167 296.5,292.5C 298.833,292.5 301.167,292.5 303.5,292.5 Z"/></g>
<g><path style="opacity:1" fill="#1cafc6" d="M 303.5,292.5 C 301.167,292.5 298.833,292.5 296.5,292.5C 296.5,318.167 296.5,343.833 296.5,369.5C 297.5,369.5 298.5,369.5 299.5,369.5C 299.5,369.833 299.5,370.167 299.5,370.5C 298.417,370.539 297.417,370.873 296.5,371.5C 295.5,344.508 295.167,317.508 295.5,290.5C 298.428,290.565 301.095,291.232 303.5,292.5 Z"/></g>
<g><path style="opacity:1" fill="#12d9fc" d="M 486.5,314.5 C 466.021,386.821 422.021,439.654 354.5,473C 274.139,508.014 196.139,503.681 120.5,460C 85.5021,438.504 57.8355,410.004 37.5,374.5C 37.5668,372.599 37.2335,370.766 36.5,369C 33.3592,365.141 31.0259,361.308 29.5,357.5C 29.5,355.167 29.5,352.833 29.5,350.5C 31.5,350.5 33.5,350.5 35.5,350.5C 35.5,351.5 35.5,352.5 35.5,353.5C 36.8734,353.657 38.2068,353.49 39.5,353C 41.2499,349.84 42.9166,350.006 44.5,353.5C 45.1667,352.5 45.8333,351.5 46.5,350.5C 46.8333,351.167 47.1667,351.833 47.5,352.5C 46.7202,353.949 46.0535,355.449 45.5,357C 45.3584,360.362 46.6917,361.529 49.5,360.5C 47.9951,359.158 47.3285,357.492 47.5,355.5C 51.2571,355.714 51.9238,354.714 49.5,352.5C 50.9501,351.15 51.6168,349.484 51.5,347.5C 53.1439,347.714 54.6439,347.38 56,346.5C 56.1554,348.856 56.1554,351.189 56,353.5C 57.3716,350.874 59.205,350.208 61.5,351.5C 60.2378,355.191 58.5712,358.691 56.5,362C 56.7591,363.261 57.4258,364.261 58.5,365C 83.4266,379.288 108.093,393.788 132.5,408.5C 133.96,413.151 136.126,413.484 139,409.5C 140.262,411.303 141.929,412.636 144,413.5C 144.333,413.167 144.667,412.833 145,412.5C 145.684,414.479 145.184,416.146 143.5,417.5C 144.376,418.251 145.376,418.751 146.5,419C 145.742,420.364 146.242,421.531 148,422.5C 150.041,421.577 152.208,421.244 154.5,421.5C 154.414,422.496 154.748,423.329 155.5,424C 159.18,425.027 162.347,424.194 165,421.5C 165.36,423.421 166.194,425.088 167.5,426.5C 166.5,427.833 165.5,429.167 164.5,430.5C 165,430.833 165.5,431.167 166,431.5C 168.988,429.185 169.988,426.185 169,422.5C 168.509,419.527 167.342,417.693 165.5,417C 166.881,414.865 167.881,412.532 168.5,410C 166.824,407.818 164.824,405.984 162.5,404.5C 161.833,402.833 161.167,401.167 160.5,399.5C 156.12,400.426 155.453,399.092 158.5,395.5C 159.519,396.687 160.686,397.687 162,398.5C 163.049,396.893 164.549,396.227 166.5,396.5C 166.5,395.167 166.5,393.833 166.5,392.5C 183.82,402.144 201.153,411.811 218.5,421.5C 273.174,397.829 327.841,374.163 382.5,350.5C 384.967,350.245 386.967,349.245 388.5,347.5C 389.391,346.89 390.391,346.557 391.5,346.5C 392.873,346.657 394.207,346.49 395.5,346C 398.985,344.245 402.319,342.412 405.5,340.5C 427.238,330.299 449.238,320.633 471.5,311.5C 472.117,311.389 472.617,311.056 473,310.5C 473.497,308.19 473.663,305.857 473.5,303.5C 474.167,260.998 474.833,218.331 475.5,175.5C 475.833,175.667 476.167,175.833 476.5,176C 477.164,218.1 477.831,260.266 478.5,302.5C 479.318,299.893 479.818,297.226 480,294.5C 480.368,295.91 481.201,296.91 482.5,297.5C 483.308,295.577 483.808,293.577 484,291.5C 485,290.167 486,290.167 487,291.5C 486.947,293.788 486.614,296.121 486,298.5C 483.635,300.365 483.468,302.032 485.5,303.5C 486.489,307.107 486.823,310.774 486.5,314.5 Z"/></g>
<g><path style="opacity:1" fill="#1a9bb1" d="M 405.5,340.5 C 402.319,342.412 398.985,344.245 395.5,346C 394.207,346.49 392.873,346.657 391.5,346.5C 395.644,343.554 400.311,341.554 405.5,340.5 Z"/></g>
<g><path style="opacity:1" fill="#137b8f" d="M 388.5,347.5 C 386.967,349.245 384.967,350.245 382.5,350.5C 384.033,348.755 386.033,347.755 388.5,347.5 Z"/></g>
<g><path style="opacity:1" fill="#021219" d="M 249.5,337.5 C 254.5,337.5 259.5,337.5 264.5,337.5C 264.5,353.167 264.5,368.833 264.5,384.5C 265.791,384.737 266.791,384.404 267.5,383.5C 268.833,383.167 270.167,382.833 271.5,382.5C 269.937,385.95 267.27,387.95 263.5,388.5C 263.5,371.833 263.5,355.167 263.5,338.5C 259.167,338.5 254.833,338.5 250.5,338.5C 250.667,356.503 250.5,374.503 250,392.5C 244.957,396.621 239.124,398.954 232.5,399.5C 235.079,397.975 237.746,396.641 240.5,395.5C 243.262,394.036 246.095,392.703 249,391.5C 249.5,373.503 249.667,355.503 249.5,337.5 Z"/></g>
<g><path style="opacity:1" fill="#1d8190" d="M 249.5,337.5 C 254.64,336.512 259.974,336.179 265.5,336.5C 264.849,352.536 265.516,368.202 267.5,383.5C 266.791,384.404 265.791,384.737 264.5,384.5C 264.5,368.833 264.5,353.167 264.5,337.5C 259.5,337.5 254.5,337.5 249.5,337.5 Z"/></g>
<g><path style="opacity:1" fill="#03090c" d="M 132.5,408.5 C 108.093,393.788 83.4266,379.288 58.5,365C 57.4258,364.261 56.7591,363.261 56.5,362C 58.5712,358.691 60.2378,355.191 61.5,351.5C 62.4959,351.586 63.3292,351.252 64,350.5C 90.4182,365.96 116.918,381.293 143.5,396.5C 144.583,397.365 144.749,398.365 144,399.5C 141.608,402.228 139.608,405.228 138,408.5C 136.172,409.752 134.339,409.752 132.5,408.5 Z"/></g>
<g><path style="opacity:1" fill="#62d8f0" d="M 18.5,334.5 C 19.7124,335.23 20.7124,336.23 21.5,337.5C 24.7228,344.018 27.3894,350.685 29.5,357.5C 31.0259,361.308 33.3592,365.141 36.5,369C 37.2335,370.766 37.5668,372.599 37.5,374.5C 29.3872,362.041 23.0539,348.708 18.5,334.5 Z"/></g>
<g><path style="opacity:1" fill="#072935" d="M 309.5,365.5 C 307.526,366.906 305.526,368.406 303.5,370C 302.207,370.49 300.873,370.657 299.5,370.5C 299.5,370.167 299.5,369.833 299.5,369.5C 302.624,367.726 305.958,366.393 309.5,365.5 Z"/></g>
<g><path style="opacity:1" fill="#040b10" d="M 161.5,420.5 C 160.542,420.953 159.708,421.619 159,422.5C 158.329,421.748 157.496,421.414 156.5,421.5C 155.833,421.5 155.167,421.5 154.5,421.5C 152.41,419.61 150.077,417.943 147.5,416.5C 149.83,412.026 152.663,408.026 156,404.5C 159.565,406.367 163.065,408.367 166.5,410.5C 164.807,413.886 163.14,417.22 161.5,420.5 Z"/></g>
<g><path style="opacity:1" fill="#0b7389" d="M 161.5,420.5 C 160.423,423.972 158.756,424.305 156.5,421.5C 157.496,421.414 158.329,421.748 159,422.5C 159.708,421.619 160.542,420.953 161.5,420.5 Z"/></g>
</svg>
