<?xml version="1.0" encoding="UTF-8"?>
<!DOCTYPE svg PUBLIC "-//W3C//DTD SVG 1.1//EN" "http://www.w3.org/Graphics/SVG/1.1/DTD/svg11.dtd">
<svg xmlns="http://www.w3.org/2000/svg" version="1.1" width="500px" height="500px" style="shape-rendering:geometricPrecision; text-rendering:geometricPrecision; image-rendering:optimizeQuality; fill-rule:evenodd; clip-rule:evenodd" xmlns:xlink="http://www.w3.org/1999/xlink">
<g><path style="opacity:0.808" fill="#d6ebb9" d="M 270.5,3.5 C 251.3,4.18449 231.967,5.18449 212.5,6.5C 231.53,2.56531 250.863,1.56531 270.5,3.5 Z"/></g>
<g><path style="opacity:1" fill="#bce588" d="M 270.5,3.5 C 271.167,3.5 271.5,3.83333 271.5,4.5C 282.291,8.24065 293.625,9.90732 305.5,9.5C 305.611,10.1174 305.944,10.6174 306.5,11C 319.954,14.3199 332.954,18.4866 345.5,23.5C 345.281,24.675 345.614,25.675 346.5,26.5C 348.071,25.6906 349.738,25.3573 351.5,25.5C 351.5,26.5 351.5,27.5 351.5,28.5C 356.436,28.2644 360.436,30.0977 363.5,34C 368.928,35.8789 374.261,38.0455 379.5,40.5C 379.833,40.5 380.167,40.5 380.5,40.5C 380.75,41.9221 381.583,42.9221 383,43.5C 383.49,44.7932 383.657,46.1266 383.5,47.5C 385.527,47.3379 387.527,47.5045 389.5,48C 395.833,54.0088 402.833,59.3421 410.5,64C 411.297,67.604 413.297,70.2707 416.5,72C 414.9,73.9705 414.734,75.8038 416,77.5C 416.923,76.2412 417.757,74.9079 418.5,73.5C 421.925,74.751 422.258,76.4176 419.5,78.5C 416.566,80.4231 414.4,82.4231 413,84.5C 411.596,84.4907 410.43,83.9907 409.5,83C 402.833,82.8333 396.167,82.6667 389.5,82.5C 362.813,82.6066 336.48,83.6066 310.5,85.5C 309.5,86.1667 308.5,86.8333 307.5,87.5C 306.833,87.8333 306.167,88.1667 305.5,88.5C 304.668,122.664 304.168,156.998 304,191.5C 294.893,192.817 285.727,192.817 276.5,191.5C 276.167,190.833 275.833,190.167 275.5,189.5C 278.475,186.462 278.142,185.462 274.5,186.5C 272.501,185.492 270.834,184.159 269.5,182.5C 265.879,175.259 262.213,167.925 258.5,160.5C 259.09,159.201 260.09,158.368 261.5,158C 264.758,156.533 268.092,155.367 271.5,154.5C 273.967,154.245 275.967,153.245 277.5,151.5C 284.921,150.235 287.754,145.902 286,138.5C 281.427,127.025 276.594,115.692 271.5,104.5C 269.87,99.9194 267.87,95.5861 265.5,91.5C 261.169,80.6996 256.669,70.033 252,59.5C 246.193,51.5603 238.36,48.7269 228.5,51C 206.105,61.2486 183.439,70.7486 160.5,79.5C 158.512,79.1729 156.512,78.8396 154.5,78.5C 152.714,78.6962 151.381,79.5295 150.5,81C 151.167,81.3333 151.833,81.6667 152.5,82C 148.862,83.5047 145.195,83.8381 141.5,83C 142.357,83.6891 143.023,84.5224 143.5,85.5C 141.167,86.1667 138.833,86.8333 136.5,87.5C 133.429,91.4835 129.929,92.1502 126,89.5C 122.833,92 119.667,94.5 116.5,97C 115.748,97.6708 115.414,98.5041 115.5,99.5C 111.014,102.51 108.014,106.51 106.5,111.5C 105.204,115.369 105.204,119.369 106.5,123.5C 102.573,124.655 98.5734,125.488 94.5,126C 92.968,126.7 91.968,127.866 91.5,129.5C 83.6054,129.611 80.1054,133.611 81,141.5C 78.8239,141.988 76.9906,142.988 75.5,144.5C 76.325,145.386 77.325,145.719 78.5,145.5C 78.5,147.167 78.5,148.833 78.5,150.5C 72.0671,150.881 66.0671,152.715 60.5,156C 61.756,156.417 62.4226,157.25 62.5,158.5C 61.1667,159.833 59.8333,161.167 58.5,162.5C 56.8561,162.286 55.3561,162.62 54,163.5C 53.4444,161.405 52.9444,161.238 52.5,163C 52.6301,164.059 53.1301,164.892 54,165.5C 54.3333,171.5 54.6667,177.5 55,183.5C 57.949,186.95 59.1157,190.95 58.5,195.5C 51.8488,213.357 56.8488,226.857 73.5,236C 90.6859,240.136 103.186,234.303 111,218.5C 111.998,213.544 112.831,208.544 113.5,203.5C 122.286,201.376 129.619,197.043 135.5,190.5C 137.204,192.598 138.537,194.931 139.5,197.5C 140.089,210.316 140.756,222.982 141.5,235.5C 142.76,237.367 144.427,238.7 146.5,239.5C 157.654,240.495 168.988,240.828 180.5,240.5C 180.396,243.09 181.063,245.423 182.5,247.5C 182.471,249.029 181.804,250.196 180.5,251C 180.833,251.333 181.167,251.667 181.5,252C 172.331,254.099 162.997,255.099 153.5,255C 148.746,256.196 144.079,257.696 139.5,259.5C 139.5,260.833 139.5,262.167 139.5,263.5C 136.031,262.887 134.031,264.221 133.5,267.5C 132.127,267.343 130.793,267.51 129.5,268C 130.022,268.561 130.355,269.228 130.5,270C 129.115,271.597 128.449,273.43 128.5,275.5C 118.898,273.651 109.564,274.317 100.5,277.5C 99.0065,278.141 98.0065,279.141 97.5,280.5C 88,287.007 82.6667,296.007 81.5,307.5C 68.9752,309.177 60.8085,316.177 57,328.5C 56.461,331.529 55.7943,334.529 55,337.5C 54.3333,354.5 54.3333,371.5 55,388.5C 55.6355,389.966 56.4688,391.3 57.5,392.5C 184.832,393.667 312.165,393.833 439.5,393C 441.333,392.5 442.5,391.333 443,389.5C 443.667,346.167 443.667,302.833 443,259.5C 441.512,257.84 439.679,256.84 437.5,256.5C 426.628,256.158 415.961,255.158 405.5,253.5C 407.997,249.503 409.663,245.17 410.5,240.5C 419.506,240.666 428.506,240.5 437.5,240C 439.587,239.208 441.421,238.041 443,236.5C 443.667,208.833 443.667,181.167 443,153.5C 439.461,138.803 435.794,124.136 432,109.5C 429.92,103.668 427.087,98.3351 423.5,93.5C 422.871,90.6249 422.038,87.9583 421,85.5C 423.862,83.4677 426.696,83.801 429.5,86.5C 430.086,86.2907 430.586,85.9574 431,85.5C 433.747,89.3006 436.747,92.9672 440,96.5C 440.667,97.5 440.667,98.5 440,99.5C 439.346,98.3044 438.846,98.3044 438.5,99.5C 439.655,100.95 441.155,101.95 443,102.5C 442.464,104.447 442.798,106.447 444,108.5C 444.219,107.062 444.719,105.729 445.5,104.5C 449.1,107.278 451.267,110.945 452,115.5C 455.803,118.789 458.303,122.789 459.5,127.5C 460.5,127.5 461.5,127.5 462.5,127.5C 462.351,128.552 462.517,129.552 463,130.5C 465.774,133.758 468.274,137.091 470.5,140.5C 470.528,146.509 472.362,151.843 476,156.5C 477.421,163.307 479.755,169.64 483,175.5C 483.882,178.789 484.548,182.123 485,185.5C 486.75,187.257 487.916,189.257 488.5,191.5C 491.541,210.774 493.541,230.274 494.5,250C 493.666,260.502 492.833,271.002 492,281.5C 490.885,283 490.052,284.667 489.5,286.5C 490.938,289.083 490.604,291.417 488.5,293.5C 487.833,291.5 487.167,289.5 486.5,287.5C 486.354,295.489 486.021,303.489 485.5,311.5C 483.043,321.6 480.376,331.6 477.5,341.5C 476.309,345.904 474.809,350.238 473,354.5C 471.951,357.187 470.451,359.52 468.5,361.5C 464.53,366.084 461.03,371.084 458,376.5C 456.727,378.714 455.727,381.047 455,383.5C 453.644,384.38 452.144,384.714 450.5,384.5C 448.658,391.561 444.824,397.561 439,402.5C 438.506,404.134 438.34,405.801 438.5,407.5C 435.833,408.833 433.167,410.167 430.5,411.5C 430.5,412.5 430.5,413.5 430.5,414.5C 427.14,413.79 425.307,415.124 425,418.5C 424.667,418.167 424.333,417.833 424,417.5C 422.491,419.71 420.658,421.543 418.5,423C 419.022,423.561 419.355,424.228 419.5,425C 418.01,428.672 415.344,430.505 411.5,430.5C 410.336,433.187 408.503,435.52 406,437.5C 405.517,438.448 405.351,439.448 405.5,440.5C 405.167,440.5 404.833,440.5 404.5,440.5C 403.167,440.5 401.833,440.5 400.5,440.5C 400.5,441.5 400.5,442.5 400.5,443.5C 399.127,443.343 397.793,443.51 396.5,444C 394.491,446.96 392.158,449.46 389.5,451.5C 387.565,452.15 385.565,452.483 383.5,452.5C 383.5,453.5 383.5,454.5 383.5,455.5C 382.127,455.343 380.793,455.51 379.5,456C 374.465,460.518 368.798,464.018 362.5,466.5C 361.702,466.957 361.369,467.624 361.5,468.5C 358.856,468.16 356.523,468.827 354.5,470.5C 352.38,469.128 351.38,469.795 351.5,472.5C 349.801,472.34 348.134,472.506 346.5,473C 341.674,476.405 336.674,479.239 331.5,481.5C 322.636,485.387 313.302,488.053 303.5,489.5C 292.968,489.736 282.634,490.903 272.5,493C 271.944,493.383 271.611,493.883 271.5,494.5C 259.162,494.667 246.829,494.5 234.5,494C 224.575,492.563 214.575,491.729 204.5,491.5C 204.167,491.5 203.833,491.5 203.5,491.5C 202.106,489.292 200.106,487.792 197.5,487C 187.643,484.362 177.643,482.529 167.5,481.5C 161.526,478.014 155.192,475.347 148.5,473.5C 143.078,470.065 137.411,466.899 131.5,464C 130.207,463.51 128.873,463.343 127.5,463.5C 115.173,457.523 104.173,449.856 94.5,440.5C 90.7313,435.468 86.398,430.968 81.5,427C 80.2068,426.51 78.8734,426.343 77.5,426.5C 75.7935,425.127 74.4602,423.461 73.5,421.5C 71.5221,418.667 69.6888,415.667 68,412.5C 65.4811,410.69 62.9811,409.023 60.5,407.5C 58.7935,406.127 57.4602,404.461 56.5,402.5C 56.6602,400.801 56.4935,399.134 56,397.5C 48.1709,391.648 44.0042,384.148 43.5,375C 42.5,373.5 41.5,372 40.5,370.5C 39.2322,371.428 37.8989,371.595 36.5,371C 35.7362,368.931 35.2362,366.764 35,364.5C 33.8904,362.963 32.3904,362.297 30.5,362.5C 29.6621,359.314 28.6621,356.147 27.5,353C 27.1639,351.97 26.4972,351.47 25.5,351.5C 25.5,351.167 25.5,350.833 25.5,350.5C 24.7795,346.311 23.1128,342.645 20.5,339.5C 19.9552,336.187 19.4552,332.854 19,329.5C 18.3333,328.833 17.6667,328.167 17,327.5C 14.4124,319.881 12.0791,312.215 10,304.5C 9.0521,290.737 7.38544,277.07 5,263.5C 4.33333,254.167 4.33333,244.833 5,235.5C 7.56773,220.997 9.40107,206.33 10.5,191.5C 11.9311,191.119 12.7645,190.119 13,188.5C 15.4457,174.694 20.4457,162.027 28,150.5C 27.957,142.903 30.957,136.903 37,132.5C 38.3646,126.096 40.5313,120.096 43.5,114.5C 45.2292,113.883 46.7292,112.883 48,111.5C 50.4054,107.109 53.4054,103.109 57,99.5C 57.3519,97.7525 57.8519,96.0858 58.5,94.5C 63.2659,89.8376 67.9326,85.0043 72.5,80C 74.2983,78.4947 76.1316,78.3281 78,79.5C 79.756,78.5787 79.9227,77.412 78.5,76C 78.8623,74.7753 79.3623,73.6086 80,72.5C 83.1117,69.8991 85.6117,66.8991 87.5,63.5C 89.1992,63.6602 90.8659,63.4935 92.5,63C 94.5,60.6667 96.5,58.3333 98.5,56C 104.046,53.9072 108.379,50.4072 111.5,45.5C 116.489,41.6692 121.822,38.3359 127.5,35.5C 133.703,34.3985 139.036,31.7319 143.5,27.5C 153.404,21.6344 164.07,17.3011 175.5,14.5C 187.98,11.994 200.314,9.32734 212.5,6.5C 231.967,5.18449 251.3,4.18449 270.5,3.5 Z"/></g>
<g><path style="opacity:0.929" fill="#d4e9b4" d="M 212.5,6.5 C 200.314,9.32734 187.98,11.994 175.5,14.5C 187.27,9.81281 199.603,7.14614 212.5,6.5 Z"/></g>
<g><path style="opacity:0.998" fill="#cee6aa" d="M 271.5,4.5 C 283.12,5.03318 294.453,6.69985 305.5,9.5C 293.625,9.90732 282.291,8.24065 271.5,4.5 Z"/></g>
<g><path style="opacity:0.961" fill="#d2e8b2" d="M 305.5,9.5 C 321.713,12.6805 337.047,18.0138 351.5,25.5C 349.738,25.3573 348.071,25.6906 346.5,26.5C 345.614,25.675 345.281,24.675 345.5,23.5C 332.954,18.4866 319.954,14.3199 306.5,11C 305.944,10.6174 305.611,10.1174 305.5,9.5 Z"/></g>
<g><path style="opacity:0.918" fill="#cfe6ab" d="M 143.5,27.5 C 139.036,31.7319 133.703,34.3985 127.5,35.5C 132.247,31.7929 137.581,29.1263 143.5,27.5 Z"/></g>
<g><path style="opacity:0.996" fill="#d0e7ae" d="M 351.5,25.5 C 361.721,28.9424 371.054,33.9424 379.5,40.5C 374.261,38.0455 368.928,35.8789 363.5,34C 360.436,30.0977 356.436,28.2644 351.5,28.5C 351.5,27.5 351.5,26.5 351.5,25.5 Z"/></g>
<g><path style="opacity:0.996" fill="#cee6aa" d="M 111.5,45.5 C 108.379,50.4072 104.046,53.9072 98.5,56C 96.5,58.3333 94.5,60.6667 92.5,63C 90.8659,63.4935 89.1992,63.6602 87.5,63.5C 94.7758,56.5294 102.776,50.5294 111.5,45.5 Z"/></g>
<g><path style="opacity:1" fill="#040602" d="M 265.5,91.5 C 266.538,95.1181 267.705,98.7847 269,102.5C 269.417,103.756 270.25,104.423 271.5,104.5C 276.594,115.692 281.427,127.025 286,138.5C 287.754,145.902 284.921,150.235 277.5,151.5C 275.033,151.755 273.033,152.755 271.5,154.5C 268.092,155.367 264.758,156.533 261.5,158C 260.09,158.368 259.09,159.201 258.5,160.5C 262.213,167.925 265.879,175.259 269.5,182.5C 270.796,185.771 272.129,189.105 273.5,192.5C 284.146,193.499 294.813,193.832 305.5,193.5C 306.179,158.294 306.846,122.961 307.5,87.5C 308.5,86.8333 309.5,86.1667 310.5,85.5C 343.835,85.3333 377.168,85.5 410.5,86C 415.448,87.4782 419.781,89.9782 423.5,93.5C 427.087,98.3351 429.92,103.668 432,109.5C 435.794,124.136 439.461,138.803 443,153.5C 443.667,181.167 443.667,208.833 443,236.5C 441.421,238.041 439.587,239.208 437.5,240C 428.506,240.5 419.506,240.666 410.5,240.5C 409.663,245.17 407.997,249.503 405.5,253.5C 404.522,253.811 403.855,254.478 403.5,255.5C 414.814,256.499 426.147,256.832 437.5,256.5C 439.679,256.84 441.512,257.84 443,259.5C 443.667,302.833 443.667,346.167 443,389.5C 442.5,391.333 441.333,392.5 439.5,393C 312.165,393.833 184.832,393.667 57.5,392.5C 56.4688,391.3 55.6355,389.966 55,388.5C 54.3333,371.5 54.3333,354.5 55,337.5C 55.7943,334.529 56.461,331.529 57,328.5C 60.8085,316.177 68.9752,309.177 81.5,307.5C 82.6667,296.007 88,287.007 97.5,280.5C 100.965,278.771 104.631,277.605 108.5,277C 115.196,276.559 121.863,276.559 128.5,277C 130.926,271.415 134.593,266.915 139.5,263.5C 144.111,259.738 149.445,257.738 155.5,257.5C 166.998,257.035 178.331,256.369 189.5,255.5C 187.167,250.833 184.833,246.167 182.5,241.5C 170.88,239.521 158.88,238.854 146.5,239.5C 144.427,238.7 142.76,237.367 141.5,235.5C 141.667,223.495 141.5,211.495 141,199.5C 140.722,198.584 140.222,197.918 139.5,197.5C 138.537,194.931 137.204,192.598 135.5,190.5C 129.619,197.043 122.286,201.376 113.5,203.5C 112.831,208.544 111.998,213.544 111,218.5C 103.186,234.303 90.6859,240.136 73.5,236C 56.8488,226.857 51.8488,213.357 58.5,195.5C 59.4793,194.235 60.4793,192.901 61.5,191.5C 55.1535,182.394 54.1535,172.727 58.5,162.5C 59.8333,161.167 61.1667,159.833 62.5,158.5C 67.0154,153.416 72.682,151.416 79.5,152.5C 82.3078,136.019 91.9745,127.352 108.5,126.5C 106.961,121.654 106.294,116.654 106.5,111.5C 108.014,106.51 111.014,102.51 115.5,99.5C 130.722,93.0496 145.722,86.3829 160.5,79.5C 183.439,70.7486 206.105,61.2486 228.5,51C 238.36,48.7269 246.193,51.5603 252,59.5C 256.669,70.033 261.169,80.6996 265.5,91.5 Z"/></g>
<g><path style="opacity:1" fill="#9db57c" d="M 241.5,66.5 C 239.669,65.0051 237.502,64.3384 235,64.5C 230.797,66.4671 226.297,67.8004 221.5,68.5C 225.877,65.9264 230.544,63.9264 235.5,62.5C 238.622,62.38 240.622,63.7133 241.5,66.5 Z"/></g>
<g><path style="opacity:1" fill="#cae6a1" d="M 380.5,40.5 C 399.601,52.262 416.601,66.5953 431.5,83.5C 427.736,81.3299 423.736,79.6633 419.5,78.5C 422.258,76.4176 421.925,74.751 418.5,73.5C 417.757,74.9079 416.923,76.2412 416,77.5C 414.734,75.8038 414.9,73.9705 416.5,72C 413.297,70.2707 411.297,67.604 410.5,64C 402.833,59.3421 395.833,54.0088 389.5,48C 387.527,47.5045 385.527,47.3379 383.5,47.5C 383.657,46.1266 383.49,44.7932 383,43.5C 381.583,42.9221 380.75,41.9221 380.5,40.5 Z"/></g>
<g><path style="opacity:1" fill="#b8d98b" d="M 160.5,79.5 C 145.722,86.3829 130.722,93.0496 115.5,99.5C 115.414,98.5041 115.748,97.6708 116.5,97C 119.667,94.5 122.833,92 126,89.5C 129.929,92.1502 133.429,91.4835 136.5,87.5C 138.833,86.8333 141.167,86.1667 143.5,85.5C 143.023,84.5224 142.357,83.6891 141.5,83C 145.195,83.8381 148.862,83.5047 152.5,82C 151.833,81.6667 151.167,81.3333 150.5,81C 151.381,79.5295 152.714,78.6962 154.5,78.5C 156.512,78.8396 158.512,79.1729 160.5,79.5 Z"/></g>
<g><path style="opacity:1" fill="#b0cf84" d="M 419.5,78.5 C 423.736,79.6633 427.736,81.3299 431.5,83.5C 447.733,100.303 460.733,119.303 470.5,140.5C 468.274,137.091 465.774,133.758 463,130.5C 462.517,129.552 462.351,128.552 462.5,127.5C 461.5,127.5 460.5,127.5 459.5,127.5C 458.303,122.789 455.803,118.789 452,115.5C 451.267,110.945 449.1,107.278 445.5,104.5C 444.719,105.729 444.219,107.062 444,108.5C 442.798,106.447 442.464,104.447 443,102.5C 441.155,101.95 439.655,100.95 438.5,99.5C 438.846,98.3044 439.346,98.3044 440,99.5C 440.667,98.5 440.667,97.5 440,96.5C 436.747,92.9672 433.747,89.3006 431,85.5C 430.586,85.9574 430.086,86.2907 429.5,86.5C 426.696,83.801 423.862,83.4677 421,85.5C 422.038,87.9583 422.871,90.6249 423.5,93.5C 419.781,89.9782 415.448,87.4782 410.5,86C 377.168,85.5 343.835,85.3333 310.5,85.5C 336.48,83.6066 362.813,82.6066 389.5,82.5C 396.167,82.6667 402.833,82.8333 409.5,83C 410.43,83.9907 411.596,84.4907 413,84.5C 414.4,82.4231 416.566,80.4231 419.5,78.5 Z"/></g>
<g><path style="opacity:0.643" fill="#d2eab1" d="M 87.5,63.5 C 85.6117,66.8991 83.1117,69.8991 80,72.5C 79.3623,73.6086 78.8623,74.7753 78.5,76C 79.9227,77.412 79.756,78.5787 78,79.5C 76.1316,78.3281 74.2983,78.4947 72.5,80C 67.9326,85.0043 63.2659,89.8376 58.5,94.5C 66.734,82.9292 76.4006,72.5958 87.5,63.5 Z"/></g>
<g><path style="opacity:1" fill="#a5c17e" d="M 172.5,89.5 C 172.5,90.5 172.5,91.5 172.5,92.5C 166.833,93.8333 161.167,95.1667 155.5,96.5C 160.848,93.6004 166.515,91.2671 172.5,89.5 Z"/></g>
<g><path style="opacity:1" fill="#1f2b14" d="M 265.5,91.5 C 267.87,95.5861 269.87,99.9194 271.5,104.5C 270.25,104.423 269.417,103.756 269,102.5C 267.705,98.7847 266.538,95.1181 265.5,91.5 Z"/></g>
<g><path style="opacity:1" fill="#b1d185" d="M 241.5,66.5 C 249.741,84.5473 257.408,102.881 264.5,121.5C 262.394,120.434 260.894,118.767 260,116.5C 258.546,112.252 257.212,107.919 256,103.5C 254.488,102.743 253.154,101.743 252,100.5C 251.667,97.5 251.333,94.5 251,91.5C 249.865,91.273 248.698,90.9396 247.5,90.5C 248.246,89.2638 248.579,87.9305 248.5,86.5C 247.5,86.5 246.5,86.5 245.5,86.5C 245.5,84.1667 245.5,81.8333 245.5,79.5C 244.5,79.5 243.5,79.5 242.5,79.5C 243.174,74.5335 241.84,70.2001 238.5,66.5C 235.087,64.9148 232.087,65.4148 229.5,68C 224.895,69.4847 220.228,70.6513 215.5,71.5C 217.033,69.7549 219.033,68.7549 221.5,68.5C 226.297,67.8004 230.797,66.4671 235,64.5C 237.502,64.3384 239.669,65.0051 241.5,66.5 Z"/></g>
<g><path style="opacity:1" fill="#6e8156" d="M 307.5,87.5 C 306.846,122.961 306.179,158.294 305.5,193.5C 305.5,158.5 305.5,123.5 305.5,88.5C 306.167,88.1667 306.833,87.8333 307.5,87.5 Z"/></g>
<g><path style="opacity:1" fill="#bbe388" d="M 264.5,121.5 C 265.447,127.256 267.114,132.756 269.5,138C 265.333,140.293 261,142.459 256.5,144.5C 255.702,144.957 255.369,145.624 255.5,146.5C 220.62,161.773 185.62,176.773 150.5,191.5C 141.402,167.372 131.235,143.706 120,120.5C 118.996,117.007 119.496,113.841 121.5,111C 132.699,105.902 144.032,101.069 155.5,96.5C 161.167,95.1667 166.833,93.8333 172.5,92.5C 172.5,91.5 172.5,90.5 172.5,89.5C 186.254,82.3527 200.587,76.3527 215.5,71.5C 220.228,70.6513 224.895,69.4847 229.5,68C 232.087,65.4148 235.087,64.9148 238.5,66.5C 241.84,70.2001 243.174,74.5335 242.5,79.5C 243.5,79.5 244.5,79.5 245.5,79.5C 245.5,81.8333 245.5,84.1667 245.5,86.5C 246.5,86.5 247.5,86.5 248.5,86.5C 248.579,87.9305 248.246,89.2638 247.5,90.5C 248.698,90.9396 249.865,91.273 251,91.5C 251.333,94.5 251.667,97.5 252,100.5C 253.154,101.743 254.488,102.743 256,103.5C 257.212,107.919 258.546,112.252 260,116.5C 260.894,118.767 262.394,120.434 264.5,121.5 Z"/></g>
<g><path style="opacity:1" fill="#060904" d="M 215.5,91.5 C 224.936,90.5295 227.603,94.3628 223.5,103C 201.453,112.685 179.287,122.185 157,131.5C 149.938,128.954 148.772,124.787 153.5,119C 174.264,109.918 194.931,100.751 215.5,91.5 Z"/></g>
<g><path style="opacity:1" fill="#cfe7ab" d="M 58.5,94.5 C 57.8519,96.0858 57.3519,97.7525 57,99.5C 53.4054,103.109 50.4054,107.109 48,111.5C 46.7292,112.883 45.2292,113.883 43.5,114.5C 47.4089,106.937 52.4089,100.27 58.5,94.5 Z"/></g>
<g><path style="opacity:1" fill="#bce588" d="M 417.5,109.5 C 418.935,111.598 420.102,113.931 421,116.5C 421.855,121.525 422.688,126.525 423.5,131.5C 423.701,136.907 424.368,142.24 425.5,147.5C 426.038,149.117 426.371,150.784 426.5,152.5C 406.5,152.5 386.5,152.5 366.5,152.5C 366.175,135.256 366.508,118.09 367.5,101C 380.833,100.333 394.167,100.333 407.5,101C 411.319,103.323 414.652,106.156 417.5,109.5 Z"/></g>
<g><path style="opacity:1" fill="#bad991" d="M 351.5,163.5 C 350.503,142.673 350.169,121.673 350.5,100.5C 340.5,100.5 330.5,100.5 320.5,100.5C 320.5,142.167 320.5,183.833 320.5,225.5C 325.833,225.5 331.167,225.5 336.5,225.5C 336.778,221.268 337.944,217.268 340,213.5C 340.417,212.244 341.25,211.577 342.5,211.5C 340.683,216.441 339.349,221.441 338.5,226.5C 332.167,226.5 325.833,226.5 319.5,226.5C 319.5,183.833 319.5,141.167 319.5,98.5C 330.167,98.5 340.833,98.5 351.5,98.5C 351.5,120.167 351.5,141.833 351.5,163.5 Z"/></g>
<g><path style="opacity:1" fill="#bce588" d="M 351.5,163.5 C 353.264,164.326 354.598,165.659 355.5,167.5C 380.328,168.498 405.328,168.831 430.5,168.5C 430.5,174.167 430.5,179.833 430.5,185.5C 425.056,184.892 420.056,185.558 415.5,187.5C 415.5,187.833 415.5,188.167 415.5,188.5C 414.883,188.611 414.383,188.944 414,189.5C 413.503,191.81 413.337,194.143 413.5,196.5C 413.539,197.583 413.873,198.583 414.5,199.5C 419.792,200.495 425.125,200.828 430.5,200.5C 430.5,208.833 430.5,217.167 430.5,225.5C 424.833,225.5 419.167,225.5 413.5,225.5C 413.66,223.801 413.494,222.134 413,220.5C 412.583,219.244 411.75,218.577 410.5,218.5C 407.821,212.471 404.154,207.138 399.5,202.5C 398.049,198.999 395.716,196.165 392.5,194C 382.5,193.333 372.5,193.333 362.5,194C 355.41,196.533 349.41,200.533 344.5,206C 343.852,207.44 343.519,208.94 343.5,210.5C 343.5,211.167 343.167,211.5 342.5,211.5C 341.25,211.577 340.417,212.244 340,213.5C 337.944,217.268 336.778,221.268 336.5,225.5C 331.167,225.5 325.833,225.5 320.5,225.5C 320.5,183.833 320.5,142.167 320.5,100.5C 330.5,100.5 340.5,100.5 350.5,100.5C 350.169,121.673 350.503,142.673 351.5,163.5 Z"/></g>
<g><path style="opacity:1" fill="#bdde91" d="M 365.5,98.5 C 379.504,98.3334 393.504,98.5001 407.5,99C 412.402,101.067 415.736,104.567 417.5,109.5C 414.652,106.156 411.319,103.323 407.5,101C 394.167,100.333 380.833,100.333 367.5,101C 366.508,118.09 366.175,135.256 366.5,152.5C 386.5,152.5 406.5,152.5 426.5,152.5C 426.371,150.784 426.038,149.117 425.5,147.5C 427.28,148.99 427.946,150.99 427.5,153.5C 406.833,153.5 386.167,153.5 365.5,153.5C 365.5,135.167 365.5,116.833 365.5,98.5 Z"/></g>
<g><path style="opacity:1" fill="#070b04" d="M 229.5,121.5 C 239.364,121.155 241.698,124.988 236.5,133C 216.16,142.012 195.827,151.012 175.5,160C 170.867,162.607 167.033,161.774 164,157.5C 163.218,154.743 163.718,152.243 165.5,150C 187.072,140.707 208.405,131.207 229.5,121.5 Z"/></g>
<g><path style="opacity:1" fill="#b3d288" d="M 106.5,111.5 C 106.294,116.654 106.961,121.654 108.5,126.5C 91.9745,127.352 82.3078,136.019 79.5,152.5C 72.682,151.416 67.0154,153.416 62.5,158.5C 62.4226,157.25 61.756,156.417 60.5,156C 66.0671,152.715 72.0671,150.881 78.5,150.5C 78.5,148.833 78.5,147.167 78.5,145.5C 77.325,145.719 76.325,145.386 75.5,144.5C 76.9906,142.988 78.8239,141.988 81,141.5C 80.1054,133.611 83.6054,129.611 91.5,129.5C 91.968,127.866 92.968,126.7 94.5,126C 98.5734,125.488 102.573,124.655 106.5,123.5C 105.204,119.369 105.204,115.369 106.5,111.5 Z"/></g>
<g><path style="opacity:1" fill="#aecb87" d="M 264.5,121.5 C 268.108,127.036 270.275,133.036 271,139.5C 266.036,142.32 260.869,144.653 255.5,146.5C 255.369,145.624 255.702,144.957 256.5,144.5C 261,142.459 265.333,140.293 269.5,138C 267.114,132.756 265.447,127.256 264.5,121.5 Z"/></g>
<g><path style="opacity:1" fill="#5c7042" d="M 111.5,140.5 C 108.615,140.194 105.948,140.527 103.5,141.5C 102.833,141.5 102.167,141.5 101.5,141.5C 101.611,140.883 101.944,140.383 102.5,140C 105.696,139.195 108.696,139.362 111.5,140.5 Z"/></g>
<g><path style="opacity:1" fill="#768c59" d="M 277.5,151.5 C 275.967,153.245 273.967,154.245 271.5,154.5C 273.033,152.755 275.033,151.755 277.5,151.5 Z"/></g>
<g><path style="opacity:1" fill="#a4bc83" d="M 365.5,98.5 C 365.5,116.833 365.5,135.167 365.5,153.5C 386.167,153.5 406.833,153.5 427.5,153.5C 427.946,150.99 427.28,148.99 425.5,147.5C 424.368,142.24 423.701,136.907 423.5,131.5C 425.784,138.623 427.784,145.956 429.5,153.5C 407.844,154.5 386.177,154.833 364.5,154.5C 364.17,135.659 364.503,116.993 365.5,98.5 Z"/></g>
<g><path style="opacity:1" fill="#c9e5a1" d="M 43.5,114.5 C 40.5313,120.096 38.3646,126.096 37,132.5C 30.957,136.903 27.957,142.903 28,150.5C 20.4457,162.027 15.4457,174.694 13,188.5C 12.7645,190.119 11.9311,191.119 10.5,191.5C 15.2222,170.072 22.7222,149.738 33,130.5C 36.2751,124.93 39.7751,119.597 43.5,114.5 Z"/></g>
<g><path style="opacity:1" fill="#cce5a8" d="M 470.5,140.5 C 479.08,156.426 485.08,173.426 488.5,191.5C 487.916,189.257 486.75,187.257 485,185.5C 484.548,182.123 483.882,178.789 483,175.5C 479.755,169.64 477.421,163.307 476,156.5C 472.362,151.843 470.528,146.509 470.5,140.5 Z"/></g>
<g><path style="opacity:1" fill="#a6c181" d="M 355.5,167.5 C 380.833,167.5 406.167,167.5 431.5,167.5C 431.823,174.022 431.49,180.355 430.5,186.5C 425.405,186.221 420.405,186.555 415.5,187.5C 420.056,185.558 425.056,184.892 430.5,185.5C 430.5,179.833 430.5,174.167 430.5,168.5C 405.328,168.831 380.328,168.498 355.5,167.5 Z"/></g>
<g><path style="opacity:1" fill="#b4d587" d="M 103.5,141.5 C 105.948,140.527 108.615,140.194 111.5,140.5C 113.583,141.029 115.417,142.029 117,143.5C 121.347,153.53 125.514,163.696 129.5,174C 129.141,176.296 128.141,178.129 126.5,179.5C 125.805,174.386 124.638,169.386 123,164.5C 121.833,163 120.667,161.5 119.5,160C 120.022,159.439 120.355,158.772 120.5,158C 118.109,153.323 116.442,148.49 115.5,143.5C 111.557,142.514 107.557,141.848 103.5,141.5 Z"/></g>
<g><path style="opacity:1" fill="#b4d589" d="M 101.5,141.5 C 100.833,143.5 100.167,145.5 99.5,147.5C 97.4078,147.561 95.9078,148.561 95,150.5C 94.502,153.482 94.3354,156.482 94.5,159.5C 95.552,159.351 96.552,159.517 97.5,160C 95.8415,163.166 94.1748,166.332 92.5,169.5C 88.4893,170.227 84.4893,170.893 80.5,171.5C 79.5713,170.311 79.238,168.978 79.5,167.5C 71.9036,168.455 68.9036,172.788 70.5,180.5C 66.0232,172.158 68.5232,167.158 78,165.5C 81.2958,166.063 84.4624,167.063 87.5,168.5C 91.4007,168.099 93.4007,165.932 93.5,162C 90.0878,152.598 92.7545,145.764 101.5,141.5 Z"/></g>
<g><path style="opacity:1" fill="#bbe487" d="M 101.5,141.5 C 102.167,141.5 102.833,141.5 103.5,141.5C 107.557,141.848 111.557,142.514 115.5,143.5C 116.442,148.49 118.109,153.323 120.5,158C 120.355,158.772 120.022,159.439 119.5,160C 120.667,161.5 121.833,163 123,164.5C 124.638,169.386 125.805,174.386 126.5,179.5C 125.415,183.754 122.748,186.587 118.5,188C 113.181,190.57 107.681,191.07 102,189.5C 98.265,189.736 96.4317,191.736 96.5,195.5C 98.2035,199.437 99.2035,203.603 99.5,208C 99.5257,218.309 94.359,223.809 84,224.5C 78.9956,224.418 75.1622,222.418 72.5,218.5C 70.7944,213.647 70.2944,208.647 71,203.5C 73.1444,201.081 75.6444,199.414 78.5,198.5C 78.665,195.15 78.4983,191.817 78,188.5C 77.5776,186.574 76.4109,185.574 74.5,185.5C 72.0029,184.871 70.6696,183.204 70.5,180.5C 68.9036,172.788 71.9036,168.455 79.5,167.5C 79.238,168.978 79.5713,170.311 80.5,171.5C 84.4893,170.893 88.4893,170.227 92.5,169.5C 94.1748,166.332 95.8415,163.166 97.5,160C 96.552,159.517 95.552,159.351 94.5,159.5C 94.3354,156.482 94.502,153.482 95,150.5C 95.9078,148.561 97.4078,147.561 99.5,147.5C 100.167,145.5 100.833,143.5 101.5,141.5 Z"/></g>
<g><path style="opacity:1" fill="#bde587" d="M 256.5,186.5 C 256.5,188.5 256.5,190.5 256.5,192.5C 235.156,192.833 213.823,192.5 192.5,191.5C 195.075,189.287 197.908,188.954 201,190.5C 203.333,189.5 205.667,188.5 208,187.5C 209.333,188.167 210.667,188.833 212,189.5C 212.5,189.167 213,188.833 213.5,188.5C 211.564,186.522 209.23,185.189 206.5,184.5C 206.709,183.914 207.043,183.414 207.5,183C 209.81,182.503 212.143,182.337 214.5,182.5C 214.721,180.336 215.721,178.67 217.5,177.5C 221.49,177.001 225.49,176.501 229.5,176C 233.524,171.239 238.691,168.739 245,168.5C 246.653,168.82 247.653,169.82 248,171.5C 247.774,178.394 250.608,183.394 256.5,186.5 Z"/></g>
<g><path style="opacity:1" fill="#afcd89" d="M 58.5,162.5 C 54.1535,172.727 55.1535,182.394 61.5,191.5C 60.4793,192.901 59.4793,194.235 58.5,195.5C 59.1157,190.95 57.949,186.95 55,183.5C 54.6667,177.5 54.3333,171.5 54,165.5C 53.1301,164.892 52.6301,164.059 52.5,163C 52.9444,161.238 53.4444,161.405 54,163.5C 55.3561,162.62 56.8561,162.286 58.5,162.5 Z"/></g>
<g><path style="opacity:1" fill="#aecc84" d="M 256.5,186.5 C 250.608,183.394 247.774,178.394 248,171.5C 247.653,169.82 246.653,168.82 245,168.5C 238.691,168.739 233.524,171.239 229.5,176C 225.49,176.501 221.49,177.001 217.5,177.5C 226.507,173.004 235.84,169.004 245.5,165.5C 246.167,165.833 246.833,166.167 247.5,166.5C 251.044,172.921 254.044,179.587 256.5,186.5 Z"/></g>
<g><path style="opacity:1" fill="#142507" d="M 430.5,186.5 C 425.637,187.266 420.637,187.932 415.5,188.5C 415.5,188.167 415.5,187.833 415.5,187.5C 420.405,186.555 425.405,186.221 430.5,186.5 Z"/></g>
<g><path style="opacity:1" fill="#badc8d" d="M 217.5,177.5 C 215.721,178.67 214.721,180.336 214.5,182.5C 212.143,182.337 209.81,182.503 207.5,183C 207.043,183.414 206.709,183.914 206.5,184.5C 209.23,185.189 211.564,186.522 213.5,188.5C 213,188.833 212.5,189.167 212,189.5C 210.667,188.833 209.333,188.167 208,187.5C 205.667,188.5 203.333,189.5 201,190.5C 197.908,188.954 195.075,189.287 192.5,191.5C 213.823,192.5 235.156,192.833 256.5,192.5C 256.5,190.5 256.5,188.5 256.5,186.5C 257.931,187.78 258.598,189.447 258.5,191.5C 246.185,192.832 233.518,193.499 220.5,193.5C 207.662,193.5 194.996,193.167 182.5,192.5C 194.068,187.309 205.735,182.309 217.5,177.5 Z"/></g>
<g><path style="opacity:1" fill="#bcdc92" d="M 305.5,88.5 C 305.5,123.5 305.5,158.5 305.5,193.5C 294.813,193.832 284.146,193.499 273.5,192.5C 272.129,189.105 270.796,185.771 269.5,182.5C 270.834,184.159 272.501,185.492 274.5,186.5C 278.142,185.462 278.475,186.462 275.5,189.5C 275.833,190.167 276.167,190.833 276.5,191.5C 285.727,192.817 294.893,192.817 304,191.5C 304.168,156.998 304.668,122.664 305.5,88.5 Z"/></g>
<g><path style="opacity:1" fill="#708458" d="M 258.5,191.5 C 259.404,192.209 259.737,193.209 259.5,194.5C 232.831,194.667 206.165,194.5 179.5,194C 180.244,192.961 181.244,192.461 182.5,192.5C 194.996,193.167 207.662,193.5 220.5,193.5C 233.518,193.499 246.185,192.832 258.5,191.5 Z"/></g>
<g><path style="opacity:1" fill="#b4d28b" d="M 399.5,202.5 C 394.832,199.499 389.832,196.999 384.5,195C 367.298,191.283 353.632,196.45 343.5,210.5C 343.519,208.94 343.852,207.44 344.5,206C 349.41,200.533 355.41,196.533 362.5,194C 372.5,193.333 382.5,193.333 392.5,194C 395.716,196.165 398.049,198.999 399.5,202.5 Z"/></g>
<g><path style="opacity:1" fill="#b4d28a" d="M 74.5,185.5 C 76.4109,185.574 77.5776,186.574 78,188.5C 78.4983,191.817 78.665,195.15 78.5,198.5C 75.6444,199.414 73.1444,201.081 71,203.5C 70.2944,208.647 70.7944,213.647 72.5,218.5C 67.815,212.645 67.315,206.312 71,199.5C 72.8153,197.595 74.8153,195.928 77,194.5C 77.8693,191.007 77.036,188.007 74.5,185.5 Z"/></g>
<g><path style="opacity:1" fill="#748659" d="M 187.5,210.5 C 187.5,209.5 187.5,208.5 187.5,207.5C 176.833,207.5 166.167,207.5 155.5,207.5C 155.5,213.833 155.5,220.167 155.5,226.5C 164.167,226.5 172.833,226.5 181.5,226.5C 172.682,227.493 163.682,227.827 154.5,227.5C 154.5,220.5 154.5,213.5 154.5,206.5C 166.518,206.168 178.518,206.501 190.5,207.5C 189.812,208.855 188.812,209.855 187.5,210.5 Z"/></g>
<g><path style="opacity:1" fill="#697d50" d="M 255.5,226.5 C 272.167,226.5 288.833,226.5 305.5,226.5C 305.5,220.167 305.5,213.833 305.5,207.5C 286.326,207.17 267.326,207.503 248.5,208.5C 247.957,208.44 247.624,208.107 247.5,207.5C 267.155,206.5 286.822,206.167 306.5,206.5C 306.5,213.5 306.5,220.5 306.5,227.5C 289.325,227.83 272.325,227.497 255.5,226.5 Z"/></g>
<g><path style="opacity:1" fill="#bcdc93" d="M 255.5,226.5 C 255.5,225.5 255.5,224.5 255.5,223.5C 263.434,224.802 271.601,225.469 280,225.5C 287.833,225.167 295.667,224.833 303.5,224.5C 304.451,219.23 304.785,213.897 304.5,208.5C 285.992,208.17 267.659,208.503 249.5,209.5C 248.833,209.5 248.5,209.167 248.5,208.5C 267.326,207.503 286.326,207.17 305.5,207.5C 305.5,213.833 305.5,220.167 305.5,226.5C 288.833,226.5 272.167,226.5 255.5,226.5 Z"/></g>
<g><path style="opacity:1" fill="#92aa70" d="M 139.5,197.5 C 140.222,197.918 140.722,198.584 141,199.5C 141.5,211.495 141.667,223.495 141.5,235.5C 140.756,222.982 140.089,210.316 139.5,197.5 Z"/></g>
<g><path style="opacity:1" fill="#bce489" d="M 187.5,210.5 C 184.515,215.453 182.515,220.786 181.5,226.5C 172.833,226.5 164.167,226.5 155.5,226.5C 155.5,220.167 155.5,213.833 155.5,207.5C 166.167,207.5 176.833,207.5 187.5,207.5C 187.5,208.5 187.5,209.5 187.5,210.5 Z"/></g>
<g><path style="opacity:1" fill="#bce588" d="M 255.5,223.5 C 254.401,218.424 252.401,213.757 249.5,209.5C 267.659,208.503 285.992,208.17 304.5,208.5C 304.785,213.897 304.451,219.23 303.5,224.5C 295.667,224.833 287.833,225.167 280,225.5C 271.601,225.469 263.434,224.802 255.5,223.5 Z"/></g>
<g><path style="opacity:1" fill="#849e69" d="M 379.5,207.5 C 376.482,207.335 373.482,207.502 370.5,208C 368.061,209.61 365.394,210.444 362.5,210.5C 364.121,208.883 366.121,207.716 368.5,207C 372.358,206.19 376.024,206.357 379.5,207.5 Z"/></g>
<g><path style="opacity:1" fill="#b9df88" d="M 226.5,254.5 C 224.833,254.5 223.167,254.5 221.5,254.5C 220.402,253.603 220.402,252.77 221.5,252C 220.692,251.692 220.025,251.192 219.5,250.5C 221.743,249.526 224.076,249.192 226.5,249.5C 226.731,246.215 225.397,243.715 222.5,242C 217.371,239.07 212.037,237.403 206.5,237C 204.211,233.594 204.044,230.094 206,226.5C 209.982,225.086 209.815,223.252 205.5,221C 209.114,221.034 211.447,219.367 212.5,216C 216.587,215.471 219.254,213.304 220.5,209.5C 218.926,208.369 217.259,208.202 215.5,209C 213.438,212.782 210.438,214.116 206.5,213C 204.887,215.277 202.72,216.777 200,217.5C 199.246,220.639 198.246,223.639 197,226.5C 196.501,230.152 196.335,233.818 196.5,237.5C 198.124,237.64 199.29,236.973 200,235.5C 201.746,237.843 201.579,239.843 199.5,241.5C 200.455,245.1 202.455,247.933 205.5,250C 208.623,250.206 211.623,250.873 214.5,252C 215.252,252.671 215.586,253.504 215.5,254.5C 212.545,252.614 209.211,251.614 205.5,251.5C 200.963,249.139 197.796,245.473 196,240.5C 191.456,224.421 196.956,213.254 212.5,207C 227.442,205.384 237.609,211.551 243,225.5C 244.588,234.151 242.588,241.817 237,248.5C 234.015,251.409 230.515,253.409 226.5,254.5 Z"/></g>
<g><path style="opacity:1" fill="#b9e087" d="M 379.5,207.5 C 395.284,211.39 401.784,221.39 399,237.5C 392.971,252.966 381.804,258.799 365.5,255C 350.625,245.297 347.125,232.464 355,216.5C 357.375,214.286 359.875,212.286 362.5,210.5C 365.394,210.444 368.061,209.61 370.5,208C 373.482,207.502 376.482,207.335 379.5,207.5 Z"/></g>
<g><path style="opacity:1" fill="#bce686" d="M 221.5,254.5 C 219.5,254.5 217.5,254.5 215.5,254.5C 215.586,253.504 215.252,252.671 214.5,252C 211.623,250.873 208.623,250.206 205.5,250C 202.455,247.933 200.455,245.1 199.5,241.5C 201.579,239.843 201.746,237.843 200,235.5C 199.29,236.973 198.124,237.64 196.5,237.5C 196.335,233.818 196.501,230.152 197,226.5C 198.246,223.639 199.246,220.639 200,217.5C 202.72,216.777 204.887,215.277 206.5,213C 210.438,214.116 213.438,212.782 215.5,209C 217.259,208.202 218.926,208.369 220.5,209.5C 219.254,213.304 216.587,215.471 212.5,216C 211.447,219.367 209.114,221.034 205.5,221C 209.815,223.252 209.982,225.086 206,226.5C 204.044,230.094 204.211,233.594 206.5,237C 212.037,237.403 217.371,239.07 222.5,242C 225.397,243.715 226.731,246.215 226.5,249.5C 224.076,249.192 221.743,249.526 219.5,250.5C 220.025,251.192 220.692,251.692 221.5,252C 220.402,252.77 220.402,253.603 221.5,254.5 Z"/></g>
<g><path style="opacity:1" fill="#a8c383" d="M 413.5,196.5 C 414.478,196.811 415.145,197.478 415.5,198.5C 420.792,199.495 426.125,199.828 431.5,199.5C 431.5,208.5 431.5,217.5 431.5,226.5C 424.833,226.5 418.167,226.5 411.5,226.5C 411.599,223.763 411.265,221.096 410.5,218.5C 411.75,218.577 412.583,219.244 413,220.5C 413.494,222.134 413.66,223.801 413.5,225.5C 419.167,225.5 424.833,225.5 430.5,225.5C 430.5,217.167 430.5,208.833 430.5,200.5C 425.125,200.828 419.792,200.495 414.5,199.5C 413.873,198.583 413.539,197.583 413.5,196.5 Z"/></g>
<g><path style="opacity:1" fill="#070d03" d="M 215.5,225.5 C 224.556,224.904 226.889,228.571 222.5,236.5C 214.936,239.073 211.769,236.406 213,228.5C 214.045,227.627 214.878,226.627 215.5,225.5 Z"/></g>
<g><path style="opacity:1" fill="#070b03" d="M 370.5,236.5 C 369.735,233.904 369.401,231.237 369.5,228.5C 371.858,225.764 374.858,224.93 378.5,226C 382.393,229.588 382.393,233.254 378.5,237C 375.779,237.602 373.113,237.435 370.5,236.5 Z"/></g>
<g><path style="opacity:1" fill="#6b8749" d="M 369.5,228.5 C 369.401,231.237 369.735,233.904 370.5,236.5C 368.974,235.508 368.307,234.008 368.5,232C 368.514,230.615 368.848,229.449 369.5,228.5 Z"/></g>
<g><path style="opacity:1" fill="#0c1500" d="M 255.5,239.5 C 269.329,238.833 283.329,238.5 297.5,238.5C 311.85,238.501 325.85,239.167 339.5,240.5C 339.167,240.5 338.833,240.5 338.5,240.5C 311.005,239.502 283.338,239.169 255.5,239.5 Z"/></g>
<g><path style="opacity:1" fill="#8ba769" d="M 146.5,239.5 C 158.88,238.854 170.88,239.521 182.5,241.5C 181.833,241.167 181.167,240.833 180.5,240.5C 168.988,240.828 157.654,240.495 146.5,239.5 Z"/></g>
<g><path style="opacity:1" fill="#88a465" d="M 255.5,239.5 C 283.338,239.169 311.005,239.502 338.5,240.5C 311.167,240.5 283.833,240.5 256.5,240.5C 255.857,242.076 254.857,243.41 253.5,244.5C 253.796,242.597 254.463,240.93 255.5,239.5 Z"/></g>
<g><path style="opacity:1" fill="#9db97a" d="M 205.5,251.5 C 209.211,251.614 212.545,252.614 215.5,254.5C 217.5,254.5 219.5,254.5 221.5,254.5C 223.167,254.5 224.833,254.5 226.5,254.5C 223.144,256.379 219.477,256.879 215.5,256C 211.258,256.262 207.925,254.762 205.5,251.5 Z"/></g>
<g><path style="opacity:1" fill="#b0cf88" d="M 256.5,240.5 C 255.66,244.128 254.327,247.628 252.5,251C 252.759,252.261 253.426,253.261 254.5,254C 283.831,254.5 313.165,254.667 342.5,254.5C 340.247,250.165 338.914,245.498 338.5,240.5C 338.833,240.5 339.167,240.5 339.5,240.5C 341.032,245.896 343.365,250.896 346.5,255.5C 313.662,255.832 280.996,255.498 248.5,254.5C 250.544,251.377 252.211,248.044 253.5,244.5C 254.857,243.41 255.857,242.076 256.5,240.5 Z"/></g>
<g><path style="opacity:1" fill="#bce688" d="M 256.5,240.5 C 283.833,240.5 311.167,240.5 338.5,240.5C 338.914,245.498 340.247,250.165 342.5,254.5C 313.165,254.667 283.831,254.5 254.5,254C 253.426,253.261 252.759,252.261 252.5,251C 254.327,247.628 255.66,244.128 256.5,240.5 Z"/></g>
<g><path style="opacity:1" fill="#2f3d1d" d="M 189.5,255.5 C 178.331,256.369 166.998,257.035 155.5,257.5C 157.292,256.691 159.292,256.191 161.5,256C 170.827,255.5 180.161,255.334 189.5,255.5 Z"/></g>
<g><path style="opacity:1" fill="#2a3918" d="M 248.5,254.5 C 280.996,255.498 313.662,255.832 346.5,255.5C 313.664,256.83 280.664,256.83 247.5,255.5C 247.624,254.893 247.957,254.56 248.5,254.5 Z"/></g>
<g><path style="opacity:1" fill="#859b6b" d="M 405.5,253.5 C 415.961,255.158 426.628,256.158 437.5,256.5C 426.147,256.832 414.814,256.499 403.5,255.5C 403.855,254.478 404.522,253.811 405.5,253.5 Z"/></g>
<g><path style="opacity:1" fill="#b5d688" d="M 180.5,240.5 C 181.167,240.833 181.833,241.167 182.5,241.5C 184.833,246.167 187.167,250.833 189.5,255.5C 180.161,255.334 170.827,255.5 161.5,256C 159.292,256.191 157.292,256.691 155.5,257.5C 149.445,257.738 144.111,259.738 139.5,263.5C 139.5,262.167 139.5,260.833 139.5,259.5C 144.079,257.696 148.746,256.196 153.5,255C 162.997,255.099 172.331,254.099 181.5,252C 181.167,251.667 180.833,251.333 180.5,251C 181.804,250.196 182.471,249.029 182.5,247.5C 181.063,245.423 180.396,243.09 180.5,240.5 Z"/></g>
<g><path style="opacity:0.95" fill="#d1e8ad" d="M 10.5,191.5 C 9.40107,206.33 7.56773,220.997 5,235.5C 4.33333,244.833 4.33333,254.167 5,263.5C 7.38544,277.07 9.0521,290.737 10,304.5C 12.0791,312.215 14.4124,319.881 17,327.5C 17.6667,328.167 18.3333,328.833 19,329.5C 19.4552,332.854 19.9552,336.187 20.5,339.5C 15.4046,328.716 11.5713,317.382 9,305.5C 2.26291,276.072 0.929581,246.406 5,216.5C 6.25133,208.825 7.58466,201.158 9,193.5C 9.27842,192.584 9.77842,191.918 10.5,191.5 Z"/></g>
<g><path style="opacity:1" fill="#b6d78d" d="M 184.5,269.5 C 266.668,269.167 348.668,269.501 430.5,270.5C 349.499,270.333 268.499,270.5 187.5,271C 186.538,275.37 185.205,279.537 183.5,283.5C 183.669,278.819 184.002,274.152 184.5,269.5 Z"/></g>
<g><path style="opacity:1" fill="#bce588" d="M 430.5,270.5 C 430.5,307.167 430.5,343.833 430.5,380.5C 428.833,380.5 427.167,380.5 425.5,380.5C 309.001,379.667 192.334,379.167 75.5,379C 75,378.5 74.5,378 74,377.5C 72.9887,378.337 71.8221,378.67 70.5,378.5C 70.5,370.5 70.5,362.5 70.5,354.5C 77.1584,355.113 83.825,354.613 90.5,353C 99.8511,352.832 109.184,352.332 118.5,351.5C 124.902,349.896 130.902,347.563 136.5,344.5C 154.926,337.743 168.26,325.41 176.5,307.5C 177.5,307.5 178.5,307.5 179.5,307.5C 179.616,304.14 179.949,300.807 180.5,297.5C 181.191,292.74 182.191,288.074 183.5,283.5C 185.205,279.537 186.538,275.37 187.5,271C 268.499,270.5 349.499,270.333 430.5,270.5 Z"/></g>
<g><path style="opacity:1" fill="#bce388" d="M 119.5,335.5 C 116.627,335.802 113.961,336.469 111.5,337.5C 107.176,337.927 102.842,338.261 98.5,338.5C 88.8333,338.5 79.1667,338.5 69.5,338.5C 69.5,337.5 69.5,336.5 69.5,335.5C 69.5784,330.999 71.2451,327.332 74.5,324.5C 78.6325,323.102 82.9659,322.269 87.5,322C 89.3197,321.8 90.653,320.966 91.5,319.5C 94.0907,314.608 95.2574,309.274 95,303.5C 102.857,288.596 114.023,285.429 128.5,294C 131.257,294.782 133.757,294.282 136,292.5C 138.637,281.537 145.137,274.037 155.5,270C 160.823,269.501 166.156,269.334 171.5,269.5C 172.308,292.888 163.641,311.721 145.5,326C 137.487,331.002 128.82,334.168 119.5,335.5 Z"/></g>
<g><path style="opacity:1" fill="#acca84" d="M 139.5,263.5 C 134.593,266.915 130.926,271.415 128.5,277C 121.863,276.559 115.196,276.559 108.5,277C 104.631,277.605 100.965,278.771 97.5,280.5C 98.0065,279.141 99.0065,278.141 100.5,277.5C 109.564,274.317 118.898,273.651 128.5,275.5C 128.449,273.43 129.115,271.597 130.5,270C 130.355,269.228 130.022,268.561 129.5,268C 130.793,267.51 132.127,267.343 133.5,267.5C 134.031,264.221 136.031,262.887 139.5,263.5 Z"/></g>
<g><path style="opacity:1" fill="#79915a" d="M 184.5,269.5 C 266.665,268.501 348.998,268.167 431.5,268.5C 431.5,306.167 431.5,343.833 431.5,381.5C 310.332,381.833 189.332,381.5 68.5,380.5C 187.5,380.5 306.5,380.5 425.5,380.5C 427.167,380.5 428.833,380.5 430.5,380.5C 430.5,343.833 430.5,307.167 430.5,270.5C 348.668,269.501 266.668,269.167 184.5,269.5 Z"/></g>
<g><path style="opacity:1" fill="#cbe6a4" d="M 488.5,191.5 C 496.674,221.303 498.508,251.636 494,282.5C 491.186,300.578 486.853,318.245 481,335.5C 480.059,337.727 478.892,339.727 477.5,341.5C 480.376,331.6 483.043,321.6 485.5,311.5C 486.021,303.489 486.354,295.489 486.5,287.5C 487.167,289.5 487.833,291.5 488.5,293.5C 490.604,291.417 490.938,289.083 489.5,286.5C 490.052,284.667 490.885,283 492,281.5C 492.833,271.002 493.666,260.502 494.5,250C 493.541,230.274 491.541,210.774 488.5,191.5 Z"/></g>
<g><path style="opacity:1" fill="#0c1207" d="M 224.5,296.5 C 230.653,296.484 233.486,299.484 233,305.5C 230.794,309.125 227.627,310.292 223.5,309C 219.309,304.46 219.642,300.293 224.5,296.5 Z"/></g>
<g><path style="opacity:1" fill="#0e1409" d="M 361.5,301.5 C 367.683,301.512 370.516,304.512 370,310.5C 365.951,315.818 361.951,315.818 358,310.5C 356.665,306.392 357.832,303.392 361.5,301.5 Z"/></g>
<g><path style="opacity:1" fill="#9bb578" d="M 180.5,297.5 C 179.949,300.807 179.616,304.14 179.5,307.5C 178.5,307.5 177.5,307.5 176.5,307.5C 177.658,304.011 178.991,300.678 180.5,297.5 Z"/></g>
<g><path style="opacity:1" fill="#b0cb88" d="M 91.5,319.5 C 90.653,320.966 89.3197,321.8 87.5,322C 82.9659,322.269 78.6325,323.102 74.5,324.5C 75.343,322.827 76.6763,321.66 78.5,321C 82.882,320.708 87.2153,320.208 91.5,319.5 Z"/></g>
<g><path style="opacity:1" fill="#0e1309" d="M 271.5,332.5 C 277.62,333.061 280.12,336.395 279,342.5C 274.615,346.756 270.615,346.423 267,341.5C 266.053,337.279 267.553,334.279 271.5,332.5 Z"/></g>
<g><path style="opacity:1" fill="#364822" d="M 119.5,335.5 C 117.22,337.223 114.553,337.889 111.5,337.5C 113.961,336.469 116.627,335.802 119.5,335.5 Z"/></g>
<g><path style="opacity:1" fill="#546839" d="M 69.5,335.5 C 69.5,336.5 69.5,337.5 69.5,338.5C 79.1667,338.5 88.8333,338.5 98.5,338.5C 88.6806,339.494 78.6806,339.827 68.5,339.5C 68.2322,337.901 68.5655,336.568 69.5,335.5 Z"/></g>
<g><path style="opacity:1" fill="#070d03" d="M 342.5,339.5 C 351.302,338.772 353.969,342.272 350.5,350C 344.467,353.248 341.134,351.581 340.5,345C 340.395,342.822 341.061,340.988 342.5,339.5 Z"/></g>
<g><path style="opacity:0.78" fill="#d3e8b6" d="M 20.5,339.5 C 23.1128,342.645 24.7795,346.311 25.5,350.5C 22.5743,347.524 20.9077,343.858 20.5,339.5 Z"/></g>
<g><path style="opacity:1" fill="#0a0f05" d="M 402.5,346.5 C 409.369,346.538 411.869,349.871 410,356.5C 405.969,360.719 402.302,360.385 399,355.5C 397.98,351.553 399.147,348.553 402.5,346.5 Z"/></g>
<g><path style="opacity:1" fill="#070c04" d="M 175.5,347.5 C 185.267,347.073 187.6,350.906 182.5,359C 173.471,359.449 171.138,355.615 175.5,347.5 Z"/></g>
<g><path style="opacity:1" fill="#465a2f" d="M 119.5,348.5 C 116.054,349.687 112.387,350.354 108.5,350.5C 111.876,348.918 115.542,348.251 119.5,348.5 Z"/></g>
<g><path style="opacity:0.835" fill="#d9edc0" d="M 25.5,351.5 C 26.4972,351.47 27.1639,351.97 27.5,353C 28.6621,356.147 29.6621,359.314 30.5,362.5C 28.2589,359.117 26.5922,355.45 25.5,351.5 Z"/></g>
<g><path style="opacity:1" fill="#c8e59d" d="M 30.5,362.5 C 32.3904,362.297 33.8904,362.963 35,364.5C 35.2362,366.764 35.7362,368.931 36.5,371C 37.8989,371.595 39.2322,371.428 40.5,370.5C 41.5,372 42.5,373.5 43.5,375C 44.0042,384.148 48.1709,391.648 56,397.5C 56.4935,399.134 56.6602,400.801 56.5,402.5C 46.3302,390.165 37.6635,376.831 30.5,362.5 Z"/></g>
<g><path style="opacity:1" fill="#b7da8a" d="M 136.5,344.5 C 130.902,347.563 124.902,349.896 118.5,351.5C 109.184,352.332 99.8511,352.832 90.5,353C 83.825,354.613 77.1584,355.113 70.5,354.5C 70.5,362.5 70.5,370.5 70.5,378.5C 71.8221,378.67 72.9887,378.337 74,377.5C 74.5,378 75,378.5 75.5,379C 192.334,379.167 309.001,379.667 425.5,380.5C 306.5,380.5 187.5,380.5 68.5,380.5C 68.5,370.833 68.5,361.167 68.5,351.5C 81.8587,351.737 95.192,351.404 108.5,350.5C 112.387,350.354 116.054,349.687 119.5,348.5C 125.173,347.164 130.839,345.831 136.5,344.5 Z"/></g>
<g><path style="opacity:1" fill="#cce6a7" d="M 468.5,361.5 C 464.299,370.897 459.299,379.897 453.5,388.5C 448.827,395.164 443.827,401.497 438.5,407.5C 438.34,405.801 438.506,404.134 439,402.5C 444.824,397.561 448.658,391.561 450.5,384.5C 452.144,384.714 453.644,384.38 455,383.5C 455.727,381.047 456.727,378.714 458,376.5C 461.03,371.084 464.53,366.084 468.5,361.5 Z"/></g>
<g><path style="opacity:0.988" fill="#d0e7b0" d="M 60.5,407.5 C 62.9811,409.023 65.4811,410.69 68,412.5C 69.6888,415.667 71.5221,418.667 73.5,421.5C 68.5101,417.508 64.1768,412.841 60.5,407.5 Z"/></g>
<g><path style="opacity:1" fill="#cce7a5" d="M 438.5,407.5 C 428.833,419.833 417.833,430.833 405.5,440.5C 405.351,439.448 405.517,438.448 406,437.5C 408.503,435.52 410.336,433.187 411.5,430.5C 415.344,430.505 418.01,428.672 419.5,425C 419.355,424.228 419.022,423.561 418.5,423C 420.658,421.543 422.491,419.71 424,417.5C 424.333,417.833 424.667,418.167 425,418.5C 425.307,415.124 427.14,413.79 430.5,414.5C 430.5,413.5 430.5,412.5 430.5,411.5C 433.167,410.167 435.833,408.833 438.5,407.5 Z"/></g>
<g><path style="opacity:1" fill="#d3e8b3" d="M 77.5,426.5 C 78.8734,426.343 80.2068,426.51 81.5,427C 86.398,430.968 90.7313,435.468 94.5,440.5C 88.2457,436.582 82.579,431.915 77.5,426.5 Z"/></g>
<g><path style="opacity:1" fill="#d2e9b2" d="M 404.5,440.5 C 400.39,445.261 395.39,448.928 389.5,451.5C 392.158,449.46 394.491,446.96 396.5,444C 397.793,443.51 399.127,443.343 400.5,443.5C 400.5,442.5 400.5,441.5 400.5,440.5C 401.833,440.5 403.167,440.5 404.5,440.5 Z"/></g>
<g><path style="opacity:0.506" fill="#d0e7b0" d="M 389.5,451.5 C 381.161,458.676 371.827,464.342 361.5,468.5C 361.369,467.624 361.702,466.957 362.5,466.5C 368.798,464.018 374.465,460.518 379.5,456C 380.793,455.51 382.127,455.343 383.5,455.5C 383.5,454.5 383.5,453.5 383.5,452.5C 385.565,452.483 387.565,452.15 389.5,451.5 Z"/></g>
<g><path style="opacity:0.894" fill="#d1e9b0" d="M 127.5,463.5 C 128.873,463.343 130.207,463.51 131.5,464C 137.411,466.899 143.078,470.065 148.5,473.5C 147.127,473.657 145.793,473.49 144.5,473C 138.589,470.101 132.922,466.935 127.5,463.5 Z"/></g>
<g><path style="opacity:0.392" fill="#d1e9b1" d="M 148.5,473.5 C 155.192,475.347 161.526,478.014 167.5,481.5C 162.777,480.312 158.111,478.812 153.5,477C 151.569,476.098 149.903,474.931 148.5,473.5 Z"/></g>
<g><path style="opacity:0.8" fill="#d1e9ae" d="M 361.5,468.5 C 356.549,471.92 351.215,474.753 345.5,477C 340.889,478.812 336.223,480.312 331.5,481.5C 336.674,479.239 341.674,476.405 346.5,473C 348.134,472.506 349.801,472.34 351.5,472.5C 351.38,469.795 352.38,469.128 354.5,470.5C 356.523,468.827 358.856,468.16 361.5,468.5 Z"/></g>
<g><path style="opacity:1" fill="#c7e59c" d="M 167.5,481.5 C 177.643,482.529 187.643,484.362 197.5,487C 200.106,487.792 202.106,489.292 203.5,491.5C 190.986,489.544 178.986,486.211 167.5,481.5 Z"/></g>
<g><path style="opacity:1" fill="#cde6a8" d="M 303.5,489.5 C 293.158,492.455 282.491,494.122 271.5,494.5C 271.611,493.883 271.944,493.383 272.5,493C 282.634,490.903 292.968,489.736 303.5,489.5 Z"/></g>
<g><path style="opacity:0.594" fill="#d0e6ae" d="M 204.5,491.5 C 214.575,491.729 224.575,492.563 234.5,494C 246.829,494.5 259.162,494.667 271.5,494.5C 248.991,497.613 226.658,496.613 204.5,491.5 Z"/></g>
</svg>
